<?xml version='1.0' encoding='utf-8'?>
<svg xmlns="http://www.w3.org/2000/svg" clip-rule="evenodd" fill-rule="evenodd" stroke-linejoin="round" stroke-miterlimit="2" version="1.1" viewBox="0 0 18750 18750"> <g transform="scale(4.1667)"> <g transform="translate(133.31 342)"> <path d="m1899.8 14.397c46.9-9.444 95.39-14.397 145.03-14.397 403.88 0 731.79 327.9 731.79 731.79 0 403.88-327.91 731.79-731.79 731.79-240.8 0-454.59-116.56-587.99-296.29 91.21 52.09 196.72 81.85 309.13 81.85 344.71 0 624.57-279.86 624.57-624.57 0-298.79-210.27-548.86-490.74-610.17z" fill="#ddd"/> </g> <path d="m0 2447.6c109.93-94.21 252.76-151.16 408.79-151.16 85.787 0 167.58 17.22 242.15 48.39-7.85-39.65-11.969-80.65-11.969-122.61 0-347.03 281.75-628.78 628.79-628.78s628.79 281.75 628.79 628.78c0 14.55-0.5 28.97-1.47 43.29 85.24-43.22 181.66-67.59 283.72-67.59 4.17 0 8.32 0.04 12.47 0.12-5.93-34.64-9.01-70.26-9.01-106.6 0-347.03 281.74-628.78 628.78-628.78 269.13 0 498.99 169.44 588.65 407.41 106.79-83.64 241.24-133.51 387.24-133.51 21.13 0 42.02 1.05 62.66 3.09 112.87-168.35 304.9-279.25 522.63-279.25 43.8 0 86.56 4.49 127.79 13.02v1231.5c-41.23 8.53-83.99 13.02-127.79 13.02-21.13 0-42.02-1.05-62.66-3.09-112.87 168.35-304.9 279.25-522.63 279.25-1.53 0-3.06 0-4.55-0.01-93.06 208.48-296.25 357.13-535.45 371.84-10.15 338.16-287.88 609.58-628.49 609.58-319.48 0-583.63-238.78-623.56-547.42-93.38-28.57-177.54-78.29-246.9-143.58-115.37 136.38-287.75 223.04-480.22 223.04-154.12 0-295.36-55.57-404.75-147.73-114.52 119.64-275.74 194.16-454.22 194.16-156.03 0-298.86-56.95-408.79-151.16v-955.25z" fill="#2d396b"/> <path d="m2561.2 4500c-188.05-131.13-311.21-349.05-311.21-595.5 0-280.21 159.2-523.53 392.04-644.38-37.36-87.44-58.04-183.64-58.04-284.62 0-400.41 325.09-725.5 725.5-725.5 211.22 0 401.48 90.46 534.09 234.68 120.67-89.62 270.14-142.68 431.91-142.68 78.32 0 153.76 12.44 224.5 35.46v2122.5h-1938.8z" fill="#535e8e"/> <path d="m0 3007c120.39-97.53 273.68-155.97 440.5-155.97 316.33 0 583.97 210.13 670.84 498.33 123.4-200.04 344.55-333.48 596.63-333.48 386.62 0 700.5 313.89 700.5 700.5 0 33.79-2.4 67.03-7.04 99.59 313.94 69.31 549.07 349.44 549.07 684.06h-2950.5v-1493z" fill="#737ca3"/> <g transform="matrix(.70004 0 0 .70004 -146.04 721.69)"> <path d="m995 634 36.6 112.63h118.42l-95.81 69.61 36.6 112.63-95.81-69.61-95.809 69.61 36.596-112.63-95.809-69.61h118.43l36.596-112.63z" fill="#b5bad1"/> </g> <g transform="translate(440.09 -292)"> <path d="m995 634 36.6 112.63h118.42l-95.81 69.61 36.6 112.63-95.81-69.61-95.809 69.61 36.596-112.63-95.809-69.61h118.43l36.596-112.63z" fill="#b5bad1"/> </g> <g transform="translate(2593.5 384.08)"> <path d="m995 634 36.6 112.63h118.42l-95.81 69.61 36.6 112.63-95.81-69.61-95.809 69.61 36.596-112.63-95.809-69.61h118.43l36.596-112.63z" fill="#b5bad1"/> </g> <g transform="matrix(.70004 0 0 .70004 3309.2 88.067)"> <path d="m995 634 36.6 112.63h118.42l-95.81 69.61 36.6 112.63-95.81-69.61-95.809 69.61 36.596-112.63-95.809-69.61h118.43l36.596-112.63z" fill="#b5bad1"/> </g> </g> </svg>