<?xml version="1.0" encoding="UTF-8"?>
<svg xmlns="http://www.w3.org/2000/svg" xmlns:xlink="http://www.w3.org/1999/xlink" width="3000" height="1688" viewBox="0 0 3000 1688">
<defs>
<clipPath id="clip-0">
<path clip-rule="nonzero" d="M 1831 800 L 1956 800 L 1956 913 L 1831 913 Z M 1831 800 "/>
</clipPath>
<clipPath id="clip-1">
<path clip-rule="evenodd" d="M 2176.691406 751.582031 C 2173.820312 808.636719 2168.601562 911.910156 2103.230469 931.238281 C 2083.109375 937.1875 2045.609375 940.878906 2028.949219 944.667969 C 1983.578125 954.988281 1970.421875 958.945312 1953.128906 957.234375 C 1854.738281 947.484375 1671.238281 756.464844 1699.820312 648.921875 C 1718.371094 579.109375 1894.328125 550.148438 1975.628906 524.410156 C 2043.660156 502.871094 2144.140625 464.839844 2187.609375 494.460938 C 2212.238281 511.25 2180.949219 666.730469 2176.691406 751.582031 Z M 2176.691406 751.582031 "/>
</clipPath>
<clipPath id="clip-2">
<path clip-rule="nonzero" d="M 1904 945 L 2629 945 L 2629 1230 L 1904 1230 Z M 1904 945 "/>
</clipPath>
<clipPath id="clip-3">
<path clip-rule="evenodd" d="M 2611.960938 939.769531 C 2681.789062 986.480469 2724.039062 1027.898438 2795.800781 1116.746094 C 2847.820312 1181.164062 2976.800781 1261.015625 3000 1288.089844 C 3022.21875 1314.015625 3005.53125 1421.605469 3000 1438.035156 C 2979.058594 1500.304688 2745.800781 1340.054688 2611.960938 1357.371094 C 2433.460938 1380.472656 2251.570312 1410.050781 2145.851562 1413.039062 C 2079.679688 1414.910156 1994.699219 1403.859375 1955.230469 1357.371094 C 1915.761719 1310.886719 1895.21875 1182.871094 1909.039062 1134.128906 C 1922.371094 1087.140625 1988.199219 1010.796875 2038.171875 1064.894531 C 2053.109375 1081.066406 2095.921875 1148.753906 2160.871094 1151.6875 C 2301.238281 1158.03125 2374.738281 1072.835938 2351.960938 983.007812 C 2343.789062 950.777344 2239.121094 801.421875 2270.929688 800.425781 C 2365.941406 797.449219 2509.78125 871.421875 2611.960938 939.769531 Z M 2611.960938 939.769531 "/>
</clipPath>
<clipPath id="clip-4">
<path clip-rule="nonzero" d="M 2542 929 L 2976 929 L 2976 1339 L 2542 1339 Z M 2542 929 "/>
</clipPath>
<clipPath id="clip-5">
<path clip-rule="evenodd" d="M 2611.960938 939.769531 C 2681.789062 986.480469 2724.039062 1027.898438 2795.800781 1116.746094 C 2847.820312 1181.164062 2976.800781 1261.015625 3000 1288.089844 C 3022.21875 1314.015625 3005.53125 1421.605469 3000 1438.035156 C 2979.058594 1500.304688 2745.800781 1340.054688 2611.960938 1357.371094 C 2433.460938 1380.472656 2251.570312 1410.050781 2145.851562 1413.039062 C 2079.679688 1414.910156 1994.699219 1403.859375 1955.230469 1357.371094 C 1915.761719 1310.886719 1895.21875 1182.871094 1909.039062 1134.128906 C 1922.371094 1087.140625 1988.199219 1010.796875 2038.171875 1064.894531 C 2053.109375 1081.066406 2095.921875 1148.753906 2160.871094 1151.6875 C 2301.238281 1158.03125 2374.738281 1072.835938 2351.960938 983.007812 C 2343.789062 950.777344 2239.121094 801.421875 2270.929688 800.425781 C 2365.941406 797.449219 2509.78125 871.421875 2611.960938 939.769531 Z M 2611.960938 939.769531 "/>
</clipPath>
<clipPath id="clip-6">
<path clip-rule="nonzero" d="M 1014 763 L 1539 763 L 1539 983 L 1014 983 Z M 1014 763 "/>
</clipPath>
<clipPath id="clip-7">
<path clip-rule="evenodd" d="M 1575.019531 805.164062 C 1644.539062 858.847656 1728.890625 907.949219 1784.011719 954.050781 C 1876.789062 1085.496094 1933.601562 1213.011719 1975.628906 1358.882812 C 1556.449219 1299.929688 1055.601562 1140.261719 507.089844 1261.140625 C 429.777344 1286.605469 431.492188 1195.433594 507.089844 1112.179688 C 589.492188 1021.429688 681.765625 926.480469 763.53125 844.25 C 825.078125 802.164062 930.054688 787.1875 1032.851562 763.328125 Z M 1575.019531 805.164062 "/>
</clipPath>
</defs>
<path fill-rule="evenodd" fill="rgb(212, 135, 115)" fill-opacity="1" d="M 264.09375 989.484375 L 264.09375 1057.183594 L 240.847656 1102.703125 L 199.34375 1102.703125 L 222.238281 990.945312 L 264.09375 989.484375 "/>
<path fill-rule="evenodd" fill="rgb(185, 103, 90)" fill-opacity="1" d="M 147.015625 989.484375 L 143.261719 992.765625 L 145.710938 1058.074219 L 163.871094 1102.386719 L 201.941406 1102.386719 L 227.96875 987.308594 L 151.839844 989.484375 L 147.015625 989.484375 "/>
<path fill-rule="evenodd" fill="rgb(235, 209, 204)" fill-opacity="1" d="M 226.875 981.855469 C 235.257812 981.425781 248.011719 981.972656 256.644531 981.855469 L 264.09375 990.738281 L 264.09375 994.179688 L 226.875 992.765625 L 222.664062 992.765625 L 226.875 981.855469 "/>
<path fill-rule="evenodd" fill="rgb(212, 196, 196)" fill-opacity="1" d="M 144.503906 992.765625 C 141.65625 992.222656 143.917969 989.265625 149.117188 983.402344 L 230.273438 981.855469 L 226.875 992.765625 L 144.503906 992.765625 "/>
<path fill-rule="evenodd" fill="rgb(115, 63, 64)" fill-opacity="1" d="M 55.195312 1167.066406 C 72.714844 1167.066406 86.941406 1180.242188 86.941406 1196.46875 C 86.941406 1212.691406 72.714844 1225.867188 55.195312 1225.867188 C 37.675781 1225.867188 23.453125 1212.691406 23.453125 1196.46875 C 23.453125 1180.242188 37.675781 1167.066406 55.195312 1167.066406 "/>
<path fill-rule="evenodd" fill="rgb(146, 79, 72)" fill-opacity="1" d="M 55.195312 1173.351562 C 68.371094 1173.351562 79.066406 1183.710938 79.066406 1196.46875 C 79.066406 1209.226562 68.371094 1219.582031 55.195312 1219.582031 C 42.019531 1219.582031 31.324219 1209.226562 31.324219 1196.46875 C 31.324219 1183.710938 42.019531 1173.351562 55.195312 1173.351562 "/>
<path fill-rule="evenodd" fill="rgb(235, 234, 232)" fill-opacity="1" d="M 517.671875 909.621094 L 813.34375 720.558594 L 1167.148438 664.320312 L 1167.148438 635.351562 L 766.566406 618.238281 L 498.089844 618.238281 L 517.671875 909.621094 "/>
<path fill-rule="evenodd" fill="rgb(186, 182, 179)" fill-opacity="1" d="M 477.757812 940.195312 L 1169.109375 653.070312 C 1071.929688 602.269531 911.828125 605.328125 734.46875 623.160156 L 477.757812 623.160156 L 449.746094 909.621094 L 477.757812 940.195312 "/>
<path fill-rule="evenodd" fill="rgb(138, 145, 149)" fill-opacity="1" d="M 493.070312 655.109375 C 515.316406 741.097656 520.941406 816.496094 517.671875 909.621094 L 477.757812 934.65625 C 476.574219 880.929688 485.488281 690.667969 493.070312 655.109375 "/>
<path fill-rule="evenodd" fill="rgb(30, 18, 36)" fill-opacity="1" d="M 1309.539062 511.019531 C 1018.320312 518.371094 721.652344 504.488281 407.351562 511.019531 L 407.351562 1238.164062 L 486.957031 1174.765625 C 477.039062 1026.125 471.535156 803.121094 486.957031 627.011719 C 521.140625 646.269531 559.707031 655.558594 588.617188 653.070312 C 698.800781 651.308594 813.96875 639.390625 929.355469 627.011719 L 1007.871094 627.011719 L 1169.109375 653.070312 L 1191.75 669.128906 L 1309.539062 511.019531 "/>
<path fill-rule="evenodd" fill="rgb(189, 108, 90)" fill-opacity="1" d="M 380.980469 1170.695312 L -19.679688 1420.019531 L -4.34375 1672.078125 L 380.980469 1294.875 M 271.933594 731.394531 C 286.175781 731.394531 297.734375 743.074219 297.734375 757.457031 C 297.734375 771.84375 286.175781 783.519531 271.933594 783.519531 C 257.691406 783.519531 246.128906 771.84375 246.128906 757.457031 C 246.128906 743.074219 257.691406 731.394531 271.933594 731.394531 "/>
<path fill-rule="evenodd" fill="rgb(109, 60, 65)" fill-opacity="1" d="M 271.488281 731.394531 C 258.191406 731.394531 246.148438 743.074219 246.128906 757.457031 C 246.109375 772.203125 258.609375 784.117188 271.933594 783.519531 C 272.785156 775.691406 270.222656 735.804688 271.488281 731.394531 "/>
<path fill-rule="evenodd" fill="rgb(143, 122, 124)" fill-opacity="1" d="M 477.757812 940.195312 L 875.941406 693.871094 C 968.84375 661.28125 1114.691406 647.550781 1211.601562 659.21875 L 1105.140625 781.652344 L 769.398438 871.910156 L 532.421875 1111.777344 L 477.757812 1164.132812 L 477.757812 940.195312 "/>
<path fill-rule="evenodd" fill="rgb(236, 176, 157)" fill-opacity="1" d="M 2071.808594 1126.410156 C 2049.691406 1112.863281 2113.019531 1092.96875 2130.398438 1075.1875 C 2147.148438 1058.058594 2158.28125 1017.71875 2176.101562 1019.726562 C 2193.929688 1021.734375 2220.671875 1063.109375 2237.351562 1087.234375 C 2253.738281 1110.9375 2296.25 1144.421875 2276.199219 1164.46875 C 2232.339844 1208.339844 2096.109375 1141.289062 2071.808594 1126.410156 "/>
<path fill-rule="evenodd" fill="rgb(49, 55, 72)" fill-opacity="1" d="M 1722.238281 333.011719 L 1842.429688 193.648438 L 2208.320312 193.648438 L 2035.828125 359.269531 C 1929.351562 405.011719 1824.558594 403.398438 1722.238281 333.011719 "/>
<path fill-rule="evenodd" fill="rgb(49, 54, 71)" fill-opacity="1" d="M 1753.328125 359.269531 C 2182.390625 364.558594 2605.109375 382.820312 3002.609375 434.570312 L 2982.289062 505.808594 L 1838.140625 593.789062 C 1713.378906 549.058594 1696.570312 466.910156 1753.328125 359.269531 "/>
<path fill-rule="evenodd" fill="rgb(144, 149, 154)" fill-opacity="1" d="M 2336.46875 506.039062 C 2342.421875 500.878906 2488.988281 580.648438 2561.378906 753.335938 C 2595.570312 834.902344 2679.5 913.097656 2746.859375 990.636719 C 2877.671875 1141.222656 3016.460938 1278.492188 3011.21875 1289.761719 C 3006.171875 1300.625 2926.691406 1255.101562 2827.851562 1165.753906 C 2588.648438 949.511719 2199.050781 542.398438 2208.488281 533.96875 L 2266.128906 521.539062 L 2336.46875 506.039062 "/>
<path fill-rule="evenodd" fill="rgb(167, 153, 153)" fill-opacity="1" d="M 2336.300781 505.289062 L 2336.128906 505.648438 C 2336.46875 505.359375 2337.160156 505.210938 2338.199219 505.351562 C 2340.71875 505.699219 2345.699219 507.628906 2352.589844 511.191406 C 2376.570312 523.589844 2423.960938 555.800781 2471.089844 608.75 C 2504.480469 646.269531 2537.738281 694.210938 2562.460938 752.882812 C 2576.910156 787.175781 2600.199219 820.847656 2627.328125 854.128906 C 2664.601562 899.835938 2709.128906 944.789062 2748.121094 989.535156 C 2845 1100.808594 2946.261719 1204.78125 2990.28125 1255.964844 C 3002.050781 1269.644531 3009.761719 1279.636719 3012.328125 1285.039062 C 3013.578125 1287.648438 3013.628906 1289.574219 3013.128906 1290.652344 C 3012.628906 1291.738281 3011.75 1292.554688 3010.441406 1293.027344 C 3009.109375 1293.507812 3007.171875 1293.601562 3004.679688 1293.152344 C 2995.261719 1291.460938 2976.058594 1281.890625 2950.210938 1264.964844 C 2917.628906 1243.636719 2874.300781 1210.613281 2826.429688 1167.332031 C 2779.269531 1124.640625 2726.261719 1074.53125 2671.640625 1021.496094 C 2595.851562 947.890625 2516.929688 868.671875 2446.128906 795.953125 C 2347.808594 694.964844 2265.148438 606.511719 2228.230469 563.039062 C 2217.878906 550.851562 2211.109375 542.179688 2208.570312 537.730469 C 2207.820312 536.410156 2207.421875 535.410156 2207.339844 534.761719 C 2207.25 534.019531 2207.480469 533.53125 2207.828125 533.21875 C 2207.949219 533.109375 2208.109375 533.03125 2208.28125 532.988281 L 2265.941406 520.660156 Z M 2209.441406 534.789062 C 2209.589844 535.21875 2209.890625 535.980469 2210.320312 536.730469 C 2212.851562 541.109375 2219.578125 549.648438 2229.851562 561.671875 C 2266.890625 604.988281 2349.808594 693.105469 2448.378906 793.761719 C 2519.359375 866.257812 2598.460938 945.242188 2674.378906 1018.671875 C 2729.070312 1071.566406 2782.089844 1121.585938 2829.28125 1164.175781 C 2868.359375 1199.5 2904.421875 1227.953125 2934.011719 1248.777344 C 2966.53125 1271.652344 2991.160156 1285.300781 3003.390625 1288.539062 C 3005.300781 1289.046875 3006.859375 1289.292969 3008.058594 1289.222656 C 3008.398438 1289.207031 3008.699219 1289.164062 3008.949219 1289.082031 C 3009.058594 1289.042969 3009.171875 1289.015625 3009.25 1288.957031 C 3009.21875 1288.789062 3009.148438 1288.394531 3009.050781 1288.097656 C 3008.660156 1286.933594 3007.851562 1285.429688 3006.691406 1283.585938 C 3000.351562 1273.523438 2983.851562 1254.433594 2960.628906 1228.785156 C 2909.570312 1172.414062 2826.058594 1084.59375 2745.589844 991.734375 C 2706.71875 946.847656 2662.308594 901.730469 2625.179688 855.878906 C 2597.988281 822.308594 2574.710938 788.339844 2560.289062 753.789062 C 2535.890625 695.257812 2502.929688 647.390625 2469.808594 609.890625 C 2423.039062 556.921875 2375.941406 524.621094 2352.078125 512.171875 C 2346.621094 509.308594 2342.378906 507.511719 2339.660156 506.738281 C 2338.140625 506.308594 2337.171875 506.121094 2336.808594 506.429688 L 2336.628906 506.789062 L 2266.320312 522.421875 L 2209.441406 534.789062 "/>
<path fill-rule="evenodd" fill="rgb(230, 210, 205)" fill-opacity="1" d="M 2806.28125 1015.496094 C 2800.570312 1006.738281 2794.859375 997.980469 2789.160156 989.222656 "/>
<path fill-rule="evenodd" fill="rgb(227, 210, 206)" fill-opacity="1" d="M 2808.320312 1014.164062 C 2809.050781 1015.292969 2808.730469 1016.800781 2807.609375 1017.535156 C 2806.480469 1018.269531 2804.96875 1017.949219 2804.238281 1016.824219 C 2801.328125 1012.476562 2798.371094 1008.171875 2795.53125 1003.785156 C 2792.679688 999.398438 2789.960938 994.9375 2787.171875 990.515625 C 2786.460938 989.421875 2786.769531 987.949219 2787.859375 987.238281 C 2788.960938 986.523438 2790.429688 986.835938 2791.140625 987.929688 C 2794.058594 992.265625 2797.039062 996.558594 2799.910156 1000.933594 C 2802.769531 1005.304688 2805.511719 1009.753906 2808.320312 1014.164062 "/>
<path fill-rule="evenodd" fill="rgb(230, 210, 205)" fill-opacity="1" d="M 2866.089844 1025.628906 C 2874.070312 1018.871094 2882.050781 1012.117188 2890.03125 1005.363281 "/>
<path fill-rule="evenodd" fill="rgb(227, 210, 206)" fill-opacity="1" d="M 2867.671875 1027.484375 C 2866.640625 1028.351562 2865.109375 1028.226562 2864.238281 1027.199219 C 2863.371094 1026.175781 2863.5 1024.636719 2864.519531 1023.769531 C 2868.46875 1020.347656 2872.378906 1016.871094 2876.371094 1013.5 C 2880.371094 1010.132812 2884.460938 1006.871094 2888.5 1003.554688 C 2889.488281 1002.710938 2890.988281 1002.835938 2891.828125 1003.832031 C 2892.679688 1004.828125 2892.550781 1006.324219 2891.558594 1007.171875 C 2887.621094 1010.609375 2883.730469 1014.101562 2879.75 1017.488281 C 2875.769531 1020.875 2871.699219 1024.152344 2867.671875 1027.484375 "/>
<path fill-rule="evenodd" fill="rgb(230, 210, 205)" fill-opacity="1" d="M 2918.511719 1118.035156 C 2922.148438 1112.226562 2925.789062 1106.417969 2929.429688 1100.605469 "/>
<path fill-rule="evenodd" fill="rgb(227, 210, 206)" fill-opacity="1" d="M 2920.570312 1119.328125 C 2919.859375 1120.46875 2918.351562 1120.8125 2917.210938 1120.097656 C 2916.078125 1119.386719 2915.730469 1117.882812 2916.441406 1116.742188 C 2918.21875 1113.804688 2919.929688 1110.835938 2921.761719 1107.933594 C 2923.589844 1105.035156 2925.53125 1102.210938 2927.429688 1099.351562 C 2928.121094 1098.242188 2929.578125 1097.90625 2930.691406 1098.601562 C 2931.800781 1099.296875 2932.128906 1100.757812 2931.441406 1101.863281 C 2929.691406 1104.8125 2928 1107.796875 2926.179688 1110.710938 C 2924.371094 1113.621094 2922.441406 1116.453125 2920.570312 1119.328125 "/>
<path fill-rule="evenodd" fill="rgb(230, 210, 205)" fill-opacity="1" d="M 2810.429688 935.28125 C 2815.53125 926.160156 2820.628906 917.035156 2825.730469 907.910156 "/>
<path fill-rule="evenodd" fill="rgb(227, 210, 206)" fill-opacity="1" d="M 2812.550781 936.46875 C 2811.898438 937.644531 2810.410156 938.0625 2809.238281 937.40625 C 2808.070312 936.75 2807.648438 935.265625 2808.300781 934.09375 C 2810.800781 929.503906 2813.238281 924.878906 2815.800781 920.320312 C 2818.359375 915.765625 2821.039062 911.277344 2823.671875 906.757812 C 2824.300781 905.617188 2825.75 905.207031 2826.890625 905.84375 C 2828.03125 906.484375 2828.441406 907.925781 2827.800781 909.066406 C 2825.320312 913.671875 2822.898438 918.304688 2820.359375 922.871094 C 2817.820312 927.441406 2815.160156 931.9375 2812.550781 936.46875 "/>
<path fill-rule="evenodd" fill="rgb(230, 210, 205)" fill-opacity="1" d="M 2740.660156 867.496094 C 2742.230469 857.160156 2743.808594 846.828125 2745.390625 836.496094 "/>
<path fill-rule="evenodd" fill="rgb(227, 210, 206)" fill-opacity="1" d="M 2743.058594 867.863281 C 2742.859375 869.191406 2741.621094 870.105469 2740.289062 869.902344 C 2738.960938 869.699219 2738.050781 868.457031 2738.25 867.128906 C 2738.980469 861.953125 2739.640625 856.765625 2740.441406 851.601562 C 2741.238281 846.4375 2742.179688 841.292969 2743.050781 836.140625 C 2743.238281 834.847656 2744.449219 833.957031 2745.75 834.15625 C 2747.039062 834.351562 2747.929688 835.5625 2747.730469 836.855469 C 2747.019531 842.03125 2746.378906 847.222656 2745.601562 852.390625 C 2744.828125 857.558594 2743.910156 862.703125 2743.058594 867.863281 "/>
<path fill-rule="evenodd" fill="rgb(230, 210, 205)" fill-opacity="1" d="M 2835.601562 842.902344 C 2846 841.902344 2856.410156 840.902344 2866.808594 839.902344 "/>
<path fill-rule="evenodd" fill="rgb(227, 210, 206)" fill-opacity="1" d="M 2835.828125 845.324219 C 2834.488281 845.453125 2833.300781 844.472656 2833.171875 843.132812 C 2833.039062 841.796875 2834.03125 840.605469 2835.359375 840.476562 C 2840.558594 839.917969 2845.75 839.289062 2850.949219 838.800781 C 2856.160156 838.3125 2861.371094 837.964844 2866.578125 837.546875 C 2867.890625 837.421875 2869.039062 838.375 2869.171875 839.675781 C 2869.289062 840.976562 2868.339844 842.132812 2867.039062 842.257812 C 2861.839844 842.839844 2856.660156 843.492188 2851.449219 844.003906 C 2846.25 844.511719 2841.039062 844.882812 2835.828125 845.324219 "/>
<path fill-rule="evenodd" fill="rgb(230, 210, 205)" fill-opacity="1" d="M 2651.539062 828.484375 C 2649.390625 818.253906 2647.25 808.023438 2645.101562 797.796875 "/>
<path fill-rule="evenodd" fill="rgb(227, 210, 206)" fill-opacity="1" d="M 2653.921875 827.984375 C 2654.199219 829.300781 2653.351562 830.589844 2652.039062 830.867188 C 2650.730469 831.144531 2649.429688 830.300781 2649.160156 828.984375 C 2648.03125 823.882812 2646.828125 818.792969 2645.761719 813.675781 C 2644.699219 808.558594 2643.78125 803.414062 2642.78125 798.28125 C 2642.511719 797.003906 2643.339844 795.746094 2644.609375 795.476562 C 2645.890625 795.210938 2647.148438 796.027344 2647.421875 797.308594 C 2648.570312 802.40625 2649.789062 807.488281 2650.878906 812.601562 C 2651.960938 817.71875 2652.910156 822.855469 2653.921875 827.984375 "/>
<path fill-rule="evenodd" fill="rgb(230, 210, 205)" fill-opacity="1" d="M 2954.058594 968.054688 C 2962.679688 956.382812 2971.300781 944.710938 2979.921875 933.042969 "/>
<path fill-rule="evenodd" fill="rgb(227, 210, 206)" fill-opacity="1" d="M 2956.019531 969.5 C 2955.21875 970.578125 2953.691406 970.808594 2952.609375 970.011719 C 2951.53125 969.214844 2951.300781 967.6875 2952.101562 966.605469 C 2956.359375 960.738281 2960.570312 954.824219 2964.890625 948.996094 C 2969.210938 943.164062 2973.640625 937.421875 2978.011719 931.636719 C 2978.789062 930.585938 2980.269531 930.359375 2981.320312 931.136719 C 2982.378906 931.914062 2982.601562 933.398438 2981.820312 934.449219 C 2977.578125 940.332031 2973.390625 946.257812 2969.089844 952.101562 C 2964.789062 957.941406 2960.371094 963.699219 2956.019531 969.5 "/>
<path fill-rule="evenodd" fill="rgb(230, 210, 205)" fill-opacity="1" d="M 2911.03125 937.8125 C 2901.351562 927.003906 2891.679688 916.191406 2882 905.382812 "/>
<path fill-rule="evenodd" fill="rgb(227, 210, 206)" fill-opacity="1" d="M 2912.839844 936.1875 C 2913.738281 937.1875 2913.660156 938.726562 2912.648438 939.625 C 2911.648438 940.519531 2910.109375 940.4375 2909.21875 939.433594 C 2904.328125 934.070312 2899.398438 928.753906 2894.570312 923.339844 C 2889.738281 917.925781 2885.011719 912.421875 2880.230469 906.964844 C 2879.359375 905.988281 2879.441406 904.492188 2880.421875 903.617188 C 2881.390625 902.746094 2882.890625 902.828125 2883.761719 903.804688 C 2888.660156 909.15625 2893.609375 914.457031 2898.460938 919.855469 C 2903.308594 925.253906 2908.050781 930.742188 2912.839844 936.1875 "/>
<path fill-rule="evenodd" fill="rgb(230, 210, 205)" fill-opacity="1" d="M 679.332031 788.449219 C 672.71875 785.53125 666.101562 782.613281 659.488281 779.695312 "/>
<path fill-rule="evenodd" fill="rgb(227, 210, 206)" fill-opacity="1" d="M 680.3125 786.222656 C 681.542969 786.765625 682.101562 788.203125 681.558594 789.429688 C 681.015625 790.660156 679.578125 791.21875 678.347656 790.675781 C 675.015625 789.269531 671.660156 787.933594 668.355469 786.464844 C 665.050781 784.992188 661.808594 783.394531 658.53125 781.863281 C 657.339844 781.335938 656.796875 779.9375 657.320312 778.738281 C 657.851562 777.546875 659.25 777.003906 660.445312 777.53125 C 663.785156 778.914062 667.152344 780.234375 670.464844 781.683594 C 673.777344 783.132812 677.03125 784.710938 680.3125 786.222656 "/>
<path fill-rule="evenodd" fill="rgb(230, 210, 205)" fill-opacity="1" d="M 731.316406 772.371094 C 736.527344 765.59375 741.738281 758.816406 746.949219 752.042969 "/>
<path fill-rule="evenodd" fill="rgb(227, 210, 206)" fill-opacity="1" d="M 733.246094 773.855469 C 732.429688 774.917969 730.898438 775.117188 729.835938 774.300781 C 728.769531 773.480469 728.570312 771.949219 729.386719 770.886719 C 731.945312 767.460938 734.449219 763.996094 737.0625 760.613281 C 739.679688 757.230469 742.402344 753.9375 745.074219 750.597656 C 745.871094 749.5625 747.359375 749.367188 748.394531 750.164062 C 749.429688 750.960938 749.625 752.449219 748.828125 753.484375 C 746.285156 756.925781 743.800781 760.402344 741.203125 763.800781 C 738.605469 767.195312 735.898438 770.503906 733.246094 773.855469 "/>
<path fill-rule="evenodd" fill="rgb(230, 210, 205)" fill-opacity="1" d="M 794.609375 806.007812 C 796.40625 801.359375 798.207031 796.707031 800.007812 792.058594 "/>
<path fill-rule="evenodd" fill="rgb(227, 210, 206)" fill-opacity="1" d="M 581.929688 822.710938 C 581.445312 823.964844 580.035156 824.585938 578.78125 824.101562 C 577.527344 823.617188 576.90625 822.207031 577.390625 820.953125 C 578.234375 818.605469 579.011719 816.234375 579.921875 813.914062 C 580.835938 811.589844 581.875 809.320312 582.851562 807.023438 C 583.320312 805.804688 584.695312 805.199219 585.914062 805.671875 C 587.132812 806.144531 587.738281 807.515625 587.265625 808.734375 C 586.441406 811.089844 585.6875 813.46875 584.796875 815.796875 C 583.90625 818.128906 582.886719 820.40625 581.929688 822.710938 "/>
<path fill-rule="evenodd" fill="rgb(230, 210, 205)" fill-opacity="1" d="M 665.753906 741.101562 C 668.066406 734.023438 670.378906 726.945312 672.691406 719.867188 "/>
<path fill-rule="evenodd" fill="rgb(227, 210, 206)" fill-opacity="1" d="M 668.066406 741.855469 C 667.648438 743.132812 666.273438 743.832031 664.996094 743.414062 C 663.722656 742.996094 663.023438 741.621094 663.441406 740.34375 C 664.539062 736.785156 665.570312 733.210938 666.738281 729.671875 C 667.90625 726.136719 669.203125 722.644531 670.4375 719.132812 C 670.84375 717.890625 672.183594 717.210938 673.425781 717.617188 C 674.667969 718.023438 675.347656 719.359375 674.941406 720.601562 C 673.863281 724.167969 672.851562 727.75 671.703125 731.296875 C 670.558594 734.839844 669.28125 738.335938 668.066406 741.855469 "/>
<path fill-rule="evenodd" fill="rgb(230, 210, 205)" fill-opacity="1" d="M 593.230469 727.878906 C 592.347656 721.394531 591.46875 714.914062 590.589844 708.433594 "/>
<path fill-rule="evenodd" fill="rgb(227, 210, 206)" fill-opacity="1" d="M 595.640625 727.550781 C 595.820312 728.882812 594.886719 730.109375 593.554688 730.289062 C 592.226562 730.46875 590.996094 729.535156 590.816406 728.203125 C 590.316406 724.972656 589.75 721.75 589.320312 718.507812 C 588.890625 715.265625 588.601562 712.007812 588.242188 708.753906 C 588.066406 707.460938 588.972656 706.265625 590.269531 706.089844 C 591.5625 705.914062 592.757812 706.820312 592.933594 708.117188 C 593.453125 711.347656 594.046875 714.5625 594.496094 717.804688 C 594.949219 721.042969 595.257812 724.300781 595.640625 727.550781 "/>
<path fill-rule="evenodd" fill="rgb(230, 210, 205)" fill-opacity="1" d="M 667.097656 679.121094 C 675.554688 674.738281 684.011719 670.371094 692.464844 665.988281 "/>
<path fill-rule="evenodd" fill="rgb(227, 210, 206)" fill-opacity="1" d="M 668.21875 681.28125 C 667.023438 681.898438 665.554688 681.429688 664.9375 680.230469 C 664.320312 679.039062 664.785156 677.570312 665.980469 676.949219 C 670.179688 674.710938 674.347656 672.410156 678.582031 670.230469 C 682.816406 668.058594 687.113281 666 691.378906 663.890625 C 692.539062 663.289062 693.96875 663.738281 694.570312 664.898438 C 695.171875 666.058594 694.714844 667.488281 693.554688 668.089844 C 689.363281 670.351562 685.207031 672.679688 680.984375 674.871094 C 676.757812 677.070312 672.472656 679.140625 668.21875 681.28125 "/>
<path fill-rule="evenodd" fill="rgb(230, 210, 205)" fill-opacity="1" d="M 510.703125 738.164062 C 506.742188 733.105469 502.78125 728.046875 498.820312 722.984375 "/>
<path fill-rule="evenodd" fill="rgb(227, 210, 206)" fill-opacity="1" d="M 526.867188 726.640625 C 527.695312 727.699219 527.511719 729.230469 526.453125 730.058594 C 525.394531 730.886719 523.863281 730.699219 523.035156 729.640625 C 521.007812 727.148438 518.925781 724.699219 516.953125 722.160156 C 514.980469 719.621094 513.121094 717 511.203125 714.421875 C 510.398438 713.390625 510.582031 711.902344 511.609375 711.097656 C 512.640625 710.289062 514.128906 710.472656 514.933594 711.5 C 516.980469 713.980469 519.078125 716.414062 521.066406 718.941406 C 523.058594 721.464844 524.933594 724.074219 526.867188 726.640625 "/>
<path fill-rule="evenodd" fill="rgb(230, 210, 205)" fill-opacity="1" d="M 792.371094 707.316406 C 797.070312 697.496094 801.773438 687.679688 806.476562 677.859375 "/>
<path fill-rule="evenodd" fill="rgb(227, 210, 206)" fill-opacity="1" d="M 794.566406 708.367188 C 793.984375 709.578125 792.53125 710.09375 791.316406 709.511719 C 790.105469 708.933594 789.59375 707.476562 790.175781 706.265625 C 792.472656 701.328125 794.707031 696.363281 797.066406 691.460938 C 799.429688 686.550781 801.914062 681.710938 804.339844 676.839844 C 804.90625 675.660156 806.320312 675.160156 807.5 675.71875 C 808.675781 676.289062 809.175781 677.699219 808.613281 678.878906 C 806.335938 683.828125 804.121094 688.800781 801.777344 693.714844 C 799.4375 698.632812 796.96875 703.484375 794.566406 708.367188 "/>
<path fill-rule="evenodd" fill="rgb(230, 210, 205)" fill-opacity="1" d="M 750.101562 705.765625 C 739.742188 703.128906 729.382812 700.492188 719.027344 697.851562 "/>
<path fill-rule="evenodd" fill="rgb(227, 210, 206)" fill-opacity="1" d="M 750.699219 703.410156 C 752.003906 703.738281 752.789062 705.066406 752.460938 706.367188 C 752.128906 707.671875 750.800781 708.457031 749.5 708.125 C 744.304688 706.863281 739.09375 705.671875 733.917969 704.34375 C 728.742188 703.011719 723.601562 701.546875 718.441406 700.148438 C 717.175781 699.824219 716.40625 698.535156 716.730469 697.269531 C 717.054688 696.003906 718.34375 695.234375 719.609375 695.558594 C 724.808594 696.800781 730.023438 697.96875 735.207031 699.277344 C 740.390625 700.585938 745.535156 702.03125 750.699219 703.410156 "/>
<path fill-rule="evenodd" fill="rgb(230, 210, 205)" fill-opacity="1" d="M 2838.730469 724.546875 C 2828.289062 723.960938 2817.859375 723.378906 2807.421875 722.796875 "/>
<path fill-rule="evenodd" fill="rgb(227, 210, 206)" fill-opacity="1" d="M 2838.871094 722.113281 C 2840.210938 722.191406 2841.238281 723.339844 2841.160156 724.679688 C 2841.089844 726.023438 2839.941406 727.050781 2838.589844 726.976562 C 2833.371094 726.742188 2828.148438 726.582031 2822.929688 726.277344 C 2817.710938 725.976562 2812.5 725.535156 2807.289062 725.160156 C 2805.980469 725.089844 2804.980469 723.96875 2805.058594 722.664062 C 2805.128906 721.359375 2806.25 720.359375 2807.550781 720.433594 C 2812.78125 720.644531 2818 720.78125 2823.21875 721.0625 C 2828.441406 721.34375 2833.648438 721.765625 2838.871094 722.113281 "/>
<path fill-rule="evenodd" fill="rgb(230, 210, 205)" fill-opacity="1" d="M 2882.300781 682.320312 C 2881.570312 671.890625 2880.851562 661.46875 2880.121094 651.039062 "/>
<path fill-rule="evenodd" fill="rgb(227, 210, 206)" fill-opacity="1" d="M 2884.730469 682.148438 C 2884.820312 683.488281 2883.808594 684.660156 2882.46875 684.75 C 2881.128906 684.839844 2879.960938 683.828125 2879.871094 682.488281 C 2879.449219 677.28125 2878.960938 672.078125 2878.609375 666.859375 C 2878.25 661.640625 2878.039062 656.421875 2877.761719 651.199219 C 2877.671875 649.898438 2878.660156 648.769531 2879.960938 648.679688 C 2881.261719 648.578125 2882.398438 649.570312 2882.488281 650.871094 C 2882.929688 656.078125 2883.441406 661.289062 2883.820312 666.5 C 2884.191406 671.710938 2884.421875 676.929688 2884.730469 682.148438 "/>
<path fill-rule="evenodd" fill="rgb(230, 210, 205)" fill-opacity="1" d="M 2987.800781 694.757812 C 2985.28125 688.386719 2982.75 682.011719 2980.21875 675.640625 "/>
<path fill-rule="evenodd" fill="rgb(227, 210, 206)" fill-opacity="1" d="M 2990.070312 693.859375 C 2990.558594 695.109375 2989.949219 696.523438 2988.699219 697.019531 C 2987.449219 697.515625 2986.039062 696.902344 2985.539062 695.65625 C 2984.21875 692.488281 2982.839844 689.351562 2981.578125 686.160156 C 2980.328125 682.96875 2979.210938 679.730469 2978.019531 676.511719 C 2977.539062 675.300781 2978.128906 673.921875 2979.351562 673.441406 C 2980.558594 672.960938 2981.941406 673.550781 2982.421875 674.761719 C 2983.761719 677.921875 2985.171875 681.050781 2986.441406 684.230469 C 2987.71875 687.421875 2988.859375 690.652344 2990.070312 693.859375 "/>
<path fill-rule="evenodd" fill="rgb(230, 210, 205)" fill-opacity="1" d="M 2776.53125 673.730469 C 2772.191406 664.21875 2767.859375 654.710938 2763.519531 645.199219 "/>
<path fill-rule="evenodd" fill="rgb(227, 210, 206)" fill-opacity="1" d="M 2778.738281 672.71875 C 2779.300781 673.941406 2778.761719 675.390625 2777.539062 675.941406 C 2776.308594 676.5 2774.871094 675.960938 2774.308594 674.738281 C 2772.089844 670.011719 2769.808594 665.308594 2767.648438 660.550781 C 2765.488281 655.789062 2763.460938 650.96875 2761.371094 646.179688 C 2760.828125 644.988281 2761.351562 643.578125 2762.539062 643.039062 C 2763.730469 642.5 2765.128906 643.019531 2765.679688 644.210938 C 2767.921875 648.941406 2770.21875 653.628906 2772.398438 658.378906 C 2774.578125 663.128906 2776.628906 667.941406 2778.738281 672.71875 "/>
<path fill-rule="evenodd" fill="rgb(230, 210, 205)" fill-opacity="1" d="M 2680.589844 689.859375 C 2673.199219 682.46875 2665.800781 675.089844 2658.410156 667.699219 "/>
<path fill-rule="evenodd" fill="rgb(227, 210, 206)" fill-opacity="1" d="M 2682.308594 688.136719 C 2683.261719 689.085938 2683.269531 690.628906 2682.320312 691.578125 C 2681.371094 692.53125 2679.828125 692.53125 2678.878906 691.582031 C 2675.140625 687.929688 2671.351562 684.328125 2667.660156 680.628906 C 2663.960938 676.929688 2660.378906 673.128906 2656.730469 669.371094 C 2655.808594 668.449219 2655.808594 666.949219 2656.730469 666.03125 C 2657.660156 665.101562 2659.160156 665.101562 2660.078125 666.019531 C 2663.839844 669.660156 2667.640625 673.238281 2671.351562 676.929688 C 2675.050781 680.621094 2678.660156 684.398438 2682.308594 688.136719 "/>
<path fill-rule="evenodd" fill="rgb(230, 210, 205)" fill-opacity="1" d="M 2716.949219 598.769531 C 2722.308594 589.789062 2727.660156 580.808594 2733.011719 571.839844 "/>
<path fill-rule="evenodd" fill="rgb(227, 210, 206)" fill-opacity="1" d="M 2719.039062 600.019531 C 2718.359375 601.171875 2716.859375 601.550781 2715.710938 600.859375 C 2714.550781 600.179688 2714.179688 598.679688 2714.859375 597.53125 C 2717.488281 593.011719 2720.050781 588.449219 2722.738281 583.96875 C 2725.421875 579.480469 2728.230469 575.070312 2730.96875 570.621094 C 2731.640625 569.5 2733.101562 569.128906 2734.21875 569.800781 C 2735.339844 570.46875 2735.710938 571.929688 2735.039062 573.050781 C 2732.441406 577.578125 2729.890625 582.148438 2727.21875 586.640625 C 2724.558594 591.140625 2721.769531 595.558594 2719.039062 600.019531 "/>
<path fill-rule="evenodd" fill="rgb(230, 210, 205)" fill-opacity="1" d="M 2596.410156 738.609375 C 2586.890625 734.285156 2577.378906 729.960938 2567.859375 725.636719 "/>
<path fill-rule="evenodd" fill="rgb(227, 210, 206)" fill-opacity="1" d="M 2597.421875 736.394531 C 2598.640625 736.949219 2599.179688 738.394531 2598.628906 739.617188 C 2598.070312 740.839844 2596.628906 741.382812 2595.410156 740.824219 C 2590.621094 738.71875 2585.808594 736.675781 2581.058594 734.503906 C 2576.300781 732.328125 2571.609375 730.03125 2566.878906 727.792969 C 2565.691406 727.253906 2565.171875 725.847656 2565.710938 724.660156 C 2566.25 723.46875 2567.648438 722.941406 2568.839844 723.484375 C 2573.628906 725.570312 2578.449219 727.59375 2583.21875 729.746094 C 2587.980469 731.898438 2592.679688 734.175781 2597.421875 736.394531 "/>
<path fill-rule="evenodd" fill="rgb(230, 210, 205)" fill-opacity="1" d="M 2887.941406 577.339844 C 2883.640625 563.488281 2879.328125 549.628906 2875.019531 535.78125 "/>
<path fill-rule="evenodd" fill="rgb(227, 210, 206)" fill-opacity="1" d="M 2887.828125 590.640625 C 2888.230469 591.921875 2887.511719 593.28125 2886.230469 593.679688 C 2884.949219 594.078125 2883.578125 593.359375 2883.179688 592.078125 C 2880.96875 585.171875 2878.699219 578.28125 2876.550781 571.351562 C 2874.410156 564.421875 2872.398438 557.449219 2870.328125 550.5 C 2869.941406 549.25 2870.640625 547.921875 2871.878906 547.53125 C 2873.128906 547.140625 2874.460938 547.839844 2874.851562 549.089844 C 2877.078125 555.988281 2879.378906 562.878906 2881.539062 569.800781 C 2883.710938 576.71875 2885.738281 583.691406 2887.828125 590.640625 "/>
<path fill-rule="evenodd" fill="rgb(230, 210, 205)" fill-opacity="1" d="M 2838.101562 594.128906 C 2823.660156 595.539062 2809.21875 596.941406 2794.78125 598.339844 "/>
<path fill-rule="evenodd" fill="rgb(227, 210, 206)" fill-opacity="1" d="M 2837.871094 591.710938 C 2839.199219 591.578125 2840.390625 592.558594 2840.519531 593.898438 C 2840.648438 595.230469 2839.671875 596.421875 2838.339844 596.550781 C 2831.121094 597.308594 2823.921875 598.148438 2816.691406 598.839844 C 2809.46875 599.53125 2802.238281 600.078125 2795.011719 600.699219 C 2793.710938 600.828125 2792.550781 599.871094 2792.421875 598.570312 C 2792.300781 597.269531 2793.25 596.109375 2794.550781 595.988281 C 2801.761719 595.210938 2808.96875 594.351562 2816.191406 593.640625 C 2823.410156 592.921875 2830.640625 592.351562 2837.871094 591.710938 "/>
<path fill-rule="evenodd" fill="rgb(215, 136, 117)" fill-opacity="1" d="M 2168.671875 825.761719 C 2177.519531 831.929688 2170.460938 880.925781 2179.03125 937.1875 C 2189.578125 1006.535156 2172.289062 1093.847656 2131.929688 1101.878906 C 2109.910156 1106.261719 2081.339844 1113.164062 2059.449219 1113.050781 C 2040.96875 1112.953125 2022.429688 1081.039062 2018.898438 1065.558594 C 2012.359375 1036.820312 2017.941406 974.011719 2040.941406 937.1875 C 2065.898438 897.222656 2142.289062 807.390625 2168.671875 825.761719 "/>
<path fill-rule="evenodd" fill="rgb(251, 208, 190)" fill-opacity="1" d="M 2182.058594 762.757812 C 2214.71875 784.988281 2325.019531 898.316406 2351.308594 956.695312 C 2372.769531 1004.347656 2352.390625 1078.421875 2339.828125 1113.050781 C 2330.5 1138.75 2300.75 1175.933594 2275.929688 1164.46875 C 2249.628906 1152.328125 2201.230469 1074.832031 2182.058594 1040.203125 C 2168.160156 1015.082031 2164.441406 985.195312 2160.929688 956.695312 C 2156.480469 920.550781 2151.820312 855.640625 2155.339844 823.316406 C 2157.730469 801.382812 2163.820312 750.34375 2182.058594 762.757812 "/>
<path fill-rule="evenodd" fill="rgb(236, 177, 157)" fill-opacity="1" d="M 2176.691406 751.582031 C 2173.820312 808.636719 2168.601562 911.910156 2103.230469 931.238281 C 2083.109375 937.1875 2045.609375 940.878906 2028.949219 944.667969 C 1983.578125 954.988281 1970.421875 958.945312 1953.128906 957.234375 C 1854.738281 947.484375 1671.238281 756.464844 1699.820312 648.921875 C 1718.371094 579.109375 1894.328125 550.148438 1975.628906 524.410156 C 2043.660156 502.871094 2144.140625 464.839844 2187.609375 494.460938 C 2212.238281 511.25 2180.949219 666.730469 2176.691406 751.582031 "/>
<g clip-path="url(#clip-0)">
<g clip-path="url(#clip-1)">
<path fill-rule="evenodd" fill="rgb(219, 143, 123)" fill-opacity="1" d="M 1920.101562 810.976562 C 1950.910156 829.070312 1963.910156 864.199219 1949.121094 889.375 C 1934.339844 914.550781 1897.320312 920.296875 1866.519531 902.203125 C 1835.710938 884.113281 1822.710938 848.984375 1837.5 823.808594 C 1852.28125 798.632812 1889.300781 792.882812 1920.101562 810.976562 "/>
</g>
</g>
<path fill="none" stroke-width="5.81" stroke-linecap="round" stroke-linejoin="round" stroke="rgb(77.929688%, 74.021912%, 75.78125%)" stroke-opacity="1" stroke-miterlimit="10" d="M 21766.914062 9364.179688 C 21738.203125 8793.632812 21686.015625 7760.898438 21032.304688 7567.617188 C 20831.09375 7508.125 20456.09375 7471.210938 20289.492188 7433.320312 C 19835.78125 7330.117188 19704.21875 7290.546875 19531.289062 7307.65625 C 18547.382812 7405.15625 16712.382812 9315.351562 16998.203125 10390.78125 C 17183.710938 11088.90625 18943.28125 11378.515625 19756.289062 11635.898438 C 20436.601562 11851.289062 21441.40625 12231.601562 21876.09375 11935.390625 C 22122.382812 11767.5 21809.492188 10212.695312 21766.914062 9364.179688 Z M 21766.914062 9364.179688 " transform="matrix(0.1, 0, 0, -0.1, 0, 1688)"/>
<path fill-rule="evenodd" fill="rgb(224, 152, 132)" fill-opacity="1" d="M 2611.960938 939.769531 C 2681.789062 986.480469 2724.039062 1027.898438 2795.800781 1116.746094 C 2847.820312 1181.164062 2976.800781 1261.015625 3000 1288.089844 C 3022.21875 1314.015625 3005.53125 1421.605469 3000 1438.035156 C 2979.058594 1500.304688 2745.800781 1340.054688 2611.960938 1357.371094 C 2433.460938 1380.472656 2251.570312 1410.050781 2145.851562 1413.039062 C 2079.679688 1414.910156 1994.699219 1403.859375 1955.230469 1357.371094 C 1915.761719 1310.886719 1895.21875 1182.871094 1909.039062 1134.128906 C 1922.371094 1087.140625 1988.199219 1010.796875 2038.171875 1064.894531 C 2053.109375 1081.066406 2095.921875 1148.753906 2160.871094 1151.6875 C 2301.238281 1158.03125 2374.738281 1072.835938 2351.960938 983.007812 C 2343.789062 950.777344 2239.121094 801.421875 2270.929688 800.425781 C 2365.941406 797.449219 2509.78125 871.421875 2611.960938 939.769531 "/>
<g clip-path="url(#clip-2)">
<g clip-path="url(#clip-3)">
<path fill-rule="evenodd" fill="rgb(211, 132, 114)" fill-opacity="1" d="M 1904.488281 1134.128906 C 1915.089844 1122.277344 2022.710938 1015.152344 2041.921875 1063.023438 C 2066.640625 1124.621094 2171.210938 1192.101562 2283.890625 1134.148438 C 2365.160156 1092.34375 2352.949219 987.371094 2355.871094 961.140625 C 2361.601562 909.539062 2491.570312 996.78125 2542.058594 1023.777344 C 2569.03125 1038.199219 2632.449219 1198.675781 2628.769531 1197.089844 C 2628.769531 1197.089844 2529.761719 1125.917969 2473.789062 1077.015625 C 2452.011719 1057.996094 2439.410156 1030.863281 2424.390625 1023.777344 C 2404.808594 1014.539062 2412.699219 1108.453125 2338.898438 1166.152344 C 2299.460938 1196.988281 2200.519531 1229.851562 2139.878906 1229.339844 C 2094.558594 1228.953125 2046.429688 1182.023438 2019.5 1166.152344 C 2004.511719 1157.324219 1995.050781 1138.792969 1978.289062 1134.128906 C 1959.128906 1128.789062 1893.878906 1145.976562 1904.488281 1134.128906 "/>
</g>
</g>
<g clip-path="url(#clip-4)">
<g clip-path="url(#clip-5)">
<path fill-rule="evenodd" fill="rgb(223, 152, 133)" fill-opacity="1" d="M 2548.070312 1053.058594 C 2580.5 1099.308594 2657.621094 1256.871094 2685.789062 1309.367188 C 2722.949219 1378.628906 2980.148438 1311.171875 2975.398438 1252.546875 C 2970.648438 1193.921875 2703.050781 1021.527344 2657.289062 957.617188 C 2594.238281 869.554688 2520.308594 1013.472656 2548.070312 1053.058594 "/>
</g>
</g>
<path fill-rule="evenodd" fill="rgb(112, 60, 64)" fill-opacity="1" d="M 1924.171875 1133.867188 C 1955.070312 1117.617188 1989.199219 1099.503906 2033.011719 1067.808594 C 2067.371094 1042.953125 2074.261719 994.777344 2059.101562 957.234375 C 2052.851562 941.777344 2056.140625 941.320312 2049.601562 940.800781 C 2041.5 940.152344 2022.289062 941.628906 1998.339844 940.800781 C 1980.378906 940.175781 1883.960938 909.582031 1863.710938 895.890625 C 1821.128906 867.105469 1781.890625 819.039062 1768.070312 789.515625 C 1750.371094 751.6875 1743.71875 686.191406 1742.578125 654.53125 C 1742.121094 641.839844 1761.039062 645.609375 1768.070312 643.660156 C 1797.710938 635.390625 1881.441406 586.839844 1924.171875 558.210938 C 1935.460938 550.648438 1953.769531 576.519531 1975.628906 581.601562 C 1994.039062 585.878906 2048.128906 599.109375 2059.101562 593.699219 C 2120.929688 563.21875 2153.671875 597.46875 2161.988281 696.761719 C 2169.480469 786.222656 2251.679688 882.617188 2290.710938 918.871094 C 2376.949219 998.976562 2576.730469 1160.164062 2611.960938 940.800781 C 2617.171875 908.386719 2585.601562 880.078125 2526.480469 844.25 C 2516.25 838.050781 2489.628906 793.113281 2489.339844 779.203125 C 2488.96875 761.574219 2491.398438 757.3125 2499.339844 747.671875 C 2530.101562 710.332031 2528.160156 658.871094 2499.339844 619.640625 C 2489.011719 605.570312 2483.410156 586.761719 2469.441406 581.601562 C 2411.609375 560.238281 2402.808594 583.199219 2374.730469 581.601562 C 2338.558594 579.539062 2309.578125 578.839844 2290.710938 568.539062 C 2270.410156 557.460938 2248.21875 548.191406 2236.53125 534.601562 C 2225.238281 521.488281 2222.570312 507.539062 2217.628906 494.460938 C 2207.410156 467.441406 2202.371094 444.148438 2195.769531 439.699219 C 2185.148438 432.550781 2130.828125 415.78125 2059.101562 417.730469 C 2007.039062 419.140625 1967.308594 373.058594 1956.460938 371.71875 C 1888.578125 363.320312 1773.589844 436.238281 1708.480469 494.460938 C 1634.25 560.828125 1423.511719 769.09375 1596.378906 844.25 C 1725.640625 900.445312 1851.75 1171.953125 1924.171875 1133.867188 "/>
<path fill-rule="evenodd" fill="rgb(194, 110, 95)" fill-opacity="1" d="M 1955.230469 1191.4375 C 2053.828125 1227.945312 2506.21875 1237.722656 2685.789062 1257.8125 C 2792.921875 1269.796875 2943.039062 1316.371094 3000 1338.023438 C 3028.140625 1348.722656 3030.039062 1426.382812 3000 1428.351562 C 2881.980469 1436.089844 2459.320312 1391.761719 2291.871094 1384.445312 C 2193.089844 1380.128906 2051.371094 1416.613281 1995.261719 1384.445312 C 1939.160156 1352.277344 1893.609375 1168.621094 1955.230469 1191.4375 "/>
<path fill-rule="evenodd" fill="rgb(145, 150, 152)" fill-opacity="1" d="M 1575.019531 805.164062 C 1644.539062 858.847656 1728.890625 907.949219 1784.011719 954.050781 C 1876.789062 1085.496094 1933.601562 1213.011719 1975.628906 1358.882812 C 1556.449219 1299.929688 1055.601562 1140.261719 507.089844 1261.140625 C 429.777344 1286.605469 431.492188 1195.433594 507.089844 1112.179688 C 589.492188 1021.429688 681.765625 926.480469 763.53125 844.25 C 825.078125 802.164062 930.054688 787.1875 1032.851562 763.328125 L 1575.019531 805.164062 "/>
<g clip-path="url(#clip-6)">
<g clip-path="url(#clip-7)">
<path fill="none" stroke-width="110.47" stroke-linecap="round" stroke-linejoin="round" stroke="rgb(89.84375%, 85.15625%, 85.15625%)" stroke-opacity="1" stroke-miterlimit="10" d="M 10203.007812 9246.71875 C 10685.585938 7926.484375 11894.882812 7249.0625 12971.484375 7128.710938 C 14172.8125 6994.375 15240.3125 7475.351562 15327.109375 8437.5 " transform="matrix(0.1, 0, 0, -0.1, 0, 1688)"/>
</g>
</g>
<path fill-rule="evenodd" fill="rgb(255, 255, 255)" fill-opacity="1" d="M 1985.050781 862.109375 C 2005.398438 861.78125 2043.058594 814.144531 2045.320312 807.207031 C 2058.550781 766.570312 2067.941406 726.125 2055.921875 731.644531 C 2035.121094 759.324219 1984.890625 857.191406 1985.050781 862.109375 "/>
<path fill="none" stroke-width="63.95" stroke-linecap="round" stroke-linejoin="round" stroke="rgb(71.484375%, 32.493591%, 30.589294%)" stroke-opacity="1" stroke-miterlimit="10" d="M 19850.507812 8258.90625 C 20053.984375 8262.1875 20430.585938 8738.554688 20453.203125 8807.929688 C 20585.507812 9214.296875 20679.414062 9618.75 20559.21875 9563.554688 C 20351.210938 9286.757812 19848.90625 8308.085938 19850.507812 8258.90625 Z M 19850.507812 8258.90625 " transform="matrix(0.1, 0, 0, -0.1, 0, 1688)"/>
<path fill-rule="evenodd" fill="rgb(219, 143, 123)" fill-opacity="1" d="M 2006.570312 635.191406 C 2039.5 635.191406 2066.230469 656.691406 2066.230469 683.160156 C 2066.230469 709.632812 2039.5 731.121094 2006.570312 731.121094 C 1973.628906 731.121094 1946.898438 709.632812 1946.898438 683.160156 C 1946.898438 656.691406 1973.628906 635.191406 2006.570312 635.191406 "/>
<path fill-rule="evenodd" fill="rgb(225, 154, 132)" fill-opacity="1" d="M 1860.21875 735.796875 C 1887.160156 735.796875 1909.039062 757.289062 1909.039062 783.761719 C 1909.039062 810.234375 1887.160156 831.726562 1860.21875 831.726562 C 1833.269531 831.726562 1811.390625 810.234375 1811.390625 783.761719 C 1811.390625 757.289062 1833.269531 735.796875 1860.21875 735.796875 "/>
<path fill-rule="evenodd" fill="rgb(237, 165, 144)" fill-opacity="1" d="M 1946.671875 604.570312 C 1973.488281 604.570312 1995.261719 626.148438 1995.261719 652.730469 C 1995.261719 679.308594 1973.488281 700.894531 1946.671875 700.894531 C 1919.851562 700.894531 1898.070312 679.308594 1898.070312 652.730469 C 1898.070312 626.148438 1919.851562 604.570312 1946.671875 604.570312 "/>
<path fill="none" stroke-width="8.72" stroke-linecap="round" stroke-linejoin="round" stroke="rgb(88.28125%, 59.959412%, 53.709412%)" stroke-opacity="1" stroke-miterlimit="10" d="M 19466.71875 10834.296875 C 19734.882812 10834.296875 19952.617188 10618.515625 19952.617188 10352.695312 C 19952.617188 10086.914062 19734.882812 9871.054688 19466.71875 9871.054688 C 19198.515625 9871.054688 18980.703125 10086.914062 18980.703125 10352.695312 C 18980.703125 10618.515625 19198.515625 10834.296875 19466.71875 10834.296875 Z M 19466.71875 10834.296875 " transform="matrix(0.1, 0, 0, -0.1, 0, 1688)"/>
<path fill-rule="evenodd" fill="rgb(209, 193, 195)" fill-opacity="1" d="M 1831.390625 821.613281 C 1842.289062 820.683594 1857.910156 810.984375 1869.660156 795.484375 C 1881.410156 779.984375 1886.53125 762.324219 1884.488281 751.582031 C 1882.179688 762.695312 1875.558594 777.960938 1864.96875 791.929688 C 1854.378906 805.898438 1841.46875 816.386719 1831.390625 821.613281 "/>
<path fill-rule="evenodd" fill="rgb(83, 64, 63)" fill-opacity="1" d="M 1831.390625 821.613281 C 1842.289062 820.683594 1857.910156 810.984375 1869.660156 795.484375 C 1881.410156 779.984375 1886.53125 762.324219 1884.488281 751.582031 C 1882.179688 762.695312 1875.558594 777.960938 1864.96875 791.929688 C 1854.378906 805.898438 1841.46875 816.386719 1831.390625 821.613281 "/>
<path fill-rule="evenodd" fill="rgb(91, 70, 67)" fill-opacity="1" d="M 1922.679688 677.269531 C 1933.300781 676.238281 1948.011719 666.710938 1958.539062 651.640625 C 1969.078125 636.558594 1972.980469 619.480469 1970.300781 609.148438 C 1968.730469 619.890625 1963.21875 634.679688 1953.71875 648.261719 C 1944.21875 661.851562 1932.230469 672.109375 1922.679688 677.269531 "/>
<path fill-rule="evenodd" fill="rgb(104, 114, 121)" fill-opacity="1" d="M 424.175781 1214.363281 C 511.800781 1156.066406 839.191406 1128 875.175781 1056.105469 C 902.066406 1002.382812 885.933594 938.257812 934.949219 940.800781 C 942.433594 941.1875 990.480469 923.429688 994.226562 940.800781 C 997.972656 958.167969 923.71875 1044.117188 957.429688 1045.011719 C 1022.539062 1046.746094 1049.019531 945.683594 1038.710938 870.339844 C 1033.230469 830.300781 1011.171875 790.804688 1012.460938 763.328125 C 1013.140625 748.945312 1051.738281 755.023438 1063.511719 763.328125 C 1085.558594 778.894531 1103.929688 853.902344 1152.621094 856.71875 C 1223.378906 860.8125 1321.929688 934.441406 1388.101562 895.890625 C 1471.910156 847.070312 1589.121094 710.722656 1601.589844 844.25 C 1604.128906 871.371094 1550.128906 916.425781 1514.210938 940.800781 C 1453.199219 982.195312 1283.488281 998.777344 1244.769531 1045.011719 C 1227.589844 1065.53125 1193.53125 1117.933594 1207.128906 1133.195312 C 1237.761719 1167.542969 1402.21875 1151.765625 1500 1150.335938 C 1615.640625 1148.644531 1821.710938 1090.140625 1900.980469 1123.046875 C 1973.878906 1153.304688 2052.699219 1330.714844 1975.628906 1347.769531 C 1892.769531 1366.105469 1664.960938 1315.554688 1447.511719 1299.464844 C 1356.230469 1292.710938 1267.199219 1270.972656 1207.128906 1276.582031 C 1044.960938 1291.726562 839.382812 1291.359375 656.234375 1309.078125 C 506.929688 1323.523438 369.570312 1359.476562 310.597656 1380.941406 C 277.226562 1393.089844 313.140625 1304.34375 332.070312 1276.582031 C 351 1248.820312 393.328125 1234.886719 424.175781 1214.363281 "/>
<path fill-rule="evenodd" fill="rgb(213, 130, 115)" fill-opacity="1" d="M 1334.851562 494.460938 L 1429.839844 376.921875 C 1419.949219 340.410156 1408.660156 305.570312 1378.398438 302.378906 L 1341.289062 302.378906 C 1338.578125 300.851562 1334.058594 315.890625 1328.558594 322.308594 C 1311.941406 341.710938 1293.410156 398.691406 1297.800781 435.578125 C 1299.429688 449.28125 1301.199219 456.921875 1303.390625 467.429688 L 1334.851562 494.460938 "/>
<path fill="none" stroke-width="2.4" stroke-linecap="round" stroke-linejoin="round" stroke="rgb(92.576599%, 82.03125%, 80.076599%)" stroke-opacity="1" stroke-miterlimit="10" d="M 13348.515625 11935.390625 L 14298.398438 13110.78125 C 14199.492188 13475.898438 14086.601562 13824.296875 13783.984375 13856.210938 L 13412.890625 13856.210938 C 13385.78125 13871.484375 13310 13731.796875 13285.585938 13656.914062 C 13213.085938 13434.882812 12934.101562 12893.085938 12978.007812 12524.21875 C 12994.296875 12387.1875 13011.992188 12310.78125 13033.90625 12205.703125 Z M 13348.515625 11935.390625 " transform="matrix(0.1, 0, 0, -0.1, 0, 1688)"/>
<path fill-rule="evenodd" fill="rgb(234, 172, 154)" fill-opacity="1" d="M 1339.839844 1246.691406 C 1450.609375 1206.375 1540.578125 1191.074219 1640.070312 1174.710938 C 1705.71875 1176.878906 1760.078125 1191.726562 1808.058594 1213.523438 C 1833.351562 1225.011719 1855.628906 1240.554688 1879.550781 1252.570312 C 1876.339844 1249.191406 1879.101562 1265.929688 1876.230469 1266.800781 C 1873.421875 1267.65625 1825.691406 1255.472656 1829.070312 1258.316406 C 1833.648438 1262.164062 1864.601562 1271.847656 1867.558594 1275.796875 C 1871.980469 1281.707031 1863.511719 1291.867188 1861.511719 1293.535156 C 1857.871094 1296.566406 1824.210938 1285.152344 1826.210938 1287.730469 C 1830.578125 1293.339844 1824.339844 1307.554688 1813.75 1309.679688 C 1799.800781 1312.472656 1763.21875 1302.328125 1758.050781 1305.90625 C 1755.441406 1307.710938 1788.089844 1308.015625 1785.480469 1320.199219 L 1339.839844 1246.691406 "/>
<path fill-rule="evenodd" fill="rgb(233, 163, 146)" fill-opacity="1" d="M 1650.28125 1204.066406 L 1829.070312 1258.316406 L 1823.128906 1252.058594 L 1656.429688 1204.066406 L 1650.28125 1204.066406 "/>
<path fill-rule="evenodd" fill="rgb(233, 163, 146)" fill-opacity="1" d="M 1650.28125 1241.75 C 1650.808594 1240.53125 1823.128906 1292.132812 1823.128906 1292.132812 L 1823.128906 1286.972656 L 1802.828125 1279.117188 L 1657.21875 1236.84375 C 1657.21875 1236.84375 1649.761719 1242.964844 1650.28125 1241.75 "/>
<path fill-rule="evenodd" fill="rgb(233, 163, 146)" fill-opacity="1" d="M 1661.699219 1270.984375 L 1802.828125 1292.132812 L 1813.75 1296.902344 L 1661.699219 1277.066406 L 1661.699219 1270.984375 "/>
<path fill-rule="evenodd" fill="rgb(233, 163, 146)" fill-opacity="1" d="M 1661.699219 1287.730469 C 1694.460938 1294.679688 1726.421875 1300.527344 1758.050781 1305.90625 L 1758.050781 1302.289062 C 1723.320312 1296.558594 1695.378906 1290.800781 1661.699219 1287.730469 "/>
<path fill-rule="evenodd" fill="rgb(182, 83, 78)" fill-opacity="1" d="M 1976.988281 783.761719 C 1980.039062 783.761719 1982.511719 785.953125 1982.511719 788.652344 C 1982.511719 791.347656 1980.039062 793.539062 1976.988281 793.539062 C 1973.941406 793.539062 1971.46875 791.347656 1971.46875 788.652344 C 1971.46875 785.953125 1973.941406 783.761719 1976.988281 783.761719 "/>
<path fill-rule="evenodd" fill="rgb(249, 229, 223)" fill-opacity="1" d="M 1500 857.1875 C 1486.148438 905.964844 1439.730469 933.121094 1363.960938 940.800781 C 1191.171875 938.585938 1081.050781 879.84375 1063.511719 779.054688 C 1076.53125 774.089844 1092.398438 766.554688 1104.210938 759.164062 C 1212.089844 691.644531 1278.300781 531.878906 1305.621094 452.730469 C 1549.960938 552.609375 1447.308594 722.136719 1500 857.1875 "/>
<path fill-rule="evenodd" fill="rgb(234, 172, 153)" fill-opacity="1" d="M 1500 857.1875 C 1486.148438 905.964844 1439.730469 933.121094 1363.960938 940.800781 C 1191.171875 938.585938 1081.050781 879.84375 1063.511719 779.054688 C 1076.53125 774.089844 1092.398438 766.554688 1104.210938 759.164062 C 1212.089844 691.644531 1278.300781 531.878906 1305.621094 452.730469 C 1549.960938 552.609375 1447.308594 722.136719 1500 857.1875 "/>
<path fill="none" stroke-width="2.4" stroke-linecap="round" stroke-linejoin="round" stroke="rgb(0%, 0%, 0%)" stroke-opacity="1" stroke-miterlimit="10" d="M 15000 8308.125 C 14861.484375 7820.351562 14397.304688 7548.789062 13639.609375 7471.992188 C 11911.71875 7494.140625 10810.507812 8081.5625 10635.117188 9089.453125 C 10765.3125 9139.101562 10923.984375 9214.453125 11042.109375 9288.359375 C 12120.898438 9963.554688 12783.007812 11561.210938 13056.210938 12352.695312 C 15499.609375 11353.90625 14473.085938 9658.632812 15000 8308.125 Z M 15000 8308.125 " transform="matrix(0.1, 0, 0, -0.1, 0, 1688)"/>
<path fill-rule="evenodd" fill="rgb(251, 208, 190)" fill-opacity="1" d="M 1363.960938 822.617188 C 1353.660156 849.542969 1330.449219 888.144531 1363.960938 918.597656 C 1413.960938 936.289062 1438.21875 898.152344 1472.398438 871.710938 L 1363.960938 822.617188 "/>
<path fill-rule="evenodd" fill="rgb(202, 119, 102)" fill-opacity="1" d="M 1350.761719 789.222656 C 1309.949219 870.308594 1238.429688 892.96875 1168.410156 895.890625 C 1100.480469 879.570312 1074.800781 834.496094 1063.511719 778.429688 C 1070.78125 775.730469 1072.949219 767.140625 1080.070312 763.328125 C 1151.679688 724.996094 1218.550781 638.910156 1249.480469 564.699219 C 1271.550781 511.769531 1301.480469 468.429688 1302.851562 452.730469 L 1341.46875 487.300781 L 1350.761719 789.222656 "/>
<path fill="none" stroke-width="2.4" stroke-linecap="round" stroke-linejoin="round" stroke="rgb(0%, 0%, 0%)" stroke-opacity="1" stroke-miterlimit="10" d="M 12305.585938 9000.664062 C 12303.007812 9000.429688 12298.28125 9000.3125 12301.71875 9000.3125 " transform="matrix(0.1, 0, 0, -0.1, 0, 1688)"/>
<path fill-rule="evenodd" fill="rgb(184, 99, 87)" fill-opacity="1" d="M 1306.058594 462.179688 C 1305.230469 415.070312 1300.078125 346.410156 1363.710938 322.308594 C 1394.238281 322.789062 1406.988281 344.019531 1401.148438 386.960938 C 1383.691406 412.449219 1369.039062 437.878906 1346.839844 462.179688 C 1341.550781 470.660156 1335.96875 474.449219 1330.820312 478.011719 L 1306.058594 462.179688 "/>
<path fill-rule="evenodd" fill="rgb(182, 83, 78)" fill-opacity="1" d="M 1356.78125 397.460938 C 1350.730469 394.96875 1338.488281 404.21875 1333.660156 419.058594 C 1328.660156 434.390625 1342.300781 450.71875 1347.839844 452.730469 C 1343.261719 442.871094 1336.839844 428.128906 1340.078125 419.058594 C 1345.378906 404.238281 1352.761719 400.589844 1356.78125 397.460938 "/>
<path fill-rule="evenodd" fill="rgb(251, 208, 189)" fill-opacity="1" d="M 1753.058594 357.070312 C 1755.570312 433.730469 1715.371094 515.390625 1665.941406 603.039062 C 1662.570312 609 1661.328125 615 1657.871094 621.019531 C 1653.378906 628.820312 1650.410156 636.671875 1645.800781 644.570312 C 1631.550781 668.960938 1615.210938 693.808594 1600.539062 719.132812 C 1502.859375 803.867188 1376.539062 614.46875 1369.238281 535.921875 C 1342.039062 451.699219 1425.949219 366.519531 1486.101562 309.859375 L 1593.960938 274.960938 C 1656.679688 290.578125 1711.949219 315.238281 1753.058594 357.070312 "/>
<path fill-rule="evenodd" fill="rgb(235, 174, 155)" fill-opacity="1" d="M 1567.710938 314.230469 C 1617.320312 301.691406 1658.480469 310.558594 1694.578125 332.210938 C 1669.050781 340.011719 1651.988281 382.441406 1638.03125 437.570312 L 1533.660156 612.160156 L 1486.101562 599.738281 L 1466.058594 564.929688 L 1567.710938 314.230469 "/>
<path fill-rule="evenodd" fill="rgb(213, 134, 115)" fill-opacity="1" d="M 1560.179688 315.179688 C 1595.109375 345.289062 1583.269531 377.199219 1550.539062 401.199219 C 1535.359375 412.339844 1531.730469 431.28125 1524.429688 449.039062 C 1517.488281 465.921875 1493.980469 492.890625 1500 522.371094 C 1506.179688 552.628906 1479.421875 583.910156 1466.359375 612.160156 C 1414.078125 589.191406 1377.550781 553.96875 1350.761719 511.160156 L 1486.101562 291.011719 L 1560.179688 315.179688 "/>
<path fill-rule="evenodd" fill="rgb(30, 18, 36)" fill-opacity="1" d="M 1486.101562 427.398438 C 1544.738281 421.550781 1587.140625 440.398438 1625.769531 464.988281 C 1638.171875 463.511719 1638.941406 454.910156 1637.511719 444.980469 C 1586.058594 403.910156 1535.660156 400.621094 1486.101562 427.398438 "/>
<path fill-rule="evenodd" fill="rgb(30, 18, 36)" fill-opacity="1" d="M 1650.078125 494.71875 C 1657.359375 482.101562 1664.730469 476.03125 1672.21875 477.859375 C 1696.789062 495.710938 1709.871094 517.589844 1707.921875 544.761719 C 1689.53125 523.929688 1669.640625 506.21875 1650.078125 494.71875 "/>
<path fill-rule="evenodd" fill="rgb(30, 18, 36)" fill-opacity="1" d="M 1497.238281 459.730469 C 1504.128906 464.328125 1519.449219 477.191406 1532.648438 483.011719 C 1553.140625 492.039062 1571.269531 494.179688 1570.199219 494.828125 C 1543.570312 511.03125 1493.871094 477.191406 1497.238281 459.730469 "/>
<path fill-rule="evenodd" fill="rgb(30, 18, 36)" fill-opacity="1" d="M 1631.269531 544.789062 C 1635.171875 549.308594 1643.339844 561.269531 1651.359375 567.808594 C 1663.820312 577.96875 1675.929688 582.761719 1675.058594 583.039062 C 1653.671875 589.828125 1625.691406 556.660156 1631.269531 544.789062 "/>
<path fill-rule="evenodd" fill="rgb(30, 18, 36)" fill-opacity="1" d="M 1532.621094 850.808594 C 1532.621094 850.808594 1546.101562 848.28125 1551.089844 844.023438 C 1556.589844 839.324219 1565.621094 822.617188 1565.621094 822.617188 C 1583.089844 783.496094 1598.550781 747.988281 1599.480469 718.25 L 1589.921875 702.75 C 1579.828125 684.46875 1580.320312 670.988281 1589.921875 661.628906 L 1551.089844 645.339844 C 1539.570312 616.519531 1526.488281 592.96875 1509.761719 581.730469 C 1490.78125 587.621094 1470.46875 590.761719 1444.21875 581.730469 C 1402.210938 563.449219 1389.738281 530.300781 1389.789062 490.851562 C 1400.710938 459.878906 1416.609375 427.898438 1444.21875 404.21875 C 1467.800781 384.011719 1486.25 364.011719 1492.269531 336.191406 L 1504.019531 326.109375 C 1523.28125 335.96875 1555.53125 326.261719 1577.078125 313.699219 L 1589.921875 280.398438 L 1645.558594 295.75 L 1760.210938 360.441406 C 1838.679688 365.019531 1889.339844 340.710938 1908.320312 295.75 C 1915.570312 266.710938 1904.398438 221.648438 1846.058594 242.171875 C 1811.441406 204.890625 1846.671875 203.679688 1863.421875 193.679688 C 1857.390625 181.53125 1850.371094 178.050781 1841.46875 169.621094 C 1833.730469 162.289062 1813.980469 176.628906 1809.410156 169.621094 C 1805.03125 162.910156 1781.738281 104.148438 1750.699219 105.179688 C 1712.941406 104.878906 1694.429688 128.839844 1676.191406 155.339844 C 1614.78125 120.859375 1563.019531 84.28125 1480.011719 87.699219 C 1454.878906 121.578125 1428.359375 145.148438 1401.199219 163.898438 C 1370.589844 208.460938 1332.921875 298.210938 1326.53125 322.308594 C 1323.210938 334.839844 1350.441406 309.960938 1362.890625 308.519531 C 1375.328125 307.089844 1393.828125 303.128906 1401.199219 313.699219 C 1410.03125 326.359375 1421.691406 360.890625 1415.851562 384.480469 L 1401.199219 400.160156 L 1363.488281 452.730469 L 1336.101562 490.851562 C 1281.808594 583.558594 1287.898438 665.761719 1331.960938 741.363281 C 1393.808594 858.414062 1501.628906 866.820312 1532.621094 850.808594 "/>
<path fill-rule="evenodd" fill="rgb(226, 194, 192)" fill-opacity="1" d="M 1478.679688 603.039062 L 1539.910156 664.789062 C 1535.910156 677.421875 1529.300781 684.011719 1518.351562 691.269531 C 1489.929688 678.050781 1473.460938 645.449219 1478.679688 603.039062 "/>
<path fill-rule="evenodd" fill="rgb(150, 65, 52)" fill-opacity="1" d="M 1478.679688 603.039062 L 1539.910156 664.789062 C 1535.910156 677.421875 1529.300781 684.011719 1518.351562 691.269531 C 1489.929688 678.050781 1473.460938 645.449219 1478.679688 603.039062 "/>
<path fill="none" stroke-width="2.4" stroke-linecap="round" stroke-linejoin="round" stroke="rgb(0%, 0%, 0%)" stroke-opacity="1" stroke-miterlimit="10" d="M 14786.796875 10849.609375 L 15399.101562 10232.109375 C 15359.101562 10105.78125 15293.007812 10039.882812 15183.515625 9967.304688 C 14899.296875 10099.492188 14734.609375 10425.507812 14786.796875 10849.609375 Z M 14786.796875 10849.609375 " transform="matrix(0.1, 0, 0, -0.1, 0, 1688)"/>
<path fill-rule="evenodd" fill="rgb(254, 242, 235)" fill-opacity="1" d="M 1527.160156 657.328125 L 1511.890625 674.308594 C 1494.929688 669.140625 1487.179688 639.839844 1486.101562 612.160156 L 1527.160156 657.328125 "/>
<path fill-rule="evenodd" fill="rgb(255, 255, 255)" fill-opacity="1" d="M 1527.160156 657.328125 L 1511.890625 674.308594 C 1494.929688 669.140625 1487.179688 639.839844 1486.101562 612.160156 L 1527.160156 657.328125 "/>
<path fill="none" stroke-width="2.4" stroke-linecap="round" stroke-linejoin="round" stroke="rgb(0%, 0%, 0%)" stroke-opacity="1" stroke-miterlimit="10" d="M 15271.601562 10306.71875 L 15118.90625 10136.914062 C 14949.296875 10188.59375 14871.796875 10481.601562 14861.015625 10758.398438 Z M 15271.601562 10306.71875 " transform="matrix(0.1, 0, 0, -0.1, 0, 1688)"/>
<path fill-rule="evenodd" fill="rgb(214, 134, 116)" fill-opacity="1" d="M 1630.550781 472.449219 L 1586.710938 647.890625 C 1555.878906 658.148438 1536.230469 640.039062 1524.429688 602 C 1551.46875 545.96875 1578.480469 491.53125 1604.808594 464.988281 C 1610.710938 463.320312 1619.421875 466.011719 1630.550781 472.449219 "/>
<path fill-rule="evenodd" fill="rgb(253, 209, 192)" fill-opacity="1" d="M 1630.550781 472.449219 L 1598.96875 650.71875 C 1588.890625 652.25 1585.808594 652.210938 1577.488281 650.71875 L 1630.550781 472.449219 "/>
<path fill-rule="evenodd" fill="rgb(195, 100, 87)" fill-opacity="1" d="M 1887.898438 726.4375 C 1886.121094 727.039062 1913.839844 754.460938 1937.480469 778.070312 C 1952.421875 792.996094 1966.140625 802.269531 1971.121094 806.644531 C 1973.5 808.742188 1963 812.054688 1959.75 812.644531 C 1947.929688 814.796875 1935.441406 814.25 1934.460938 812.644531 C 1922.28125 792.652344 1882.589844 724.355469 1887.898438 726.4375 "/>
<path fill-rule="evenodd" fill="rgb(91, 70, 67)" fill-opacity="1" d="M 1808.101562 800.425781 C 1808.78125 798.617188 1807.929688 793.25 1808.101562 789.703125 C 1808.511719 781.183594 1812.621094 771.609375 1814.929688 763.511719 C 1819.46875 747.589844 1839.949219 737.457031 1842.128906 735.796875 C 1847.570312 731.652344 1832.488281 725.179688 1824.609375 723.621094 C 1808.28125 720.398438 1797.03125 776.011719 1802.980469 800.425781 C 1803.800781 803.753906 1806.898438 803.636719 1808.101562 800.425781 "/>
<path fill-rule="evenodd" fill="rgb(100, 77, 71)" fill-opacity="1" d="M 1942.109375 592.421875 C 1940.308594 594.199219 1938.578125 595.980469 1934.5 598.480469 C 1924.710938 604.480469 1913.980469 612.648438 1906.261719 620.480469 C 1882.078125 645.011719 1881.871094 667.679688 1881.109375 667.640625 C 1875.488281 667.378906 1870.070312 662.660156 1869.171875 658.300781 C 1864.308594 634.949219 1910.109375 596.359375 1944.578125 586.96875 C 1948.921875 585.789062 1945.28125 589.25 1942.109375 592.421875 "/>
<path fill-rule="evenodd" fill="rgb(237, 177, 158)" fill-opacity="1" d="M 2148.601562 498.679688 C 2161.25 499.871094 2170.929688 519.160156 2177.140625 538.351562 C 2182.828125 555.890625 2189.171875 575.621094 2191.359375 592.539062 C 2194.128906 613.980469 2196.480469 631.929688 2191.359375 643.988281 C 2183.21875 663.160156 2163.160156 669.039062 2148.601562 662.390625 C 2121.640625 650.078125 2121 619.609375 2095.988281 581.820312 C 2070.578125 543.429688 2099.199219 494.039062 2148.601562 498.679688 "/>
<path fill-rule="evenodd" fill="rgb(182, 83, 78)" fill-opacity="1" d="M 2108.621094 517.800781 C 2109.171875 517.691406 2109.710938 518.039062 2109.820312 518.589844 C 2109.941406 519.148438 2109.578125 519.691406 2109.03125 519.800781 C 2108.601562 519.898438 2108.171875 520.351562 2107.671875 520.96875 C 2106.789062 522.070312 2105.859375 523.730469 2104.941406 525.800781 C 2101.589844 533.269531 2098.53125 546.011719 2099.261719 557.710938 C 2099.550781 562.269531 2100.410156 566.671875 2102.121094 570.519531 C 2103.839844 574.398438 2106.421875 577.710938 2110.191406 579.96875 C 2112.441406 581.359375 2114.710938 582.339844 2116.929688 583.101562 C 2120.671875 584.371094 2124.269531 585.011719 2127.460938 585.691406 C 2130.328125 586.320312 2132.898438 587 2134.988281 588.121094 C 2145.359375 593.738281 2149.828125 598.25 2150.710938 604.941406 C 2151.398438 610.269531 2149.699219 617.128906 2146.628906 627.441406 C 2146.488281 627.949219 2145.960938 628.25 2145.449219 628.109375 C 2144.941406 627.96875 2144.640625 627.441406 2144.78125 626.929688 C 2147.261719 617 2148.691406 610.421875 2147.808594 605.378906 C 2146.808594 599.558594 2142.511719 596.039062 2133.261719 591.46875 C 2131.421875 590.550781 2129.171875 590.089844 2126.671875 589.621094 C 2123.308594 588.988281 2119.519531 588.410156 2115.589844 587.140625 C 2113.070312 586.328125 2110.5 585.21875 2107.929688 583.679688 C 2104.300781 581.449219 2101.550781 578.449219 2099.589844 574.898438 C 2096.859375 569.988281 2095.601562 564.058594 2095.421875 557.878906 C 2095.050781 545.609375 2098.871094 532.398438 2102.71875 524.75 C 2103.839844 522.5 2104.980469 520.730469 2106.019531 519.570312 C 2106.960938 518.519531 2107.859375 517.929688 2108.621094 517.800781 "/>
<path fill-rule="evenodd" fill="rgb(182, 83, 78)" fill-opacity="1" d="M 2170.359375 552.589844 C 2170.261719 552.320312 2170.390625 552.019531 2170.660156 551.921875 C 2170.929688 551.828125 2171.230469 551.960938 2171.320312 552.230469 C 2174.539062 559.640625 2176.871094 566.960938 2178.179688 574.308594 C 2179.109375 579.480469 2179.558594 584.640625 2179.550781 589.789062 C 2179.539062 591.859375 2179.429688 593.929688 2179.238281 596 C 2178.96875 599.089844 2178.539062 602.160156 2177.960938 605.21875 C 2176.550781 612.691406 2174.328125 620.050781 2171.570312 627.421875 C 2171.441406 627.820312 2171.011719 628.039062 2170.609375 627.921875 C 2170.199219 627.789062 2169.980469 627.351562 2170.109375 626.949219 C 2172.128906 619.5 2173.511719 612.089844 2174.339844 604.679688 C 2174.671875 601.691406 2174.910156 598.699219 2175.058594 595.710938 C 2175.160156 593.71875 2175.210938 591.730469 2175.261719 589.730469 C 2175.359375 584.78125 2175.230469 579.808594 2174.738281 574.78125 C 2174.03125 567.511719 2172.71875 560.140625 2170.359375 552.589844 "/>
<path fill-rule="evenodd" fill="rgb(115, 63, 64)" fill-opacity="1" d="M 206.394531 981.6875 L 243.378906 844.25 C 236.519531 855.671875 229.671875 862.289062 222.664062 885.277344 L 209.960938 933.230469 L 206.394531 981.6875 "/>
<path fill-rule="evenodd" fill="rgb(53, 35, 49)" fill-opacity="1" d="M 206.394531 981.6875 L 243.378906 840.085938 C 265.558594 808.113281 301.074219 797.324219 334.816406 783.714844 L 334.816406 780.28125 C 324.128906 802.382812 316.847656 828.488281 304.023438 856.070312 C 301.265625 868.058594 299.859375 880.921875 296.144531 892.578125 L 249.722656 970.898438 L 243.378906 981.6875 L 206.394531 981.6875 "/>
<path fill-rule="evenodd" fill="rgb(53, 35, 49)" fill-opacity="1" d="M 198.738281 977.015625 L 172.082031 870.378906 C 157.171875 847.085938 123.222656 824.417969 123.222656 824.417969 C 123.117188 842.339844 137.871094 903.542969 140.324219 913.164062 C 146.988281 939.3125 157.148438 970.351562 172.082031 981.6875 L 185.613281 981.6875 L 198.738281 977.015625 "/>
<path fill-rule="evenodd" fill="rgb(53, 35, 49)" fill-opacity="1" d="M 199.339844 977.582031 C 208.980469 986.636719 211.859375 920.785156 213.03125 898.5625 C 213.996094 880.347656 210.261719 858.347656 206.394531 844.25 C 203.347656 833.15625 190.992188 820.992188 189.820312 813.972656 C 188.984375 808.980469 197.09375 806.496094 199.34375 802.148438 C 205.667969 789.925781 204.777344 775.296875 199.339844 767.957031 C 193.640625 760.269531 180.863281 754.519531 170.253906 755.949219 C 158.78125 757.496094 146.394531 769.535156 143.261719 780.28125 C 140.101562 791.125 152.824219 806.117188 158.105469 813.972656 C 161.503906 819.023438 155.667969 827.183594 155.179688 832.226562 C 154.792969 836.21875 154.015625 840.414062 155.179688 844.25 C 162.539062 868.476562 189.695312 968.53125 199.339844 977.582031 "/>
<path fill-rule="evenodd" fill="rgb(115, 63, 64)" fill-opacity="1" d="M 199.339844 981.6875 C 199.679688 922.347656 185.40625 874.785156 155.179688 840.085938 C 177.902344 879.167969 190.21875 926.320312 191.945312 981.6875 L 199.339844 981.6875 "/>
<path fill-rule="evenodd" fill="rgb(212, 200, 201)" fill-opacity="1" d="M 323.492188 415.238281 C 326.777344 415.238281 329.445312 417.800781 329.445312 420.960938 C 329.445312 424.121094 326.777344 426.691406 323.492188 426.691406 C 320.207031 426.691406 317.539062 424.121094 317.539062 420.960938 C 317.539062 417.800781 320.207031 415.238281 323.492188 415.238281 "/>
<path fill-rule="evenodd" fill="rgb(212, 200, 201)" fill-opacity="1" d="M 265.074219 533.078125 C 268.359375 533.078125 271.027344 535.648438 271.027344 538.808594 C 271.027344 541.96875 268.359375 544.53125 265.074219 544.53125 C 261.785156 544.53125 259.121094 541.96875 259.121094 538.808594 C 259.121094 535.648438 261.785156 533.078125 265.074219 533.078125 "/>
<path fill-rule="evenodd" fill="rgb(212, 200, 201)" fill-opacity="1" d="M 378 567.261719 C 381.285156 567.261719 383.953125 569.828125 383.953125 572.988281 C 383.953125 576.148438 381.285156 578.71875 378 578.71875 C 374.714844 578.71875 372.046875 576.148438 372.046875 572.988281 C 372.046875 569.828125 374.714844 567.261719 378 567.261719 "/>
<path fill-rule="evenodd" fill="rgb(212, 200, 201)" fill-opacity="1" d="M 349.425781 693.328125 C 352.710938 693.328125 355.378906 695.894531 355.378906 699.054688 C 355.378906 702.214844 352.710938 704.78125 349.425781 704.78125 C 346.140625 704.78125 343.472656 702.214844 343.472656 699.054688 C 343.472656 695.894531 346.140625 693.328125 349.425781 693.328125 "/>
<path fill-rule="evenodd" fill="rgb(212, 200, 201)" fill-opacity="1" d="M 124.738281 711.234375 C 128.023438 711.234375 130.691406 713.800781 130.691406 716.964844 C 130.691406 720.125 128.023438 722.691406 124.738281 722.691406 C 121.453125 722.691406 118.785156 720.125 118.785156 716.964844 C 118.785156 713.800781 121.453125 711.234375 124.738281 711.234375 "/>
<path fill-rule="evenodd" fill="rgb(212, 200, 201)" fill-opacity="1" d="M 235.242188 155.019531 C 238.527344 155.019531 241.195312 157.589844 241.195312 160.75 C 241.195312 163.910156 238.527344 166.46875 235.242188 166.46875 C 231.953125 166.46875 229.289062 163.910156 229.289062 160.75 C 229.289062 157.589844 231.953125 155.019531 235.242188 155.019531 "/>
<path fill-rule="evenodd" fill="rgb(212, 200, 201)" fill-opacity="1" d="M 235.242188 408.921875 C 238.527344 408.921875 241.195312 411.480469 241.195312 414.640625 C 241.195312 417.800781 238.527344 420.371094 235.242188 420.371094 C 231.953125 420.371094 229.289062 417.800781 229.289062 414.640625 C 229.289062 411.480469 231.953125 408.921875 235.242188 408.921875 "/>
<path fill-rule="evenodd" fill="rgb(212, 200, 201)" fill-opacity="1" d="M 189.679688 68.128906 C 192.96875 68.128906 195.632812 70.691406 195.632812 73.851562 C 195.632812 77.011719 192.96875 79.578125 189.679688 79.578125 C 186.394531 79.578125 183.726562 77.011719 183.726562 73.851562 C 183.726562 70.691406 186.394531 68.128906 189.679688 68.128906 "/>
<path fill-rule="evenodd" fill="rgb(212, 200, 201)" fill-opacity="1" d="M 68.339844 166.46875 C 71.628906 166.46875 74.292969 169.039062 74.292969 172.199219 C 74.292969 175.359375 71.628906 177.929688 68.339844 177.929688 C 65.054688 177.929688 62.386719 175.359375 62.386719 172.199219 C 62.386719 169.039062 65.054688 166.46875 68.339844 166.46875 "/>
<path fill-rule="evenodd" fill="rgb(212, 212, 212)" fill-opacity="1" d="M 547.519531 346.820312 C 551.09375 342.75 554.984375 337.320312 558.925781 332.699219 C 560.171875 331.238281 561.421875 329.859375 562.667969 328.609375 C 576.265625 315 587.316406 295.78125 600.296875 279.691406 C 606.164062 272.410156 612.425781 265.761719 619.445312 260.488281 C 637.871094 246.660156 655.769531 232.761719 674.277344 219.570312 C 686.617188 210.769531 699.234375 202.289062 712.453125 194.351562 C 726.03125 186.199219 740.621094 178.730469 755.667969 171.628906 C 789.921875 155.460938 826.554688 141.199219 858.960938 124.988281 C 887.039062 110.960938 917.238281 98.609375 943.253906 81.71875 C 960.867188 70.289062 976.558594 56.78125 988.292969 39.179688 C 990.046875 36.550781 993.816406 31.910156 997.910156 27.078125 C 1004.949219 18.761719 1012.929688 9.859375 1012.929688 9.859375 C 1013.648438 9.058594 1014.808594 8.820312 1015.78125 9.269531 C 1016.761719 9.71875 1017.328125 10.761719 1017.191406 11.820312 C 1017.191406 11.820312 1015.21875 26.488281 1010.71875 39.960938 C 1008.429688 46.820312 1005.460938 53.351562 1001.839844 57.640625 C 994.753906 66 979.210938 93.628906 960.019531 121.671875 C 950.246094 135.949219 939.535156 150.328125 928.523438 162.371094 C 894.308594 199.800781 860.230469 248 825.246094 291.308594 C 809.765625 310.46875 794.105469 328.691406 778.1875 344.601562 C 761.125 361.648438 722.367188 391.039062 693.925781 417.328125 C 679.671875 430.511719 668.007812 442.851562 663.214844 452.429688 C 663.03125 452.800781 662.800781 453.429688 662.671875 453.800781 C 662.769531 453.820312 662.878906 453.851562 662.980469 453.871094 C 664.226562 454.101562 665.054688 455.300781 664.828125 456.550781 C 664.597656 457.800781 663.398438 458.621094 662.152344 458.390625 C 660 458 658.960938 457.019531 658.433594 456.019531 C 657.964844 455.128906 657.859375 454.109375 658.085938 453.019531 C 658.265625 452.140625 658.683594 451.210938 659.101562 450.371094 C 664.058594 440.449219 676.03125 427.578125 690.78125 413.929688 C 719.164062 387.671875 757.84375 358.308594 774.867188 341.28125 C 790.667969 325.46875 806.203125 307.371094 821.5625 288.328125 C 856.582031 244.929688 890.703125 196.628906 924.960938 159.121094 C 935.820312 147.21875 946.378906 133.03125 956.015625 118.929688 C 975.324219 90.699219 990.988281 62.898438 998.113281 54.480469 C 1001.398438 50.601562 1004.011719 44.628906 1006.078125 38.410156 C 1008.308594 31.738281 1009.890625 24.761719 1010.910156 19.539062 C 1008.179688 22.640625 1004.820312 26.511719 1001.660156 30.25 C 997.714844 34.910156 994.070312 39.371094 992.382812 41.910156 C 980.273438 60.070312 964.109375 74.058594 945.933594 85.851562 C 919.769531 102.839844 889.410156 115.28125 861.167969 129.410156 C 828.726562 145.621094 792.058594 159.898438 757.765625 176.078125 C 742.867188 183.109375 728.421875 190.488281 714.972656 198.550781 C 701.863281 206.421875 689.351562 214.820312 677.109375 223.539062 C 658.628906 236.699219 640.757812 250.570312 622.359375 264.371094 C 615.644531 269.398438 609.671875 275.769531 604.058594 282.71875 C 590.964844 298.941406 579.777344 318.289062 566.054688 332 C 564.894531 333.160156 563.730469 334.449219 562.570312 335.808594 C 557.753906 341.449219 552.992188 348.25 548.789062 352.449219 C 547.636719 353.609375 546.503906 353.578125 545.574219 353.210938 C 544.902344 352.941406 544.097656 352.25 543.605469 351 C 542.753906 348.820312 542.480469 343.800781 542.480469 342.941406 C 542.484375 335.960938 541.625 327.710938 541.695312 320 C 541.726562 316.429688 541.953125 312.980469 542.53125 309.808594 C 544.535156 298.761719 544.207031 288.101562 542.714844 278.21875 C 539.804688 258.929688 532.496094 242.550781 529.207031 231.800781 C 521.164062 205.539062 497.671875 144.429688 474.960938 92.269531 C 459.5625 56.898438 444.542969 25.648438 434.945312 12.289062 C 433.378906 10.109375 431.976562 8.429688 430.746094 7.339844 C 430.144531 6.800781 429.640625 6.410156 429.171875 6.300781 C 427.972656 6.011719 427.230469 4.808594 427.515625 3.609375 C 427.800781 2.398438 429.003906 1.660156 430.207031 1.949219 C 431.949219 2.359375 434.34375 4.21875 437.015625 7.601562 C 444.609375 17.21875 456.261719 39.871094 468.929688 67.578125 C 494.511719 123.53125 524.375 200.121094 533.6875 230.429688 C 537.035156 241.328125 544.417969 257.949219 547.386719 277.519531 C 548.957031 287.878906 549.296875 299.058594 547.199219 310.660156 C 546.671875 313.578125 546.472656 316.761719 546.445312 320.039062 C 546.382812 327.730469 547.246094 335.980469 547.246094 342.941406 C 547.25 343.371094 547.304688 345.148438 547.519531 346.820312 "/>
<path fill-rule="evenodd" fill="rgb(212, 200, 201)" fill-opacity="1" d="M 156.859375 392.328125 C 160.144531 392.328125 162.8125 394.898438 162.8125 398.058594 C 162.8125 401.21875 160.144531 403.78125 156.859375 403.78125 C 153.574219 403.78125 150.90625 401.21875 150.90625 398.058594 C 150.90625 394.898438 153.574219 392.328125 156.859375 392.328125 "/>
</svg>
