<?xml version="1.0" encoding="UTF-8"?>
<svg xmlns="http://www.w3.org/2000/svg" xmlns:xlink="http://www.w3.org/1999/xlink" width="3750" height="2250" viewBox="0 0 3750 2250">
<path fill-rule="nonzero" fill="rgb(90, 178, 189)" fill-opacity="1" d="M 1243.148438 1021.03125 C 1243.148438 1021.03125 675.820312 1056.941406 510.652344 1193.390625 C 395.472656 1288.539062 283.851562 1760.578125 226.796875 2037.757812 L 754.417969 2241.875 L 2384.988281 2241.875 C 2384.988281 2241.875 2165.289062 1356.175781 2033.261719 1239.378906 C 1901.230469 1122.589844 1243.148438 1021.03125 1243.148438 1021.03125 Z M 1243.148438 1021.03125 "/>
<path fill-rule="nonzero" fill="rgb(253, 193, 164)" fill-opacity="1" d="M 1261.109375 895.371094 L 1146.199219 1089.269531 C 1146.199219 1089.269531 1376 1459.105469 1627.351562 1171.851562 L 1742.25 974.359375 L 1616.578125 726.609375 L 1354.460938 701.46875 Z M 1261.109375 895.371094 "/>
<path fill-rule="nonzero" fill="rgb(189, 93, 90)" fill-opacity="1" d="M 1354.460938 701.480469 C 1354.460938 701.480469 1384.628906 1132.308594 1587.769531 1211.96875 C 1600.890625 1200.320312 1614.089844 1187.011719 1627.359375 1171.851562 L 1742.261719 974.359375 L 1616.589844 726.609375 Z M 1354.460938 701.480469 "/>
<path fill-rule="nonzero" fill="rgb(253, 193, 164)" fill-opacity="1" d="M 2777.609375 1445.402344 C 2708.46875 1444.960938 2619.730469 1454.171875 2575.300781 1498.605469 L 2539.390625 1714.050781 C 2539.390625 1714.050781 2329.570312 1682.566406 2156.929688 1739.910156 C 2157.859375 1743.832031 2158.839844 1747.894531 2159.929688 1752.234375 C 2161.171875 1757.136719 2162.53125 1762.289062 2164 1767.675781 C 2165.460938 1773.0625 2167.050781 1778.6875 2168.75 1784.5 C 2170.460938 1790.316406 2172.269531 1796.316406 2174.230469 1802.503906 C 2176.191406 1808.695312 2178.28125 1815.0625 2180.5 1821.570312 C 2182.71875 1828.082031 2185.078125 1834.738281 2187.578125 1841.515625 C 2190.078125 1848.289062 2192.71875 1855.179688 2195.5 1862.164062 C 2198.289062 1869.152344 2201.230469 1876.230469 2204.320312 1883.371094 C 2207.410156 1890.515625 2210.640625 1897.722656 2214.050781 1904.96875 C 2217.449219 1912.214844 2221.019531 1919.503906 2224.75 1926.796875 C 2228.480469 1934.09375 2232.378906 1941.394531 2236.449219 1948.679688 C 2240.519531 1955.96875 2244.761719 1963.234375 2249.179688 1970.460938 C 2251.390625 1974.074219 2253.660156 1977.679688 2255.960938 1981.265625 C 2258.261719 1984.855469 2260.609375 1988.433594 2263 1991.988281 C 2265.398438 1995.542969 2267.828125 1999.074219 2270.320312 2002.59375 C 2272.808594 2006.109375 2275.339844 2009.605469 2277.921875 2013.078125 C 2280.5 2016.550781 2283.128906 2019.992188 2285.808594 2023.410156 C 2288.488281 2026.832031 2291.210938 2030.234375 2293.988281 2033.59375 C 2296.769531 2036.953125 2299.589844 2040.28125 2302.46875 2043.574219 C 2305.339844 2046.867188 2308.269531 2050.113281 2311.25 2053.335938 C 2314.230469 2056.554688 2317.261719 2059.753906 2320.339844 2062.894531 C 2323.421875 2066.035156 2326.539062 2069.128906 2329.730469 2072.183594 C 2332.910156 2075.238281 2336.148438 2078.238281 2339.441406 2081.199219 C 2342.730469 2084.164062 2346.070312 2087.070312 2349.46875 2089.933594 C 2352.871094 2092.792969 2356.328125 2095.609375 2359.839844 2098.363281 C 2363.339844 2101.117188 2366.890625 2103.8125 2370.511719 2106.453125 C 2374.128906 2109.09375 2377.800781 2111.6875 2381.53125 2114.207031 C 2385.261719 2116.730469 2389.050781 2119.183594 2392.890625 2121.574219 C 2396.738281 2123.96875 2400.640625 2126.296875 2404.589844 2128.554688 C 2408.550781 2130.8125 2412.570312 2133.011719 2416.648438 2135.128906 C 2420.71875 2137.246094 2424.859375 2139.296875 2429.058594 2141.265625 C 2433.25 2143.238281 2437.5 2145.128906 2441.820312 2146.945312 C 2446.128906 2148.761719 2450.5 2150.5 2454.929688 2152.15625 C 2459.371094 2153.8125 2463.859375 2155.371094 2468.421875 2156.859375 C 2472.980469 2158.347656 2477.609375 2159.761719 2482.289062 2161.074219 C 2486.980469 2162.386719 2491.710938 2163.601562 2496.519531 2164.730469 C 2501.328125 2165.863281 2506.21875 2166.910156 2511.148438 2167.851562 C 2516.089844 2168.792969 2521.089844 2169.632812 2526.160156 2170.378906 C 2531.21875 2171.128906 2536.351562 2171.773438 2541.550781 2172.316406 C 2546.75 2172.863281 2552.011719 2173.3125 2557.339844 2173.648438 C 2562.671875 2173.988281 2568.039062 2174.214844 2573.460938 2174.339844 C 2578.878906 2174.46875 2584.339844 2174.5 2589.851562 2174.425781 C 2595.351562 2174.351562 2600.890625 2174.175781 2606.46875 2173.90625 C 2612.050781 2173.632812 2617.660156 2173.269531 2623.308594 2172.808594 C 2628.960938 2172.347656 2634.648438 2171.800781 2640.371094 2171.15625 C 2646.089844 2170.515625 2651.839844 2169.769531 2657.609375 2168.949219 C 2663.390625 2168.128906 2669.199219 2167.222656 2675.03125 2166.234375 C 2680.859375 2165.246094 2686.730469 2164.167969 2692.609375 2163.015625 C 2698.5 2161.859375 2704.398438 2160.632812 2710.328125 2159.324219 C 2716.261719 2158.011719 2722.21875 2156.621094 2728.179688 2155.160156 C 2734.148438 2153.695312 2740.128906 2152.164062 2746.140625 2150.554688 C 2752.140625 2148.949219 2758.160156 2147.277344 2764.191406 2145.53125 C 2770.21875 2143.789062 2776.28125 2141.980469 2782.328125 2140.105469 C 2788.378906 2138.230469 2794.449219 2136.289062 2800.519531 2134.289062 C 2806.589844 2132.289062 2812.679688 2130.238281 2818.761719 2128.117188 C 2824.839844 2126 2830.929688 2123.824219 2837.019531 2121.59375 C 2843.109375 2119.363281 2849.199219 2117.070312 2855.289062 2114.734375 C 2861.378906 2112.398438 2867.480469 2110.019531 2873.570312 2107.585938 C 2879.648438 2105.152344 2885.730469 2102.660156 2891.808594 2100.132812 C 2897.878906 2097.605469 2903.96875 2095.042969 2910.03125 2092.429688 C 2922.160156 2087.203125 2934.238281 2081.8125 2946.269531 2076.28125 C 2958.308594 2070.75 2970.289062 2065.074219 2982.179688 2059.289062 C 2994.078125 2053.5 3005.890625 2047.589844 3017.601562 2041.601562 C 3029.320312 2035.617188 3040.941406 2029.550781 3052.429688 2023.414062 C 3063.921875 2017.273438 3075.289062 2011.074219 3086.519531 2004.835938 C 3097.738281 1998.597656 3108.808594 1992.324219 3119.730469 1986.039062 C 3130.640625 1979.753906 3141.378906 1973.453125 3151.941406 1967.175781 C 3162.5 1960.898438 3172.871094 1954.632812 3183.03125 1948.414062 C 3193.191406 1942.191406 3203.128906 1936.015625 3212.851562 1929.902344 C 3222.570312 1923.789062 3232.058594 1917.734375 3241.289062 1911.78125 C 3250.519531 1905.824219 3259.488281 1899.972656 3268.199219 1894.230469 C 3276.890625 1888.488281 3285.320312 1882.867188 3293.449219 1877.390625 C 3300.609375 1872.566406 3306.589844 1868.351562 3313.269531 1863.769531 C 3056.75 1731.882812 2923.578125 1728.414062 2923.578125 1728.414062 L 2873.308594 1451.929688 C 2873.308594 1451.929688 2831.390625 1445.746094 2777.609375 1445.402344 Z M 2777.609375 1445.402344 "/>
<path fill-rule="nonzero" fill="rgb(189, 93, 90)" fill-opacity="1" d="M 2777.609375 1445.402344 C 2708.46875 1444.960938 2619.730469 1454.171875 2575.300781 1498.605469 L 2539.390625 1714.050781 C 2539.390625 1714.050781 2730.671875 1698.433594 2891.71875 1553.210938 L 2873.308594 1451.925781 C 2873.308594 1451.925781 2831.390625 1445.746094 2777.609375 1445.402344 Z M 2777.609375 1445.402344 "/>
<path fill-rule="nonzero" fill="rgb(26, 26, 26)" fill-opacity="1" d="M 2086.960938 600.929688 C 2086.960938 600.929688 2187.5 644.019531 2259.308594 536.300781 C 2331.128906 428.578125 1810.480469 58.738281 1555.539062 144.921875 C 1300.601562 231.089844 1257.511719 755.328125 1261.109375 895.371094 L 1494.5 776.878906 L 1778.160156 798.421875 Z M 2086.960938 600.929688 "/>
<path fill-rule="nonzero" fill="rgb(253, 193, 164)" fill-opacity="1" d="M 2086.960938 600.929688 C 2086.960938 600.929688 1936.148438 1132.359375 1749.429688 1110.808594 C 1562.71875 1089.269531 1494.5 776.878906 1494.5 776.878906 C 1494.5 776.878906 1390.371094 683.519531 1433.460938 565.03125 C 1476.539062 446.53125 1566.308594 518.351562 1580.671875 565.03125 C 1595.039062 611.710938 1616.578125 726.609375 1616.578125 726.609375 L 1788.929688 500.390625 Z M 2086.960938 600.929688 "/>
<path fill-rule="nonzero" fill="rgb(253, 193, 164)" fill-opacity="1" d="M 754.417969 2241.875 L 226.796875 2037.757812 C 202.03125 2158.066406 187.5 2241.875 187.5 2241.875 Z M 754.417969 2241.875 "/>
<path fill-rule="nonzero" fill="rgb(253, 193, 164)" fill-opacity="1" d="M 2514.25 1064.128906 C 2514.25 1064.128906 2313.171875 1408.835938 2435.25 1512.964844 C 2557.339844 1617.09375 2873.320312 1451.921875 2873.320312 1451.921875 L 2927.179688 881.011719 L 2754.820312 798.421875 Z M 2514.25 1064.128906 "/>
<path fill-rule="nonzero" fill="rgb(49, 115, 123)" fill-opacity="1" d="M 1901.441406 1311.28125 C 1899.378906 1311.914062 1897.640625 1313.34375 1896.628906 1315.253906 C 1895.609375 1317.167969 1895.390625 1319.40625 1896.03125 1321.472656 C 1896.03125 1321.472656 1926.460938 1420.769531 1953.308594 1544.734375 C 1980.160156 1668.695312 2003.128906 1817.621094 1989.121094 1913.960938 C 1988.46875 1918.410156 1991.550781 1922.542969 1996 1923.199219 C 2000.449219 1923.847656 2004.578125 1920.769531 2005.238281 1916.320312 C 2019.949219 1815.175781 1996.25 1665.984375 1969.238281 1541.292969 C 1942.230469 1416.601562 1911.640625 1316.695312 1911.640625 1316.695312 C 1911.011719 1314.625 1909.578125 1312.890625 1907.671875 1311.875 C 1905.75 1310.859375 1903.519531 1310.644531 1901.441406 1311.28125 Z M 1901.441406 1311.28125 "/>
<path fill-rule="nonzero" fill="rgb(189, 90, 182)" fill-opacity="1" d="M 2156.929688 1739.910156 C 2103.730469 1757.585938 2054.058594 1783.691406 2015.140625 1821.757812 C 1903.128906 1931.328125 1854.589844 2126.351562 1834.488281 2241.875 L 3562.5 2241.875 C 3553.46875 2136.414062 3510.171875 1967.410156 3333.230469 1874.132812 C 3326.480469 1870.574219 3319.859375 1867.15625 3313.269531 1863.765625 C 3306.589844 1868.347656 3300.609375 1872.5625 3293.449219 1877.386719 C 3285.320312 1882.867188 3276.890625 1888.488281 3268.199219 1894.230469 C 3259.488281 1899.972656 3250.519531 1905.824219 3241.289062 1911.777344 C 3232.058594 1917.730469 3222.570312 1923.785156 3212.851562 1929.902344 C 3203.128906 1936.015625 3193.191406 1942.1875 3183.03125 1948.410156 C 3172.871094 1954.632812 3162.5 1960.894531 3151.941406 1967.171875 C 3141.378906 1973.453125 3130.640625 1979.753906 3119.730469 1986.039062 C 3108.808594 1992.320312 3097.738281 1998.597656 3086.519531 2004.835938 C 3075.289062 2011.070312 3063.921875 2017.273438 3052.429688 2023.410156 C 3040.941406 2029.550781 3029.320312 2035.613281 3017.601562 2041.601562 C 3005.890625 2047.589844 2994.078125 2053.5 2982.179688 2059.285156 C 2970.289062 2065.070312 2958.308594 2070.746094 2946.269531 2076.277344 C 2934.238281 2081.808594 2922.160156 2087.203125 2910.03125 2092.429688 C 2903.96875 2095.042969 2897.878906 2097.605469 2891.808594 2100.132812 C 2885.730469 2102.660156 2879.648438 2105.148438 2873.570312 2107.582031 C 2867.480469 2110.019531 2861.378906 2112.394531 2855.289062 2114.730469 C 2849.199219 2117.066406 2843.109375 2119.363281 2837.019531 2121.59375 C 2830.929688 2123.824219 2824.839844 2126 2818.761719 2128.117188 C 2812.679688 2130.234375 2806.589844 2132.285156 2800.519531 2134.285156 C 2794.449219 2136.285156 2788.378906 2138.226562 2782.328125 2140.101562 C 2776.28125 2141.976562 2770.21875 2143.789062 2764.191406 2145.53125 C 2758.160156 2147.273438 2752.140625 2148.949219 2746.140625 2150.554688 C 2740.128906 2152.160156 2734.148438 2153.695312 2728.179688 2155.15625 C 2722.21875 2156.617188 2716.261719 2158.011719 2710.328125 2159.320312 C 2704.398438 2160.632812 2698.5 2161.859375 2692.609375 2163.011719 C 2686.730469 2164.167969 2680.859375 2165.242188 2675.03125 2166.234375 C 2669.199219 2167.222656 2663.390625 2168.125 2657.609375 2168.945312 C 2651.839844 2169.765625 2646.089844 2170.511719 2640.371094 2171.15625 C 2634.648438 2171.796875 2628.960938 2172.347656 2623.308594 2172.808594 C 2617.660156 2173.265625 2612.050781 2173.632812 2606.46875 2173.902344 C 2600.890625 2174.175781 2595.351562 2174.351562 2589.851562 2174.425781 C 2584.339844 2174.503906 2578.878906 2174.46875 2573.460938 2174.339844 C 2568.039062 2174.210938 2562.671875 2173.984375 2557.339844 2173.648438 C 2552.011719 2173.3125 2546.75 2172.863281 2541.550781 2172.316406 C 2536.351562 2171.769531 2531.21875 2171.125 2526.160156 2170.378906 C 2521.089844 2169.628906 2516.089844 2168.792969 2511.148438 2167.847656 C 2506.21875 2166.90625 2501.328125 2165.863281 2496.519531 2164.730469 C 2491.710938 2163.597656 2486.980469 2162.382812 2482.289062 2161.074219 C 2477.609375 2159.761719 2472.980469 2158.34375 2468.421875 2156.859375 C 2463.859375 2155.371094 2459.371094 2153.808594 2454.929688 2152.15625 C 2450.5 2150.5 2446.128906 2148.761719 2441.820312 2146.945312 C 2437.5 2145.128906 2433.25 2143.234375 2429.058594 2141.265625 C 2424.859375 2139.292969 2420.71875 2137.246094 2416.648438 2135.128906 C 2412.570312 2133.007812 2408.550781 2130.8125 2404.589844 2128.554688 C 2400.640625 2126.292969 2396.738281 2123.96875 2392.890625 2121.574219 C 2389.050781 2119.179688 2385.261719 2116.726562 2381.53125 2114.207031 C 2377.800781 2111.6875 2374.128906 2109.09375 2370.511719 2106.453125 C 2366.890625 2103.8125 2363.339844 2101.113281 2359.839844 2098.359375 C 2356.328125 2095.605469 2352.871094 2092.792969 2349.46875 2089.929688 C 2346.070312 2087.070312 2342.730469 2084.160156 2339.441406 2081.199219 C 2336.148438 2078.238281 2332.910156 2075.234375 2329.730469 2072.179688 C 2326.539062 2069.125 2323.421875 2066.03125 2320.339844 2062.890625 C 2317.261719 2059.75 2314.230469 2056.554688 2311.25 2053.332031 C 2308.269531 2050.113281 2305.339844 2046.867188 2302.46875 2043.570312 C 2299.589844 2040.277344 2296.769531 2036.953125 2293.988281 2033.59375 C 2291.210938 2030.234375 2288.488281 2026.828125 2285.808594 2023.410156 C 2283.128906 2019.992188 2280.5 2016.546875 2277.921875 2013.074219 C 2275.339844 2009.605469 2272.808594 2006.109375 2270.320312 2002.589844 C 2267.828125 1999.074219 2265.398438 1995.542969 2263 1991.988281 C 2260.609375 1988.429688 2258.261719 1984.851562 2255.960938 1981.265625 C 2253.660156 1977.675781 2251.390625 1974.074219 2249.179688 1970.460938 C 2244.761719 1963.230469 2240.519531 1955.964844 2236.449219 1948.679688 C 2232.378906 1941.390625 2228.480469 1934.089844 2224.75 1926.796875 C 2221.019531 1919.503906 2217.449219 1912.210938 2214.050781 1904.964844 C 2210.640625 1897.71875 2207.410156 1890.511719 2204.320312 1883.371094 C 2201.230469 1876.226562 2198.289062 1869.148438 2195.5 1862.164062 C 2192.71875 1855.175781 2190.078125 1848.285156 2187.578125 1841.511719 C 2185.078125 1834.738281 2182.71875 1828.078125 2180.5 1821.570312 C 2178.28125 1815.058594 2176.191406 1808.691406 2174.230469 1802.503906 C 2172.269531 1796.3125 2170.460938 1790.3125 2168.75 1784.5 C 2167.050781 1778.683594 2165.460938 1773.0625 2164 1767.675781 C 2162.53125 1762.289062 2161.171875 1757.136719 2159.929688 1752.234375 C 2158.839844 1747.894531 2157.859375 1743.832031 2156.929688 1739.910156 Z M 2156.929688 1739.910156 "/>
<path fill-rule="nonzero" fill="rgb(49, 115, 123)" fill-opacity="1" d="M 574.003906 1199.96875 C 569.695312 1198.691406 565.164062 1201.140625 563.875 1205.449219 C 562.597656 1209.761719 565.046875 1214.289062 569.355469 1215.578125 C 700 1254.421875 775.582031 1336.5 816.886719 1439.027344 C 858.191406 1541.558594 864.53125 1664.722656 854.222656 1783.347656 C 833.609375 2020.59375 746.863281 2238.84375 746.863281 2238.84375 C 745.207031 2243.015625 747.226562 2247.742188 751.386719 2249.421875 C 755.558594 2251.082031 760.285156 2249.058594 761.964844 2244.898438 C 761.964844 2244.898438 849.589844 2025.0625 870.472656 1784.746094 C 880.910156 1664.589844 874.761719 1539.089844 831.988281 1432.914062 C 789.210938 1326.734375 709.066406 1240.121094 574.003906 1199.96875 Z M 574.003906 1199.96875 "/>
<path fill-rule="nonzero" fill="rgb(26, 26, 26)" fill-opacity="1" d="M 2514.25 1064.128906 L 2776.371094 891.78125 C 2776.371094 891.78125 2642.628906 1797.957031 2855.898438 1935.0625 C 3069.179688 2072.167969 3333.230469 1874.125 3333.230469 1874.125 C 3333.230469 1874.125 3348.46875 1122.589844 3307.839844 1010.871094 C 3267.21875 899.160156 2949.839844 642.710938 2726.410156 731.578125 C 2502.980469 820.441406 2514.25 1064.128906 2514.25 1064.128906 Z M 2514.25 1064.128906 "/>
<path fill-rule="nonzero" fill="rgb(255, 85, 85)" fill-opacity="1" d="M 812 826.78125 C 812 826.78125 1044.089844 534.949219 908.402344 489.839844 C 772.710938 444.71875 789.765625 603.179688 789.765625 603.179688 C 789.765625 603.179688 662.835938 422.53125 580.941406 562.390625 C 499.046875 702.25 812 826.78125 812 826.78125 Z M 812 826.78125 "/>
<path fill-rule="nonzero" fill="rgb(255, 85, 85)" fill-opacity="1" d="M 2529.78125 554.25 C 2529.78125 554.25 2291.511719 324.449219 2380.859375 216.730469 C 2470.210938 109.011719 2559.558594 274.179688 2559.558594 274.179688 C 2559.558594 274.179688 2666.78125 80.28125 2779.949219 144.921875 C 2893.128906 209.550781 2529.78125 554.25 2529.78125 554.25 Z M 2529.78125 554.25 "/>
<path fill-rule="nonzero" fill="rgb(255, 85, 85)" fill-opacity="1" d="M 3283.46875 1583.441406 C 3283.46875 1583.441406 3199.160156 1349.257812 3250.679688 1335.207031 C 3302.210938 1321.15625 3311.570312 1447.613281 3311.570312 1447.613281 C 3311.570312 1447.613281 3428.660156 1255.585938 3475.5 1349.257812 C 3522.339844 1442.929688 3283.46875 1583.441406 3283.46875 1583.441406 Z M 3283.46875 1583.441406 "/>
</svg>
