<?xml version="1.0" encoding="utf-8"?>
<!-- Generator: Adobe Illustrator 27.5.0, SVG Export Plug-In . SVG Version: 6.00 Build 0)  -->
<svg version="1.1" id="Layer_1" xmlns="http://www.w3.org/2000/svg" xmlns:xlink="http://www.w3.org/1999/xlink" x="0px" y="0px"
	 viewBox="0 0 900 900" style="enable-background:new 0 0 900 900;" xml:space="preserve">
<rect y="0.002" style="fill:#B0FBFF;" width="900" height="899"/>
<g style="opacity:0.83;">
	<g>
		<path style="fill:#FFFFFF;" d="M592.386,202.062H900v-51.3c-2.21-0.2-4.454-0.3-6.714-0.3c-10.42,0-20.41,2.01-29.54,5.96
			c-10.2-30.16-37.48-51.8-69.45-51.8c-29.81,0-55.51,18.65-67.12,45.61c-6.59-2.46-13.72-3.78-21.12-3.78
			c-22.79,0-42.88,12.5-54.38,31.35c-6.15-4.17-13.39-6.38-21.22-6.38C612.306,171.422,597.076,184.672,592.386,202.062z"/>
	</g>
</g>
<g style="opacity:0.83;">
	<g>
		<path style="fill:#FFFFFF;" d="M0,57.178v112.365h240.415c-15.175-35.915-50.924-60.928-92.562-60.928
			c-13.19,0-25.836,2.378-37.395,7.036C97.541,80.031,63.022,54.482,22.547,54.482C14.771,54.482,7.218,55.419,0,57.178z"/>
	</g>
</g>
<g>
	<ellipse style="fill:#3BBC97;" cx="461.004" cy="569.961" rx="67.531" ry="66.63"/>
	<path style="fill:#90C681;" d="M26.017,537.552c0,11.28-3.45,21.77-9.38,30.48c-4.35,6.39-10.017,11.82-16.637,15.92v-92.8
		c1.85,1.14,3.617,2.39,5.307,3.73C17.937,504.922,26.017,520.302,26.017,537.552z"/>
	<ellipse style="fill:#3BBC97;" cx="356.985" cy="617.33" rx="122.622" ry="120.988"/>
	<ellipse style="fill:#3BBC97;" cx="205.492" cy="626.329" rx="122.622" ry="120.988"/>
	<path style="fill:#3BBC97;" d="M211.597,550.782c0,73.59-60.47,133.25-135.06,133.25c-28.42,0-54.787-8.66-76.537-23.45v-219.6
		c21.75-14.8,48.117-23.46,76.537-23.46C151.127,417.522,211.597,477.183,211.597,550.782z"/>
	<ellipse style="fill:#3BBC97;" cx="645.568" cy="623.554" rx="135.663" ry="133.853"/>
	<path style="fill:#3BBC97;" d="M900,448.212v303.97c-2.14,0.09-4.293,0.13-6.453,0.13c-85.14,0-154.17-68.1-154.17-152.11
		s69.03-152.12,154.17-152.12C895.707,448.083,897.86,448.122,900,448.212z"/>
</g>
<g>
	<g>
		<g>
			<g>
				<path style="fill:#36394F;" d="M117.29,347.026c0,2.754,0.13,5.641,0.416,8.332c3.688,35.876,31.374,64.95,66.93,71.152
					c4.623,0.82,9.118,1.263,13.975,1.263c4.312,0,8.204-0.3,12.391-0.941v-9.533c-4.187,0.743-8.079,1.127-12.391,1.127
					c-4.882,0-9.494-0.487-14.117-1.409c-27.971-5.535-50.029-27.244-56.107-54.663c-1.091-4.894-1.591-9.82-1.591-15.328H117.29z"
					/>
			</g>
			<g>
				<path style="fill:#36394F;" d="M193.295,537.615c2.799,0.185,5.58,0.24,8.32,0.138c36.526-1.237,67.709-26.557,76.353-61.147
					c1.138-4.497,1.871-9.174,2.195-13.955c0.288-4.245,0.233-8.434-0.139-12.543l-9.64-0.636c0.478,4.09,0.582,8.308,0.294,12.553
					c-0.326,4.807-1.135,9.453-2.377,13.943c-7.464,27.168-30.761,47.512-58.895,51.666c-5.022,0.748-10.217,0.969-15.478,0.622
					L193.295,537.615z"/>
			</g>
			<g>
				<rect x="184.486" y="369.057" style="fill:#36394F;" width="26.516" height="216.184"/>
			</g>
		</g>
		<g>
			<path style="fill:#67B26D;" d="M59,238.405c0,46.024,22.778,86.82,57.84,111.959c3.48,2.486,7.064,4.818,10.752,6.996
				c16.778,9.866,35.816,16.375,56.178,18.579c5.091,0.564,10.259,0.846,15.505,0.846c3.844,0,7.662-0.154,11.428-0.461
				c20.726-1.64,40.179-7.739,57.373-17.323c3.766-2.076,7.402-4.331,10.934-6.765c36.568-24.96,60.515-66.627,60.515-113.83
				c0-76.442-62.801-138.405-140.25-138.405C121.801,100,59,161.963,59,238.405z"/>
		</g>
		<g>
			<path style="fill:#599E5C;" d="M213.535,390.019c0,28.411,14.061,53.596,35.706,69.114c2.148,1.534,4.361,2.974,6.638,4.319
				c10.357,6.09,22.11,10.108,34.68,11.469c3.143,0.348,6.333,0.522,9.572,0.522c2.373,0,4.73-0.095,7.055-0.285
				c12.794-1.013,24.803-4.777,35.417-10.694c2.325-1.281,4.569-2.673,6.75-4.176c22.574-15.408,37.357-41.13,37.357-70.269
				c0-47.189-38.768-85.44-86.579-85.44C252.303,304.579,213.535,342.83,213.535,390.019z"/>
		</g>
	</g>
	<g>
		<path style="fill:#75B67C;" d="M295.111,366.632L295.111,366.632c3.357,0.691,6.678-1.454,7.378-4.766l3.821-18.069
			c0.701-3.313-1.473-6.589-4.831-7.28l0,0c-3.357-0.691-6.678,1.454-7.378,4.766l-3.821,18.069
			C289.579,362.665,291.753,365.941,295.111,366.632z"/>
		<path style="fill:#75B67C;" d="M243.346,350.04L243.346,350.04c2.01,2.742,5.928,3.364,8.707,1.381l15.16-10.815
			c2.779-1.983,3.409-5.849,1.4-8.591l0,0c-2.01-2.742-5.928-3.364-8.707-1.381l-15.16,10.815
			C241.966,343.431,241.336,347.297,243.346,350.04z"/>
		<path style="fill:#75B67C;" d="M338.479,409.433L338.479,409.433c1.436,3.073,5.159,4.429,8.274,3.012l16.99-7.727
			c3.115-1.417,4.489-5.09,3.053-8.163l0,0c-1.436-3.073-5.159-4.429-8.274-3.012l-16.99,7.727
			C338.417,402.686,337.043,406.36,338.479,409.433z"/>
		<path style="fill:#75B67C;" d="M349.844,364.309l0.159-0.064c2.228-0.896,3.308-3.429,2.399-5.627l-4.794-11.6
			c-0.909-2.198-3.475-3.264-5.703-2.367l-0.159,0.064c-2.228,0.897-3.308,3.429-2.399,5.627l4.794,11.6
			C345.049,364.141,347.616,365.206,349.844,364.309z"/>
		<path style="fill:#75B67C;" d="M300.026,414.93l0.121-0.12c1.701-1.679,1.701-4.426,0-6.105l-8.978-8.858
			c-1.701-1.679-4.486-1.679-6.187,0l-0.121,0.12c-1.702,1.679-1.702,4.426,0,6.105l8.978,8.858
			C295.541,416.609,298.325,416.609,300.026,414.93z"/>
		<path style="fill:#75B67C;" d="M257.322,392.364l0.028-0.564c0.112-2.263-1.673-4.204-3.967-4.314l-11.164-0.536
			c-2.293-0.11-4.261,1.651-4.373,3.914l-0.028,0.564c-0.112,2.263,1.673,4.204,3.966,4.314l11.164,0.536
			C255.242,396.388,257.21,394.627,257.322,392.364z"/>
		<path style="fill:#75B67C;" d="M265.301,436.742l0.456-0.34c1.831-1.366,2.197-3.963,0.812-5.77l-6.741-8.796
			c-1.385-1.807-4.016-2.168-5.848-0.801l-0.456,0.341c-1.831,1.366-2.197,3.963-0.812,5.77l6.741,8.796
			C260.838,437.747,263.469,438.108,265.301,436.742z"/>
		<path style="fill:#75B67C;" d="M329.451,433.469l-0.265-0.5c-1.063-2.008-3.597-2.793-5.633-1.745l-9.908,5.104
			c-2.035,1.048-2.831,3.549-1.768,5.557l0.265,0.5c1.063,2.008,3.597,2.793,5.633,1.745l9.908-5.104
			C329.718,437.978,330.514,435.477,329.451,433.469z"/>
	</g>
	<g>
		<path style="fill:#599E5C;" d="M198.284,178.787L198.284,178.787c4.202,0.865,8.358-1.819,9.235-5.965l4.783-22.615
			c0.877-4.146-1.844-8.246-6.046-9.111l0,0c-4.202-0.865-8.358,1.819-9.234,5.965l-4.783,22.615
			C191.361,173.822,194.082,177.922,198.284,178.787z"/>
		<path style="fill:#599E5C;" d="M120.255,154.72L120.255,154.72c2.515,3.432,7.419,4.21,10.898,1.728l18.974-13.537
			c3.479-2.482,4.267-7.32,1.752-10.753l0,0c-2.515-3.432-7.419-4.21-10.898-1.728l-18.974,13.537
			C118.528,146.449,117.74,151.288,120.255,154.72z"/>
		<path style="fill:#599E5C;" d="M269.567,248.446L269.567,248.446c1.797,3.846,6.457,5.543,10.355,3.77l21.265-9.67
			c3.898-1.773,5.618-6.371,3.821-10.217l0,0c-1.797-3.847-6.457-5.543-10.355-3.77l-21.265,9.67
			C269.49,240.001,267.77,244.599,269.567,248.446z"/>
		<path style="fill:#599E5C;" d="M281.675,176.789l0.198-0.08c2.789-1.122,4.14-4.291,3.003-7.043l-6.001-14.518
			c-1.137-2.751-4.349-4.085-7.138-2.963l-0.199,0.08c-2.789,1.122-4.14,4.291-3.003,7.043l6.001,14.518
			C275.674,176.578,278.887,177.911,281.675,176.789z"/>
		<path style="fill:#599E5C;" d="M202.625,256.701l0.152-0.15c2.13-2.101,2.13-5.539,0-7.64l-11.237-11.087
			c-2.13-2.101-5.614-2.101-7.744,0l-0.152,0.15c-2.13,2.101-2.13,5.539,0,7.64l11.237,11.087
			C197.011,258.802,200.495,258.802,202.625,256.701z"/>
		<path style="fill:#599E5C;" d="M135.121,223.522l0.035-0.706c0.14-2.832-2.094-5.262-4.964-5.4l-13.973-0.671
			c-2.87-0.138-5.333,2.066-5.473,4.898l-0.035,0.706c-0.14,2.832,2.094,5.262,4.964,5.4l13.973,0.671
			C132.518,228.558,134.981,226.354,135.121,223.522z"/>
		<path style="fill:#599E5C;" d="M137.142,294.892l0.571-0.426c2.292-1.71,2.749-4.96,1.016-7.221l-8.437-11.01
			c-1.733-2.262-5.027-2.713-7.319-1.003l-0.571,0.426c-2.292,1.71-2.749,4.96-1.016,7.221l8.437,11.009
			C131.556,296.151,134.85,296.602,137.142,294.892z"/>
		<path style="fill:#599E5C;" d="M179.009,341.709l0.571-0.426c2.292-1.71,2.749-4.96,1.016-7.221l-8.437-11.01
			c-1.733-2.262-5.027-2.713-7.319-1.003l-0.571,0.426c-2.292,1.71-2.749,4.96-1.016,7.221l8.437,11.009
			C173.424,342.968,176.717,343.419,179.009,341.709z"/>
		<path style="fill:#599E5C;" d="M248.264,289.381l-0.331-0.626c-1.33-2.513-4.502-3.496-7.05-2.184l-12.401,6.388
			c-2.547,1.312-3.543,4.442-2.213,6.956l0.331,0.626c1.33,2.513,4.502,3.496,7.05,2.184l12.4-6.388
			C248.598,295.025,249.594,291.895,248.264,289.381z"/>
		<path style="fill:#599E5C;" d="M251.307,210.947l-0.331-0.626c-1.33-2.513-4.502-3.496-7.05-2.184l-12.4,6.388
			c-2.547,1.312-3.543,4.442-2.213,6.956l0.331,0.626c1.33,2.513,4.502,3.496,7.05,2.184l12.401-6.388
			C251.641,216.59,252.637,213.46,251.307,210.947z"/>
	</g>
</g>
<g>
	<g>
		<g>
			<rect x="581.657" y="433.322" style="fill:#36394F;" width="18.245" height="171.513"/>
		</g>
	</g>
	<g>
		<g>
			<g>
				<polygon style="fill:#599E5C;" points="519.554,523.328 590.372,523.328 661.191,523.328 590.372,321.193 				"/>
			</g>
		</g>
	</g>
	<g>
		<g>
			<g>
				<polygon style="fill:#75B67C;" points="530.355,444.572 590.372,444.572 650.389,444.572 590.372,273.268 				"/>
			</g>
		</g>
	</g>
	<g>
		<g>
			<g>
				<polygon style="fill:#85C6A5;" points="547.284,363.566 590.372,363.566 633.461,363.566 590.372,240.579 				"/>
			</g>
		</g>
	</g>
</g>
<g>
	<g>
		<g>
			<rect x="776.83" y="393.442" style="fill:#36394F;" width="23.234" height="214.532"/>
		</g>
	</g>
	<g>
		<g>
			<g>
				<polygon style="fill:#599E5C;" points="694.651,512.646 787.945,512.646 881.24,512.646 787.945,246.359 				"/>
			</g>
		</g>
	</g>
	<g>
		<g>
			<g>
				<polygon style="fill:#75B67C;" points="708.88,407.196 787.945,407.196 867.01,407.196 787.945,181.524 				"/>
			</g>
		</g>
	</g>
	<g>
		<g>
			<g>
				<polygon style="fill:#85C6A5;" points="731.182,301.746 787.945,301.746 844.71,301.746 787.945,139.726 				"/>
			</g>
		</g>
	</g>
</g>
<g>
	<g>
		<g>
			<rect y="565.422" style="fill:#92BA45;" width="900" height="332.58"/>
		</g>
	</g>
	<g style="opacity:0.22;">
		<defs>
			<polygon id="SVGID_1_" style="opacity:0.22;" points="900,888 0,888 0,550.774 900,550.608 			"/>
		</defs>
		<clipPath id="SVGID_00000097498153897188762740000014657646216976478345_">
			<use xlink:href="#SVGID_1_"  style="overflow:visible;"/>
		</clipPath>
		<g style="clip-path:url(#SVGID_00000097498153897188762740000014657646216976478345_);">
			<g>
				<g>
					<path style="fill:#231F20;" d="M725.714,648.261c3.778,0,6.849-1.922,6.849-4.295c0-2.37-3.07-4.295-6.849-4.295
						c-3.784,0-6.849,1.926-6.849,4.295C718.865,646.339,721.93,648.261,725.714,648.261z"/>
					<path style="fill:#231F20;" d="M862.666,648.262c3.778,0,6.849-1.922,6.849-4.295c0-2.37-3.07-4.295-6.849-4.295
						c-3.784,0-6.849,1.926-6.849,4.295C855.817,646.34,858.882,648.262,862.666,648.262z"/>
					<path style="fill:#231F20;" d="M794.19,605.315c3.778,0,6.849-1.922,6.849-4.295c0-2.37-3.071-4.295-6.849-4.295
						c-3.784,0-6.849,1.926-6.849,4.295C787.341,603.393,790.406,605.315,794.19,605.315z"/>
					<path style="fill:#231F20;" d="M657.238,605.315c3.778,0,6.849-1.922,6.849-4.295c0-2.37-3.071-4.295-6.849-4.295
						c-3.784,0-6.849,1.926-6.849,4.295C650.389,603.392,653.454,605.315,657.238,605.315z"/>
				</g>
				<g>
					<path style="fill:#231F20;" d="M588.761,648.26c3.778,0,6.849-1.922,6.849-4.295c0-2.37-3.07-4.295-6.849-4.295
						c-3.784,0-6.849,1.926-6.849,4.295C581.912,646.338,584.977,648.26,588.761,648.26z"/>
				</g>
			</g>
		</g>
		<g style="clip-path:url(#SVGID_00000097498153897188762740000014657646216976478345_);">
			<g>
				<g>
					<path style="fill:#231F20;" d="M725.712,820.045c3.778,0,6.849-1.922,6.849-4.295c0-2.37-3.071-4.295-6.849-4.295
						c-3.784,0-6.849,1.926-6.849,4.295C718.864,818.122,721.928,820.045,725.712,820.045z"/>
					<path style="fill:#231F20;" d="M862.665,820.046c3.778,0,6.849-1.922,6.849-4.295c0-2.37-3.071-4.295-6.849-4.295
						c-3.784,0-6.849,1.926-6.849,4.295C855.816,818.123,858.881,820.046,862.665,820.046z"/>
					<path style="fill:#231F20;" d="M725.713,734.153c3.778,0,6.849-1.922,6.849-4.295c0-2.37-3.071-4.295-6.849-4.295
						c-3.784,0-6.849,1.926-6.849,4.295C718.864,732.231,721.929,734.153,725.713,734.153z"/>
					<path style="fill:#231F20;" d="M862.666,734.154c3.778,0,6.849-1.922,6.849-4.295c0-2.37-3.071-4.295-6.849-4.295
						c-3.784,0-6.849,1.926-6.849,4.295C855.817,732.232,858.882,734.154,862.666,734.154z"/>
					<path style="fill:#231F20;" d="M794.189,777.099c3.778,0,6.849-1.922,6.849-4.295c0-2.37-3.071-4.295-6.849-4.295
						c-3.784,0-6.849,1.926-6.849,4.295C787.34,775.177,790.405,777.099,794.189,777.099z"/>
					<path style="fill:#231F20;" d="M657.236,777.098c3.778,0,6.849-1.922,6.849-4.295c0-2.369-3.071-4.295-6.849-4.295
						c-3.784,0-6.849,1.926-6.849,4.295C650.388,775.176,653.452,777.098,657.236,777.098z"/>
					<path style="fill:#231F20;" d="M794.19,691.207c3.778,0,6.849-1.922,6.849-4.295c0-2.37-3.071-4.295-6.849-4.295
						c-3.784,0-6.849,1.926-6.849,4.295C787.341,689.285,790.406,691.207,794.19,691.207z"/>
					<path style="fill:#231F20;" d="M657.237,691.206c3.778,0,6.849-1.922,6.849-4.295c0-2.37-3.07-4.295-6.849-4.295
						c-3.784,0-6.849,1.926-6.849,4.295C650.388,689.284,653.453,691.206,657.237,691.206z"/>
				</g>
				<g>
					<path style="fill:#231F20;" d="M588.76,820.044c3.778,0,6.849-1.922,6.849-4.295c0-2.37-3.07-4.295-6.849-4.295
						c-3.784,0-6.849,1.926-6.849,4.295C581.911,818.122,584.976,820.044,588.76,820.044z"/>
					<path style="fill:#231F20;" d="M588.76,734.152c3.778,0,6.849-1.922,6.849-4.295c0-2.37-3.07-4.295-6.849-4.295
						c-3.784,0-6.849,1.926-6.849,4.295C581.911,732.23,584.976,734.152,588.76,734.152z"/>
				</g>
				<g>
					<path style="fill:#231F20;" d="M725.714,648.261c3.778,0,6.849-1.922,6.849-4.295c0-2.37-3.07-4.295-6.849-4.295
						c-3.784,0-6.849,1.926-6.849,4.295C718.865,646.339,721.93,648.261,725.714,648.261z"/>
					<path style="fill:#231F20;" d="M862.666,648.262c3.778,0,6.849-1.922,6.849-4.295c0-2.37-3.07-4.295-6.849-4.295
						c-3.784,0-6.849,1.926-6.849,4.295C855.817,646.34,858.882,648.262,862.666,648.262z"/>
				</g>
				<g>
					<path style="fill:#231F20;" d="M588.761,648.26c3.778,0,6.849-1.922,6.849-4.295c0-2.37-3.07-4.295-6.849-4.295
						c-3.784,0-6.849,1.926-6.849,4.295C581.912,646.338,584.977,648.26,588.761,648.26z"/>
				</g>
			</g>
		</g>
		<g style="clip-path:url(#SVGID_00000097498153897188762740000014657646216976478345_);">
			<g>
				<g>
					<path style="fill:#231F20;" d="M794.188,862.991c3.778,0,6.849-1.922,6.849-4.295c0-2.37-3.07-4.295-6.849-4.295
						c-3.784,0-6.849,1.926-6.849,4.295C787.339,861.069,790.404,862.991,794.188,862.991z"/>
					<path style="fill:#231F20;" d="M657.236,862.99c3.778,0,6.849-1.922,6.849-4.295c0-2.37-3.07-4.295-6.849-4.295
						c-3.784,0-6.849,1.926-6.849,4.295C650.387,861.068,653.452,862.99,657.236,862.99z"/>
				</g>
				<g>
					<path style="fill:#231F20;" d="M725.712,820.045c3.778,0,6.849-1.922,6.849-4.295c0-2.37-3.071-4.295-6.849-4.295
						c-3.784,0-6.849,1.926-6.849,4.295C718.864,818.122,721.928,820.045,725.712,820.045z"/>
					<path style="fill:#231F20;" d="M862.665,820.046c3.778,0,6.849-1.922,6.849-4.295c0-2.37-3.071-4.295-6.849-4.295
						c-3.784,0-6.849,1.926-6.849,4.295C855.816,818.123,858.881,820.046,862.665,820.046z"/>
				</g>
				<g>
					<path style="fill:#231F20;" d="M588.76,820.044c3.778,0,6.849-1.922,6.849-4.295c0-2.37-3.07-4.295-6.849-4.295
						c-3.784,0-6.849,1.926-6.849,4.295C581.911,818.122,584.976,820.044,588.76,820.044z"/>
				</g>
			</g>
		</g>
		<g style="clip-path:url(#SVGID_00000097498153897188762740000014657646216976478345_);">
			<g>
				<g>
					<path style="fill:#231F20;" d="M451.808,648.259c3.778,0,6.849-1.922,6.849-4.295c0-2.37-3.07-4.295-6.849-4.295
						c-3.784,0-6.849,1.926-6.849,4.295C444.96,646.337,448.024,648.259,451.808,648.259z"/>
					<path style="fill:#231F20;" d="M588.761,648.26c3.778,0,6.849-1.922,6.849-4.295c0-2.37-3.07-4.295-6.849-4.295
						c-3.784,0-6.849,1.926-6.849,4.295C581.912,646.338,584.977,648.26,588.761,648.26z"/>
					<path style="fill:#231F20;" d="M520.285,605.314c3.778,0,6.849-1.922,6.849-4.295c0-2.37-3.071-4.295-6.849-4.295
						c-3.784,0-6.849,1.926-6.849,4.295C513.436,603.391,516.501,605.314,520.285,605.314z"/>
					<path style="fill:#231F20;" d="M383.332,605.313c3.778,0,6.849-1.922,6.849-4.295c0-2.37-3.07-4.295-6.849-4.295
						c-3.784,0-6.849,1.926-6.849,4.295C376.484,603.39,379.548,605.313,383.332,605.313z"/>
				</g>
				<g>
					<path style="fill:#231F20;" d="M314.856,648.258c3.778,0,6.849-1.922,6.849-4.295c0-2.37-3.07-4.295-6.849-4.295
						c-3.784,0-6.849,1.926-6.849,4.295C308.007,646.336,311.072,648.258,314.856,648.258z"/>
				</g>
			</g>
		</g>
		<g style="clip-path:url(#SVGID_00000097498153897188762740000014657646216976478345_);">
			<g>
				<g>
					<path style="fill:#231F20;" d="M451.807,820.043c3.778,0,6.849-1.922,6.849-4.295c0-2.37-3.07-4.295-6.849-4.295
						c-3.784,0-6.849,1.926-6.849,4.295C444.958,818.12,448.023,820.043,451.807,820.043z"/>
					<path style="fill:#231F20;" d="M588.76,820.044c3.778,0,6.849-1.922,6.849-4.295c0-2.37-3.07-4.295-6.849-4.295
						c-3.784,0-6.849,1.926-6.849,4.295C581.911,818.122,584.976,820.044,588.76,820.044z"/>
					<path style="fill:#231F20;" d="M451.808,734.151c3.778,0,6.849-1.922,6.849-4.295c0-2.37-3.071-4.295-6.849-4.295
						c-3.784,0-6.849,1.926-6.849,4.295C444.959,732.229,448.024,734.151,451.808,734.151z"/>
					<path style="fill:#231F20;" d="M588.76,734.152c3.778,0,6.849-1.922,6.849-4.295c0-2.37-3.071-4.295-6.849-4.295
						c-3.784,0-6.849,1.926-6.849,4.295C581.911,732.23,584.976,734.152,588.76,734.152z"/>
					<path style="fill:#231F20;" d="M520.284,777.097c3.778,0,6.849-1.922,6.849-4.295c0-2.37-3.071-4.295-6.849-4.295
						c-3.784,0-6.849,1.926-6.849,4.295C513.435,775.175,516.5,777.097,520.284,777.097z"/>
					<path style="fill:#231F20;" d="M383.331,777.096c3.778,0,6.849-1.922,6.849-4.295c0-2.37-3.071-4.295-6.849-4.295
						c-3.784,0-6.849,1.926-6.849,4.295C376.482,775.174,379.547,777.096,383.331,777.096z"/>
					<path style="fill:#231F20;" d="M520.284,691.205c3.778,0,6.849-1.922,6.849-4.295c0-2.37-3.071-4.295-6.849-4.295
						c-3.784,0-6.849,1.926-6.849,4.295C513.435,689.283,516.5,691.205,520.284,691.205z"/>
					<path style="fill:#231F20;" d="M383.332,691.205c3.778,0,6.849-1.922,6.849-4.295c0-2.369-3.071-4.295-6.849-4.295
						c-3.784,0-6.849,1.926-6.849,4.295C376.483,689.282,379.548,691.205,383.332,691.205z"/>
				</g>
				<g>
					<path style="fill:#231F20;" d="M314.854,820.042c3.778,0,6.849-1.922,6.849-4.295c0-2.37-3.07-4.295-6.849-4.295
						c-3.784,0-6.849,1.926-6.849,4.295C308.006,818.12,311.071,820.042,314.854,820.042z"/>
					<path style="fill:#231F20;" d="M314.855,734.15c3.778,0,6.849-1.922,6.849-4.295c0-2.37-3.07-4.295-6.849-4.295
						c-3.784,0-6.849,1.926-6.849,4.295C308.006,732.228,311.071,734.15,314.855,734.15z"/>
				</g>
				<g>
					<path style="fill:#231F20;" d="M451.808,648.259c3.778,0,6.849-1.922,6.849-4.295c0-2.37-3.07-4.295-6.849-4.295
						c-3.784,0-6.849,1.926-6.849,4.295C444.96,646.337,448.024,648.259,451.808,648.259z"/>
					<path style="fill:#231F20;" d="M588.761,648.26c3.778,0,6.849-1.922,6.849-4.295c0-2.37-3.07-4.295-6.849-4.295
						c-3.784,0-6.849,1.926-6.849,4.295C581.912,646.338,584.977,648.26,588.761,648.26z"/>
				</g>
				<g>
					<path style="fill:#231F20;" d="M314.856,648.258c3.778,0,6.849-1.922,6.849-4.295c0-2.37-3.07-4.295-6.849-4.295
						c-3.784,0-6.849,1.926-6.849,4.295C308.007,646.336,311.072,648.258,314.856,648.258z"/>
				</g>
			</g>
		</g>
		<g style="clip-path:url(#SVGID_00000097498153897188762740000014657646216976478345_);">
			<g>
				<g>
					<path style="fill:#231F20;" d="M520.283,862.989c3.778,0,6.849-1.922,6.849-4.295c0-2.37-3.07-4.295-6.849-4.295
						c-3.784,0-6.849,1.926-6.849,4.295C513.434,861.067,516.499,862.989,520.283,862.989z"/>
					<path style="fill:#231F20;" d="M383.33,862.988c3.778,0,6.849-1.922,6.849-4.295c0-2.37-3.07-4.295-6.849-4.295
						c-3.784,0-6.849,1.926-6.849,4.295C376.482,861.066,379.547,862.988,383.33,862.988z"/>
				</g>
				<g>
					<path style="fill:#231F20;" d="M451.807,820.043c3.778,0,6.849-1.922,6.849-4.295c0-2.37-3.07-4.295-6.849-4.295
						c-3.784,0-6.849,1.926-6.849,4.295C444.958,818.12,448.023,820.043,451.807,820.043z"/>
					<path style="fill:#231F20;" d="M588.76,820.044c3.778,0,6.849-1.922,6.849-4.295c0-2.37-3.07-4.295-6.849-4.295
						c-3.784,0-6.849,1.926-6.849,4.295C581.911,818.122,584.976,820.044,588.76,820.044z"/>
				</g>
				<g>
					<path style="fill:#231F20;" d="M314.854,820.042c3.778,0,6.849-1.922,6.849-4.295c0-2.37-3.07-4.295-6.849-4.295
						c-3.784,0-6.849,1.926-6.849,4.295C308.006,818.12,311.071,820.042,314.854,820.042z"/>
				</g>
			</g>
		</g>
		<g style="clip-path:url(#SVGID_00000097498153897188762740000014657646216976478345_);">
			<g>
				<g>
					<path style="fill:#231F20;" d="M177.903,648.257c3.778,0,6.849-1.922,6.849-4.295c0-2.37-3.071-4.295-6.849-4.295
						c-3.784,0-6.849,1.926-6.849,4.295C171.054,646.335,174.119,648.257,177.903,648.257z"/>
					<path style="fill:#231F20;" d="M314.856,648.258c3.778,0,6.849-1.922,6.849-4.295c0-2.37-3.07-4.295-6.849-4.295
						c-3.784,0-6.849,1.926-6.849,4.295C308.007,646.336,311.072,648.258,314.856,648.258z"/>
					<path style="fill:#231F20;" d="M246.38,605.312c3.778,0,6.849-1.922,6.849-4.295c0-2.37-3.07-4.295-6.849-4.295
						c-3.784,0-6.849,1.926-6.849,4.295C239.531,603.389,242.596,605.312,246.38,605.312z"/>
					<path style="fill:#231F20;" d="M109.427,605.311c3.778,0,6.849-1.922,6.849-4.295c0-2.369-3.071-4.295-6.849-4.295
						c-3.784,0-6.849,1.926-6.849,4.295C102.578,603.388,105.643,605.311,109.427,605.311z"/>
				</g>
				<g>
					<path style="fill:#231F20;" d="M40.951,648.256c3.778,0,6.849-1.922,6.849-4.295c0-2.37-3.07-4.295-6.849-4.295
						c-3.784,0-6.849,1.926-6.849,4.295C34.102,646.334,37.167,648.256,40.951,648.256z"/>
				</g>
			</g>
		</g>
		<g style="clip-path:url(#SVGID_00000097498153897188762740000014657646216976478345_);">
			<g>
				<g>
					<path style="fill:#231F20;" d="M177.902,820.041c3.778,0,6.849-1.922,6.849-4.295c0-2.37-3.07-4.295-6.849-4.295
						c-3.784,0-6.849,1.926-6.849,4.295C171.053,818.119,174.118,820.041,177.902,820.041z"/>
					<path style="fill:#231F20;" d="M314.854,820.042c3.778,0,6.849-1.922,6.849-4.295c0-2.37-3.07-4.295-6.849-4.295
						c-3.784,0-6.849,1.926-6.849,4.295C308.006,818.12,311.07,820.042,314.854,820.042z"/>
					<path style="fill:#231F20;" d="M177.902,734.149c3.778,0,6.849-1.922,6.849-4.295c0-2.37-3.071-4.295-6.849-4.295
						c-3.784,0-6.849,1.926-6.849,4.295C171.054,732.227,174.119,734.149,177.902,734.149z"/>
					<path style="fill:#231F20;" d="M314.855,734.15c3.778,0,6.849-1.922,6.849-4.295c0-2.37-3.071-4.295-6.849-4.295
						c-3.784,0-6.849,1.926-6.849,4.295C308.006,732.228,311.071,734.15,314.855,734.15z"/>
					<path style="fill:#231F20;" d="M246.378,777.095c3.778,0,6.849-1.922,6.849-4.295c0-2.37-3.071-4.295-6.849-4.295
						c-3.784,0-6.849,1.926-6.849,4.295C239.53,775.173,242.595,777.095,246.378,777.095z"/>
					<path style="fill:#231F20;" d="M109.426,777.094c3.778,0,6.849-1.922,6.849-4.295c0-2.37-3.07-4.295-6.849-4.295
						c-3.784,0-6.849,1.926-6.849,4.295C102.577,775.172,105.642,777.094,109.426,777.094z"/>
					<path style="fill:#231F20;" d="M246.379,691.203c3.778,0,6.849-1.922,6.849-4.295c0-2.37-3.071-4.295-6.849-4.295
						c-3.784,0-6.849,1.926-6.849,4.295C239.53,689.281,242.595,691.203,246.379,691.203z"/>
					<path style="fill:#231F20;" d="M109.426,691.203c3.778,0,6.849-1.922,6.849-4.295c0-2.37-3.071-4.295-6.849-4.295
						c-3.784,0-6.849,1.926-6.849,4.295C102.578,689.28,105.643,691.203,109.426,691.203z"/>
				</g>
				<g>
					<path style="fill:#231F20;" d="M40.949,820.04c3.778,0,6.849-1.922,6.849-4.295c0-2.37-3.07-4.295-6.849-4.295
						c-3.784,0-6.849,1.926-6.849,4.295C34.1,818.118,37.165,820.04,40.949,820.04z"/>
					<path style="fill:#231F20;" d="M40.95,734.148c3.778,0,6.849-1.922,6.849-4.295c0-2.37-3.07-4.295-6.849-4.295
						c-3.784,0-6.849,1.926-6.849,4.295C34.101,732.226,37.166,734.148,40.95,734.148z"/>
				</g>
				<g>
					<path style="fill:#231F20;" d="M177.903,648.257c3.778,0,6.849-1.922,6.849-4.295c0-2.37-3.071-4.295-6.849-4.295
						c-3.784,0-6.849,1.926-6.849,4.295C171.054,646.335,174.119,648.257,177.903,648.257z"/>
					<path style="fill:#231F20;" d="M314.856,648.258c3.778,0,6.849-1.922,6.849-4.295c0-2.37-3.07-4.295-6.849-4.295
						c-3.784,0-6.849,1.926-6.849,4.295C308.007,646.336,311.072,648.258,314.856,648.258z"/>
				</g>
				<g>
					<path style="fill:#231F20;" d="M40.951,648.256c3.778,0,6.849-1.922,6.849-4.295c0-2.37-3.07-4.295-6.849-4.295
						c-3.784,0-6.849,1.926-6.849,4.295C34.102,646.334,37.167,648.256,40.951,648.256z"/>
				</g>
			</g>
		</g>
		<g style="clip-path:url(#SVGID_00000097498153897188762740000014657646216976478345_);">
			<g>
				<g>
					<path style="fill:#231F20;" d="M246.378,862.987c3.778,0,6.849-1.922,6.849-4.295c0-2.37-3.07-4.295-6.849-4.295
						c-3.784,0-6.849,1.926-6.849,4.295C239.529,861.065,242.594,862.987,246.378,862.987z"/>
					<path style="fill:#231F20;" d="M109.425,862.986c3.778,0,6.849-1.922,6.849-4.295c0-2.37-3.071-4.295-6.849-4.295
						c-3.784,0-6.849,1.926-6.849,4.295C102.576,861.064,105.641,862.986,109.425,862.986z"/>
				</g>
				<g>
					<path style="fill:#231F20;" d="M177.902,820.041c3.778,0,6.849-1.922,6.849-4.295c0-2.37-3.07-4.295-6.849-4.295
						c-3.784,0-6.849,1.926-6.849,4.295C171.053,818.119,174.118,820.041,177.902,820.041z"/>
					<path style="fill:#231F20;" d="M314.854,820.042c3.778,0,6.849-1.922,6.849-4.295c0-2.37-3.07-4.295-6.849-4.295
						c-3.784,0-6.849,1.926-6.849,4.295C308.006,818.12,311.07,820.042,314.854,820.042z"/>
				</g>
				<g>
					<path style="fill:#231F20;" d="M40.949,820.04c3.778,0,6.849-1.922,6.849-4.295c0-2.37-3.07-4.295-6.849-4.295
						c-3.784,0-6.849,1.926-6.849,4.295C34.1,818.118,37.165,820.04,40.949,820.04z"/>
				</g>
			</g>
		</g>
	</g>
	<rect y="548.959" style="opacity:0.27;fill:#427569;" width="900" height="16.5"/>
</g>
<g>
	<path style="fill:#427050;" d="M900,703.392v18.71H35.607c-5.14,0-9.35-4.21-9.35-9.36c0-2.57,1.05-4.91,2.75-6.6
		c1.69-1.7,4.03-2.75,6.6-2.75H900z"/>
	<g>
		<g>
			<g>
				<rect x="72.69" y="651.193" style="fill:#F9C8C0;" width="11.738" height="58.276"/>
				<g>
					<path style="fill:#FFFFFF;" d="M71.61,706.879c0,1.295-0.132,9.065-0.132,9.065h13.924v-9.065H71.61z"/>
				</g>
				<path style="fill:#242B57;" d="M90.904,719.83H71.478v-9.065h10.685c5.062,0,8.74,3.646,8.74,8.708V719.83z"/>
			</g>
			
				<rect x="68.567" y="652.061" transform="matrix(-1 -1.224647e-16 1.224647e-16 -1 159.1495 1329.1544)" style="fill:#EA524E;" width="22.015" height="25.033"/>
			<g>
				<rect x="100.534" y="651.193" style="fill:#F9C8C0;" width="11.738" height="58.276"/>
				<g>
					<path style="fill:#FFFFFF;" d="M99.453,706.879c0,1.295-0.132,9.065-0.132,9.065h13.924v-9.065H99.453z"/>
				</g>
				<path style="fill:#242B57;" d="M118.747,719.83H99.321v-9.065h10.685c5.062,0,8.74,3.646,8.74,8.708V719.83z"/>
			</g>
			
				<rect x="96.41" y="652.061" transform="matrix(-1 -1.224647e-16 1.224647e-16 -1 214.8357 1329.1544)" style="fill:#EA524E;" width="22.015" height="25.033"/>
			
				<rect x="69.082" y="651.193" transform="matrix(-1 -1.224647e-16 1.224647e-16 -1 184.534 1312.7465)" style="fill:#EA524E;" width="46.371" height="10.36"/>
			<rect x="67.511" y="672.561" style="fill:#F494A3;" width="23.634" height="5.504"/>
			<rect x="95.03" y="672.237" style="fill:#F494A3;" width="23.634" height="5.504"/>
			<g>
				<g>
					<path style="fill:#F9C8C0;" d="M139.457,635.276l5.859,3.029c1.78,0.92,2.483,3.129,1.563,4.909l-1.837,3.554
						c-0.92,1.78-3.129,2.483-4.909,1.563l-5.859-3.029c-1.78-0.92-2.483-3.129-1.563-4.909l1.837-3.554
						C135.468,635.059,137.677,634.355,139.457,635.276z"/>
					<path style="fill:#F9C8C0;" d="M139.409,644.485l10.215,5.282c0.746,0.386,1.041,1.312,0.655,2.058l0,0
						c-0.386,0.746-1.312,1.041-2.058,0.655l-10.215-5.282c-0.746-0.386-1.041-1.312-0.655-2.058l0,0
						C137.737,644.394,138.663,644.099,139.409,644.485z"/>
					<path style="fill:#F9C8C0;" d="M144.452,642.392l8.202,4.241c0.746,0.386,1.041,1.312,0.655,2.058l0,0
						c-0.386,0.746-1.312,1.041-2.058,0.655l-8.202-4.241c-0.746-0.386-1.041-1.312-0.655-2.058l0,0
						C142.78,642.301,143.706,642.006,144.452,642.392z"/>
					<path style="fill:#F9C8C0;" d="M144.38,638.159l9.708,5.02c0.746,0.386,1.041,1.312,0.655,2.058l0,0
						c-0.386,0.746-1.312,1.041-2.058,0.655l-9.708-5.02c-0.746-0.386-1.041-1.312-0.655-2.058l0,0
						C142.709,638.068,143.635,637.773,144.38,638.159z"/>
					<path style="fill:#F9C8C0;" d="M137.44,637.109l10.909-0.666c0.838-0.051,1.566,0.593,1.617,1.431l0,0
						c0.051,0.838-0.593,1.566-1.431,1.617l-10.909,0.666c-0.838,0.051-1.566-0.593-1.617-1.431l0,0
						C135.958,637.888,136.602,637.16,137.44,637.109z"/>
				</g>
				
					<path style="fill:none;stroke:#F9C8C0;stroke-width:11.5681;stroke-linecap:round;stroke-linejoin:round;stroke-miterlimit:10;" d="
					M107.157,591.56c0,0,1.137,14.73,10.787,28.606c7.472,10.744,18.754,19.753,18.754,19.753"/>
			</g>
			<g>
				<path style="fill:#FBD648;" d="M101.823,585.985c-0.027,0.688,0.928,16.284,8.269,33.52
					c5.959,13.992,19.761,24.394,20.208,24.845l10.713-10.604c-0.09-0.091-12.443-9.53-17.627-21.349
					c-5.805-13.234-4.529-18.831-7.119-24.982L101.823,585.985z"/>
			</g>
			<g>
				<g>
					<path style="fill:#F9C8C0;" d="M58.094,635.16l0.618,6.567c0.188,1.995-1.291,3.781-3.285,3.968l-3.983,0.375
						c-1.995,0.188-3.78-1.291-3.968-3.286l-0.618-6.567c-0.188-1.995,1.291-3.78,3.286-3.968l3.983-0.375
						C56.121,631.687,57.907,633.165,58.094,635.16z"/>
					<path style="fill:#F9C8C0;" d="M50.32,640.097l1.077,11.449c0.079,0.836-0.541,1.585-1.377,1.663l0,0
						c-0.836,0.079-1.585-0.541-1.663-1.377l-1.077-11.449c-0.079-0.836,0.541-1.585,1.377-1.663l0,0
						C49.493,638.641,50.242,639.261,50.32,640.097z"/>
					<path style="fill:#F9C8C0;" d="M54.807,643.209l0.865,9.193c0.079,0.836-0.541,1.585-1.377,1.663l0,0
						c-0.836,0.079-1.585-0.541-1.663-1.377l-0.865-9.193c-0.079-0.836,0.541-1.585,1.377-1.663l0,0
						C53.98,641.753,54.728,642.373,54.807,643.209z"/>
					<path style="fill:#F9C8C0;" d="M58.33,640.861l1.024,10.881c0.079,0.836-0.541,1.585-1.377,1.663l0,0
						c-0.836,0.079-1.585-0.541-1.663-1.377l-1.024-10.881c-0.079-0.836,0.541-1.585,1.377-1.663l0,0
						C57.503,639.405,58.251,640.025,58.33,640.861z"/>
					<path style="fill:#F9C8C0;" d="M55.462,634.454l6.457,8.818c0.496,0.678,0.348,1.638-0.33,2.134l0,0
						c-0.678,0.496-1.638,0.348-2.134-0.33l-6.457-8.818c-0.496-0.678-0.348-1.638,0.33-2.134l0,0
						C54.005,633.628,54.965,633.776,55.462,634.454z"/>
				</g>
				
					<path style="fill:none;stroke:#F9C8C0;stroke-width:11.5681;stroke-linecap:round;stroke-linejoin:round;stroke-miterlimit:10;" d="
					M77.416,584.357c0,0-11.779,8.918-18.237,24.537c-5,12.094-6.482,26.456-6.482,26.456"/>
			</g>
			<g>
				<path style="fill:#FBD648;" d="M83.165,581.204c-2.469-3.96-3.872-9.291-7.368-6.2c-4.838,4.278-15.126,15.686-20.099,24.832
					c-9.147,16.824-9.673,31.958-9.795,32.581l13.382,1.511c0.025-0.126,1.727-15.109,9.766-27.097
					c4.574-6.82,8.967-12.684,12.73-16.011C84.535,588.387,85.109,584.322,83.165,581.204L83.165,581.204z"/>
			</g>
			<path style="opacity:0.66;fill:#F59082;" d="M125.737,528.563c0.85,3.888,0.916,7.783,0.288,11.526
				c-2.69,0.191-5.219-1.523-5.966-4.212c-0.856-3.081,0.949-6.249,4.029-7.105C124.64,528.618,125.193,528.541,125.737,528.563z"/>
			<g>
				<defs>
					<path id="SVGID_00000067925662502525417610000007364538378124933815_" d="M68.465,651.627h51.314l-1.916-55.362
						c0-14.17-9.571-28.814-23.741-28.814l0,0c-14.17,0-25.657,11.487-25.657,25.657V651.627z"/>
				</defs>
				<clipPath id="SVGID_00000103232222604533771490000003400052774552437908_">
					<use xlink:href="#SVGID_00000067925662502525417610000007364538378124933815_"  style="overflow:visible;"/>
				</clipPath>
				<path style="clip-path:url(#SVGID_00000103232222604533771490000003400052774552437908_);fill:#FBD648;" d="M68.465,651.627
					h51.314l-1.916-55.362c0-14.17-9.571-28.814-23.741-28.814l0,0c-14.17,0-25.657,11.487-25.657,25.657V651.627z"/>
				<g style="clip-path:url(#SVGID_00000103232222604533771490000003400052774552437908_);">
					<path style="fill:#FFFFFF;" d="M104.18,570.04c0,5.841,3.885,99.286,3.885,99.286l-25.037-3.022c0,0,0-92,0-96.264
						c0-5.841,4.735-10.576,10.576-10.576C99.445,559.464,104.18,564.199,104.18,570.04z"/>
				</g>
				<path style="clip-path:url(#SVGID_00000103232222604533771490000003400052774552437908_);fill:#41387A;" d="M103.377,568.745
					l-2.59,15.385l-6.967-5.828l-6.631,5.336l-3.406-15.385C96.734,562.425,103.377,568.745,103.377,568.745z"/>
			</g>
			<path style="fill:#242B57;" d="M101.641,558.714l4.349-2.215c15.888-8.093,22.206-27.534,14.113-43.422l-1.258-2.47
				c-8.093-15.888-27.753-22.8-43.641-14.707l-4.695,2.59c-15.888,8.093-21.642,27.753-13.548,43.641l1.258,2.47
				C66.313,560.488,85.753,566.807,101.641,558.714z"/>
			<path style="fill:#F9C8C0;" d="M126.209,540.203c-1.891,11.461-10.321,21.588-22.197,24.891l-0.985,0.272
				c-16.291,4.52-33.774-5.297-38.307-21.588l-2.512-9.065c-4.533-16.291,5.802-32.194,22.093-36.727l0.971-0.272
				c16.305-4.533,33.542,3.717,38.074,20.008l2.512,9.065c0.117,0.427,0.065,0.907,0.091,1.347c0,0.117,0.026,0.233,0.052,0.35
				c0.35,1.606,0.557,3.238,0.622,4.869C126.74,535.683,126.571,538.001,126.209,540.203z"/>
			<path style="fill:#FFFFFF;" d="M116.332,540.156c1.041,3.743-1.458,9.66-6.201,10.979c-4.745,1.319-9.938-2.46-10.979-6.203
				L116.332,540.156z"/>
			<rect x="88.358" y="539.067" style="fill:#F59082;" width="0" height="0"/>
			<path style="opacity:0.66;fill:#F59082;" d="M108.641,536.917l-3.972,1.104c-0.626,0.174-1.274-0.192-1.448-0.818l-0.064-0.229
				c-0.174-0.626,0.192-1.274,0.818-1.448l3.972-1.104c0.626-0.174,1.274,0.192,1.448,0.818l0.064,0.229
				C109.633,536.095,109.267,536.743,108.641,536.917z"/>
			<path style="fill:#F9C8C0;" d="M93.399,577.163h0.038c-3.245,0-5.684-2.702-5.684-5.947v-13.479h11.655v13.479
				C99.409,574.461,96.644,577.163,93.399,577.163z"/>
			<path style="fill:#F9C8C0;" d="M73.046,542.72c1.023,3.679-1.131,7.49-4.809,8.512l0,0c-3.679,1.022-7.49-1.131-8.512-4.809l0,0
				c-1.023-3.679,1.131-7.49,4.809-8.512l0,0C68.213,536.888,72.024,539.041,73.046,542.72L73.046,542.72z"/>
			
				<path style="fill:none;stroke:#72391B;stroke-width:2.3006;stroke-linecap:round;stroke-linejoin:round;stroke-miterlimit:10;" d="
				M97.399,531.736c0,0-2.493-2.581-5.48-1.509c-2.987,1.072-3.249,4-3.249,4"/>
			
				<path style="fill:none;stroke:#72391B;stroke-width:2.3006;stroke-linecap:round;stroke-linejoin:round;stroke-miterlimit:10;" d="
				M118.509,525.711c0,0-2.493-2.581-5.48-1.509c-2.987,1.072-3.249,4-3.249,4"/>
			<circle style="fill:#242B57;" cx="112.598" cy="502.051" r="14.893"/>
			<circle style="fill:#242B57;" cx="73.1" cy="515.001" r="14.893"/>
			
				<ellipse transform="matrix(0.9983 -0.0582 0.0582 0.9983 -28.8807 6.2342)" style="fill:#242B57;" cx="92.554" cy="498.784" rx="12.979" ry="12.979"/>
			<circle style="fill:#242B57;" cx="93.668" cy="512.26" r="11.807"/>
			<circle style="fill:#242B57;" cx="69.862" cy="533.132" r="8.115"/>
			<path style="fill:#242B57;" d="M60.149,537.664L99,499.461c0,0-16.188-11.655-29.138,2.59
				C56.912,516.296,54.969,530.542,60.149,537.664z"/>
			<path style="opacity:0.48;fill:#F59082;" d="M97.034,542.236l-8.033,2.516c-1.359,0.426-2.82-0.338-3.246-1.697v0
				c-0.426-1.359,0.338-2.82,1.698-3.246l8.033-2.516c1.359-0.426,2.82,0.338,3.246,1.698l0,0
				C99.158,540.35,98.394,541.81,97.034,542.236z"/>
			<path style="opacity:0.48;fill:#F59082;" d="M126.623,533.352l-5.659,1.774c-1.36,0.427-2.81-0.337-3.238-1.696
				c-0.078-0.259-0.116-0.518-0.116-0.777c0-1.101,0.712-2.124,1.813-2.473l6.527-2.046c0,0.117,0.026,0.233,0.052,0.35
				C126.351,530.088,126.558,531.72,126.623,533.352z"/>
		</g>
		<g>
			<path style="fill:#3F2225;" d="M893.322,712.73C892.704,712.303,643.007,539,643.007,539h2.59c0-1-0.202-0.879-0.21-0.89
				c4.105,4.942,165.628,115.058,249.405,172.714L893.322,712.73z"/>
		</g>
		<path style="fill:#B58B59;" d="M407.654,711.904l32.029-222.32c0,0,58.499-1.728,105.508-1.256
			c125.214,1.256,204.735,222.948,204.735,222.948L407.654,711.904z"/>
		<path style="opacity:0.72;fill:#36394F;" d="M599.2,573h43.333c0,0,20.254,17,40.507,62h-48.044
			C634.997,635,621.338,596,599.2,573z"/>
		<g>
			<path style="fill:#3F2225;" d="M797.247,714.863c-0.631-0.424-63.769-42.843-126.096-85.062
				c-36.609-24.798-65.777-44.449-86.697-58.855C544.49,543.426,544.49,542,544.49,542h2.59c0-1-0.143-0.822-0.218-0.911
				c4.184,4.927,166.555,114.452,251.829,171.737L797.247,714.863z"/>
		</g>
		<g>
			<path style="fill:#3F2225;" d="M193.171,710.922l-1.857-1.806c45.434-46.693,167.967-168.501,170.797-173.601
				c-0.005,0.008-0.105,0.966-0.105,0.966h0.593c0.789,0,1.207,0.934,0.671,1.514C347.509,555.078,193.566,710.516,193.171,710.922z
				"/>
		</g>
		<path style="fill:#FBD648;" d="M285.189,712.532c0,0,38.797-224.839,168.17-223.576
			c129.373,1.263,182.894,223.576,182.894,223.576H285.189z"/>
		<g>
			<path style="fill:#3F2225;" d="M799.611,718.537c-1.332,0.083-3.453-11.655-3.453-11.655s-5.396,1.295-3.885-1.079
				c1.511-2.374,9.523-3.11,9.281-1.295c-0.216,1.619-2.806,1.943-2.806,1.943S801.338,718.429,799.611,718.537z"/>
			<path style="fill:#3F2225;" d="M894.148,715.947c-1.332,0.083-3.453-11.655-3.453-11.655s-5.396,1.295-3.885-1.079
				c1.511-2.374,9.523-3.11,9.281-1.295c-0.216,1.619-2.806,1.943-2.806,1.943S895.875,715.839,894.148,715.947z"/>
			<path style="fill:none;stroke:#72391B;stroke-width:1.8841;stroke-linecap:round;stroke-miterlimit:10;" d="M795.078,709.148
				c0.324-0.432,5.828-0.324,5.072-0.108c-0.755,0.216-4.749,2.158-4.101,2.158c0.647,0,5.504-0.108,4.425,0.54
				c-1.079,0.648-4.641,1.835-4.101,1.835s3.561,0.863,3.561,0.863"/>
			<path style="fill:none;stroke:#72391B;stroke-width:1.8841;stroke-linecap:round;stroke-miterlimit:10;" d="M889.615,707.853
				c0.324-0.432,5.828-0.324,5.072-0.108c-0.755,0.216-4.748,2.158-4.101,2.158c0.648,0,5.504-0.108,4.425,0.54
				c-1.079,0.648-4.641,1.835-4.101,1.835s3.561,0.863,3.561,0.863"/>
		</g>
		<g>
			<path style="fill:#3F2225;" d="M192.242,715.947c-1.332,0.083-3.453-11.655-3.453-11.655s-5.396,1.295-3.885-1.079
				c1.511-2.374,9.523-3.11,9.281-1.295c-0.216,1.619-2.806,1.943-2.806,1.943S193.969,715.839,192.242,715.947z"/>
			<path style="fill:none;stroke:#72391B;stroke-width:1.8841;stroke-linecap:round;stroke-miterlimit:10;" d="M187.71,706.558
				c0.324-0.432,5.828-0.324,5.072-0.108c-0.755,0.216-4.748,2.158-4.101,2.158c0.648,0,5.504-0.108,4.425,0.54
				c-1.079,0.648-4.641,1.835-4.101,1.835s3.561,0.863,3.561,0.863"/>
		</g>
		<g>
			<rect x="387.818" y="577.31" style="fill:#36394F;" width="130.755" height="130.276"/>
			<path style="fill:#A57B4E;" d="M515.367,596.973c0,0-0.17,0-0.49,0c-8.54-0.04-125.87-0.54-126.01-0.56
				c-2.03-0.12-3.95-1.22-5.48-2.93c-0.59-0.64-1.11-1.37-1.57-2.16c-1.18-2.07-1.92-4.61-1.92-7.33c0-6.52,2.56-12.13,8.22-12.43
				c0,0,126.62,0.47,126.32,0.53c-2.67,0.39-3.67,16.18-1.37,22.4C513.607,596.013,514.387,596.973,515.367,596.973z"/>
			<path style="opacity:0.26;fill:#3F2225;" d="M514.877,596.973c-8.54-0.04-125.87-0.54-126.01-0.56
				c-2.03-0.12-3.95-1.22-5.48-2.93h125.31l4.37,2.09C513.517,596.822,514.127,596.962,514.877,596.973z"/>
			<path style="fill:#3F2225;" d="M494.405,570.756c0,0-5.495,3.297-4.867,13.346c0.628,10.048,3.611,13.188,3.611,13.188
				l-6.123-0.157c0,0-3.454-6.908-3.14-15.073c0.314-8.164,4.71-11.618,4.71-11.618L494.405,570.756z"/>
			<path style="fill:#3F2225;" d="M410.093,571c0,0-5.966,2.832-5.338,12.881c0.628,10.048,4.082,12.76,4.082,12.76l-6.594-0.313
				c0,0-3.454-6.227-3.14-14.391c0.314-8.164,4.71-10.937,4.71-10.937H410.093z"/>
			<g>
				<path style="fill:#997145;" d="M524.393,584.333c0,6.375-3.371,11.651-7.74,12.518c-0.43,0.087-0.86,0.13-1.29,0.13
					c-4.954,0-8.962-5.566-9.031-12.475c0.017-1.677,0.275-3.296,0.705-4.785c1.376-4.582,4.593-7.864,8.325-7.864
					c0.43,0,0.86-0.13,1.29-0.044C521.022,572.682,524.393,577.958,524.393,584.333z"/>
				<path style="fill:#F9D754;" d="M516.438,594.143c0,0-0.202-0.032-0.569-0.149c-0.364-0.119-0.903-0.319-1.512-0.719
					c-0.61-0.392-1.304-0.966-1.942-1.773c-0.633-0.803-1.23-1.837-1.578-3.06c-0.167-0.608-0.349-1.252-0.423-1.928l-0.071-0.512
					l-0.034-0.278l-0.014-0.254c-0.018-0.339-0.037-0.684-0.056-1.033c-0.01-1.472,0.095-3.02,0.661-4.57
					c0.551-1.522,1.537-3.099,3.153-4.007c0.803-0.422,1.707-0.785,2.754-0.646c1.22,0.249,1.905,0.938,2.485,1.677
					c1.079,1.524,1.472,3.285,1.612,4.961c0.124,1.695-0.082,3.317-0.403,4.882c-0.078,0.353-0.192,0.78-0.335,1.168
					c-0.139,0.387-0.315,0.77-0.561,1.133c-0.25,0.358-0.567,0.713-1.017,0.944c-0.446,0.237-1.005,0.274-1.452,0.146
					c-0.907-0.266-1.447-0.876-1.873-1.454c-0.413-0.598-0.689-1.231-0.875-1.858c-0.371-1.256-0.308-2.518,0.102-3.509
					c0.186-0.447,0.378-0.91,0.668-1.283c0.132-0.185,0.303-0.367,0.533-0.465c0.224-0.134,0.515-0.047,0.688,0.057
					c0.341,0.25,0.475,0.562,0.593,0.818c0.117,0.259,0.181,0.49,0.233,0.675c0.102,0.373,0.094,0.581,0.094,0.581
					s-0.022-0.205-0.174-0.554c-0.154-0.321-0.387-0.912-0.903-1.262c-0.26-0.141-0.514,0.048-0.714,0.395
					c-0.205,0.331-0.334,0.751-0.478,1.237c-0.253,0.881-0.192,1.971,0.201,3.034c0.202,0.529,0.485,1.055,0.859,1.513
					c0.368,0.447,0.85,0.865,1.319,0.953c0.875,0.26,1.527-1.173,1.76-2.559c0.255-1.428,0.359-2.971,0.246-4.475
					c-0.132-1.493-0.534-3.019-1.365-4.159l-0.327-0.395c-0.124-0.105-0.237-0.232-0.363-0.326c-0.23-0.179-0.571-0.342-0.707-0.366
					c-0.567-0.117-1.277,0.126-1.87,0.436c-1.215,0.67-2.096,1.876-2.611,3.184c-0.523,1.31-0.912,2.749-0.976,4.063
					c0,0.35-0.195,0.695-0.195,1.035v0.254l0.211,0.223l0.129,0.478c0.02,0.638,0.192,1.237,0.302,1.813
					c0.246,1.15,0.71,2.146,1.215,2.958c0.511,0.811,1.119,1.424,1.662,1.861c0.547,0.435,1.032,0.723,1.375,0.885
					C516.236,594.083,516.438,594.143,516.438,594.143z"/>
			</g>
			<g>
				<defs>
					
						<rect id="SVGID_00000069386786551082277050000013466302850646396593_" x="385.875" y="531.404" width="130.755" height="176.183"/>
				</defs>
				<clipPath id="SVGID_00000065076322962464143870000012543781865429650101_">
					<use xlink:href="#SVGID_00000069386786551082277050000013466302850646396593_"  style="overflow:visible;"/>
				</clipPath>
				<g style="clip-path:url(#SVGID_00000065076322962464143870000012543781865429650101_);">
					<path style="fill:#1E9FB3;" d="M472.356,703.104h-34.922v-14.245h46.945v2.223
						C484.379,697.721,478.996,703.104,472.356,703.104z"/>
					<g>
						<path style="fill:#2C6470;" d="M438.081,688.373l-8.418,5.342c-3.441,1.478-4.836,6.312-4.836,10.056v0
							c0,5.174,4.195,9.369,9.369,9.369l19.425-0.324v-11.655l-4.452-12.869C449.17,688.292,438.081,688.146,438.081,688.373z"/>
					</g>
					<g>
						<g>
							<polygon style="fill:#F9C8C0;" points="478.551,712.277 477.256,701.054 444.783,700.838 445.009,712.574 							"/>
							<path style="fill:#FFFFFF;" d="M486.563,718.662l-0.343-17.796l-9.063,0.175l0.189,9.789c0.089,4.637,3.8,7.937,8.861,7.839
								L486.563,718.662z"/>
						</g>
						
							<rect x="475.654" y="709.09" transform="matrix(-0.0376 -0.9993 0.9993 -0.0376 -206.1385 1222.1823)" style="fill:#242B57;" width="19.586" height="2.527"/>
					</g>
					<path style="fill:#1E9FB3;" d="M448.873,688.158l-8.418,5.342c-3.44,1.478-4.836,6.312-4.836,10.057l0,0
						c0,5.174,4.195,9.369,9.369,9.369l19.425-0.324l0.297-12.492C464.71,700.109,448.873,687.672,448.873,688.158z"/>
					<g>
						<g>
							<path style="fill:#F9C8C0;" d="M406.467,597.937l-1.189-6.119c-0.361-1.859-2.177-3.084-4.036-2.723l-3.711,0.721
								c-1.859,0.361-3.084,2.177-2.723,4.036l1.189,6.119c0.361,1.859,2.177,3.084,4.036,2.723l3.711-0.721
								C405.603,601.612,406.828,599.796,406.467,597.937z"/>
							<path style="fill:#F9C8C0;" d="M398.103,595.532l-2.073-10.668c-0.151-0.779-0.913-1.293-1.692-1.141l0,0
								c-0.779,0.151-1.293,0.913-1.141,1.692l2.073,10.668c0.151,0.779,0.913,1.293,1.692,1.141l0,0
								C397.741,597.072,398.255,596.311,398.103,595.532z"/>
							<path style="fill:#F9C8C0;" d="M401.096,592.101l-1.664-8.566c-0.151-0.779-0.913-1.293-1.692-1.141l0,0
								c-0.779,0.151-1.293,0.913-1.141,1.692l1.664,8.566c0.151,0.779,0.913,1.293,1.692,1.141l0,0
								C400.734,593.642,401.247,592.88,401.096,592.101z"/>
							<path style="fill:#F9C8C0;" d="M405.237,592.763l-1.97-10.139c-0.151-0.779-0.913-1.293-1.692-1.141l0,0
								c-0.779,0.151-1.293,0.913-1.141,1.692l1.97,10.139c0.151,0.779,0.913,1.293,1.692,1.141l0,0
								C404.875,594.303,405.388,593.542,405.237,592.763z"/>
							<path style="fill:#F9C8C0;" d="M405.241,599.528l3.202-9.819c0.246-0.755-0.17-1.573-0.925-1.819l0,0
								c-0.755-0.246-1.573,0.17-1.819,0.924l-3.202,9.819c-0.246,0.755,0.17,1.573,0.925,1.819l0,0
								C404.176,600.699,404.995,600.283,405.241,599.528z"/>
						</g>
						
							<path style="fill:none;stroke:#F9C8C0;stroke-width:10.9322;stroke-linecap:round;stroke-linejoin:round;stroke-miterlimit:10;" d="
							M447.384,627.203c0,0-16.705-6.933-24.415-11.251c-9.591-5.372-20.982-17.16-20.982-17.16"/>
					</g>
					<path style="fill:#EA524E;" d="M430.022,629.704l5.58-15.993l16.077,3.921c4.416,1.541,3.926,7.074,2.385,11.49l0,0
						c-1.541,4.416-6.37,6.747-10.787,5.207L430.022,629.704z"/>
					<path style="fill:#EA524E;" d="M484.217,693.23L438,688.292l3.966-46.378c0-14.17,6.887-29.138,20.223-29.138h0
						c13.336,0,24.146,11.487,24.146,25.657L484.217,693.23z"/>
					<path style="fill:#FFFFFF;" d="M452.866,615.418c-0.225,0.254-0.065,0.673-0.065,1.023c0,4.649,3.769,8.418,8.418,8.418
						c4.649,0,8.698-3.449,8.418-8.418c0-0.894-0.142-1.748-0.388-2.551C469.248,613.89,458.262,609.323,452.866,615.418z"/>
					<path style="fill:#302866;" d="M453.159,604.04l-4.349-2.215c-15.888-8.093-22.207-27.534-14.113-43.421l1.258-2.47
						c8.093-15.888,27.534-22.206,43.422-14.113l4.349,2.215c15.888,8.093,22.206,27.534,14.113,43.422l-1.258,2.47
						C488.487,605.814,469.047,612.133,453.159,604.04z"/>
					<path style="fill:#F9C8C0;" d="M431.457,563.044l-2.519,9.064c-0.153,0.552-0.014,1.166-0.144,1.706
						c-0.85,3.888-0.824,7.974-0.195,11.716c1.88,11.457,10.318,21.583,22.195,24.884l0.979,0.272
						c16.293,4.529,33.775-5.291,38.304-21.584l2.519-9.064c4.529-16.294-5.801-32.2-22.095-36.729l-0.979-0.272
						C453.228,538.508,435.986,546.751,431.457,563.044z"/>
					<rect x="466.442" y="584.393" style="fill:#F59082;" width="0" height="0"/>
					<path style="opacity:0.66;fill:#F59082;" d="M446.159,582.243l3.972,1.104c0.626,0.174,1.274-0.192,1.448-0.818l0.064-0.229
						c0.174-0.626-0.192-1.274-0.818-1.448l-3.972-1.104c-0.626-0.174-1.274,0.192-1.448,0.818l-0.064,0.229
						C445.167,581.421,445.533,582.069,446.159,582.243z"/>
					<path style="opacity:0.66;fill:#F59082;" d="M463.064,588.835c-0.854,3.073,0.945,6.257,4.018,7.112
						c3.073,0.854,6.257-0.945,7.112-4.018c0.854-3.073-0.945-6.257-4.018-7.111C467.102,583.963,463.918,585.762,463.064,588.835z"
						/>
					<path style="opacity:0.66;fill:#F59082;" d="M429.064,573.888c-0.85,3.888-0.916,7.783-0.288,11.526
						c2.69,0.191,5.219-1.523,5.966-4.211c0.856-3.081-0.949-6.249-4.029-7.105C430.161,573.944,429.607,573.867,429.064,573.888z"
						/>
					<path style="fill:#F9C8C0;" d="M461.401,622.489h-0.038c3.245,0,5.684-2.701,5.684-5.946v-13.479h-11.655v13.479
						C455.392,619.787,458.156,622.489,461.401,622.489z"/>
					<path style="fill:#302866;" d="M457.319,557.521l-22.888-7.739c-3.293-1.113-4.912-4.308-3.599-7.099l0,0
						c1.313-2.791,5.082-4.164,8.374-3.051l22.888,7.739c3.293,1.113,4.912,4.308,3.599,7.099l0,0
						C464.38,557.262,460.611,558.635,457.319,557.521z"/>
					<path style="fill:#302866;" d="M461.435,560.327l14.243,6.409c6.812,3.065,10.581,10.45,9.068,17.765v0l2.59,14.245
						c0,0,7.339-6.043,10.36-19.425c3.022-13.382-14.575-50.29-49.109-35.613L461.435,560.327z"/>
					<path style="fill:#302866;" d="M470.467,564.357c-6.75-2.25-40.845-5.702-40.845-5.702c-3.023-0.344-5.165-2.722-4.759-5.285v0
						c0.405-2.563,3.211-4.378,6.234-4.035l34.276,3.897c3.023,0.344,5.165,2.722,4.759,5.285l0,0
						C469.726,561.081,476.729,566.445,470.467,564.357z"/>
					<g>
						<path style="fill:#72391B;" d="M440.68,572.377l-0.083-0.023c-0.84-0.235-1.335-1.115-1.1-1.955l0.808-2.89
							c0.235-0.84,1.115-1.335,1.955-1.1l0.083,0.023c0.84,0.235,1.335,1.115,1.1,1.955l-0.808,2.89
							C442.4,572.117,441.52,572.612,440.68,572.377z"/>
						<path style="fill:#72391B;" d="M461.435,579.247l-0.083-0.023c-0.84-0.235-1.335-1.115-1.1-1.955l0.808-2.89
							c0.235-0.84,1.114-1.335,1.954-1.1l0.083,0.023c0.84,0.235,1.335,1.115,1.1,1.955l-0.808,2.89
							C463.155,578.987,462.275,579.482,461.435,579.247z"/>
					</g>
					<circle style="fill:#F9C8C0;" cx="487.12" cy="590.437" r="6.151"/>
					
						<path style="fill:none;stroke:#F59082;stroke-width:1.295;stroke-linecap:round;stroke-linejoin:round;stroke-miterlimit:10;" d="
						M445.594,593.509c0,0,6.563,1.994,11.824-4.201"/>
					<g>
						<path style="fill:#F9C8C0;" d="M481.367,681.432l-2.382,5.76c-0.723,1.75,0.116,3.773,1.866,4.497l3.494,1.445
							c1.75,0.724,3.773-0.116,4.497-1.866l2.382-5.76c0.723-1.75-0.116-3.773-1.866-4.497l-3.494-1.445
							C484.115,678.843,482.091,679.683,481.367,681.432z"/>
						<path style="fill:#F9C8C0;" d="M487.019,688.051l-4.153,10.043c-0.303,0.733,0.049,1.582,0.782,1.885l0,0
							c0.733,0.303,1.582-0.049,1.885-0.782l4.153-10.043c0.303-0.734-0.049-1.582-0.782-1.885l0,0
							C488.171,686.966,487.322,687.318,487.019,688.051z"/>
						<path style="fill:#F9C8C0;" d="M482.102,689.616l-3.334,8.064c-0.303,0.733,0.049,1.582,0.782,1.885l0,0
							c0.733,0.303,1.582-0.049,1.885-0.782l3.334-8.064c0.303-0.734-0.049-1.582-0.782-1.885l0,0
							C483.254,688.531,482.405,688.883,482.102,689.616z"/>
						<path style="fill:#F9C8C0;" d="M479.572,686.516l-3.947,9.545c-0.303,0.733,0.049,1.582,0.782,1.885l0,0
							c0.733,0.303,1.582-0.049,1.885-0.782l3.947-9.545c0.303-0.733-0.049-1.582-0.782-1.885l0,0
							C480.723,685.431,479.875,685.783,479.572,686.516z"/>
						<path style="fill:#F9C8C0;" d="M483.942,681.526l-8.281,6.172c-0.636,0.474-0.769,1.383-0.295,2.019l0,0
							c0.474,0.636,1.383,0.769,2.019,0.295l8.281-6.173c0.636-0.474,0.769-1.383,0.295-2.019l0,0
							C485.487,681.184,484.578,681.052,483.942,681.526z"/>
					</g>
					
						<path style="fill:none;stroke:#F9C8C0;stroke-width:10.9322;stroke-linecap:round;stroke-linejoin:round;stroke-miterlimit:10;" d="
						M478.022,630.175c0,0,8.163,11.327,9.66,27.229c1.159,12.313-1.491,25.698-1.491,25.698"/>
					<path style="fill:#EA524E;" d="M490.706,639.557l-14.542,6.748l-6.589-14.198c-1.863-4.016-0.119-8.781,3.897-10.645
						l-3.339-4.801c4.016-1.864,9.065,1.943,12.95,8.202C485.266,628.379,490.706,639.557,490.706,639.557z"/>
				</g>
			</g>
			<polygon style="fill:#FFFFFF;" points="458.596,627.438 461.662,637.443 469.784,639.524 463.361,646.762 464.094,657.594 
				457.058,652.062 449.389,656.675 451.464,646.019 445.991,638.038 454.309,636.984 			"/>
		</g>
	</g>
</g>
<g>
	<g>
		<polygon style="fill:#427050;" points="890.747,871.52 900,863.14 900,900 0,900 0,857.22 14.687,843.9 6.877,871.52 
			37.337,843.9 29.537,871.52 59.997,843.9 52.197,871.52 82.657,843.9 74.847,871.52 105.307,843.9 97.497,871.52 127.957,843.9 
			120.157,871.52 150.617,843.9 142.817,871.52 173.277,843.9 165.477,871.52 195.927,843.9 188.127,871.52 218.587,843.9 
			210.787,871.52 241.247,843.9 233.447,871.52 263.907,843.9 256.107,871.52 286.557,843.9 278.767,871.52 309.227,843.9 
			301.427,871.52 331.887,843.9 324.087,871.52 354.547,843.9 346.747,871.52 377.207,843.9 369.407,871.52 399.867,843.9 
			392.077,871.52 422.527,843.9 414.727,871.52 445.167,843.9 437.357,871.52 467.807,843.9 460.007,871.52 490.467,843.9 
			482.667,871.52 513.127,843.9 505.317,871.52 535.767,843.9 527.967,871.52 558.427,843.9 550.637,871.52 581.087,843.9 
			573.287,871.52 603.747,843.9 595.957,871.52 626.417,843.9 618.617,871.52 649.077,843.9 641.297,871.52 671.747,843.9 
			663.957,871.52 694.427,843.9 686.627,871.52 717.097,843.9 709.307,871.52 739.777,843.9 731.987,871.52 762.447,843.9 
			754.667,871.52 785.127,843.9 777.327,871.52 807.797,843.9 799.997,871.52 830.467,843.9 822.677,871.52 853.147,843.9 
			845.367,871.52 875.837,843.9 868.057,871.52 900,843.9 		"/>
	</g>
</g>
</svg>
