<?xml version="1.0" encoding="utf-8"?>
<!-- Generator: Adobe Illustrator 27.5.0, SVG Export Plug-In . SVG Version: 6.00 Build 0)  -->
<svg version="1.1" id="_x2018_ëîé_x5F_1" xmlns="http://www.w3.org/2000/svg" xmlns:xlink="http://www.w3.org/1999/xlink"
	 x="0px" y="0px" viewBox="0 0 3200 2000" style="enable-background:new 0 0 3200 2000;" xml:space="preserve">
<g>
	<path style="fill:#244684;" d="M3057.344,1180.229c-0.68,25.349-2.301,52.919-4.915,81.823c-0.589,6.563-1.229,13.204-1.922,19.897
		c-0.026,0.248-0.052,0.497-0.079,0.758c-2.705,26.133-6.195,53.155-10.471,80.464c-0.563,3.543-1.124,7.086-1.713,10.629
		c-0.431,2.666-0.875,5.347-1.333,8.014c-3.778,22.25-8.065,44.604-12.903,66.725c-1.242,5.686-2.51,11.373-3.83,17.021
		c-4.131,17.766-8.602,35.31-13.439,52.487c-1.216,4.275-2.444,8.537-3.699,12.772c-0.706,2.405-1.425,4.824-2.157,7.217
		c-5.726,18.838-11.896,37.127-18.524,54.618c-1.333,3.543-2.706,7.047-4.078,10.524c-0.223,0.562-0.458,1.137-0.68,1.699
		c-9.374,23.439-19.623,45.284-30.774,64.907c-3.099,5.49-6.288,10.812-9.543,15.936c-15.427,24.342-32.435,44.448-51.037,58.854
		c-1.961,1.529-3.948,2.993-5.948,4.38c-3.203,2.248-6.458,4.326-9.766,6.209c-1.215,0.706-2.444,1.373-3.686,2.026
		c-0.079,0.053-0.157,0.092-0.223,0.118c-0.157,0.078-0.301,0.156-0.458,0.234c-0.222,0.131-0.47,0.249-0.706,0.366
		c-3.216,1.661-6.471,3.151-9.766,4.458l-34.12,0.196l-145.828,0.862l-48.54,0.288l-206.174,1.216l-56.867,0.34l-626.873-2.013
		l-903.17-2.863l-3.634-0.014l-494.68-1.568c0,0-123.696-85.941-175.491-267.224C73.08,1186.27,118.627,632.212,592.625,538.976
		c518.459-101.982,319.516-391.025,921.733-345.165c237.627,18.093,382.789,240.059,566.438,192.198
		c457.003-119.081,676.054,35.232,809.907,226.384c10.08,14.393,19.675,28.982,28.852,43.69v0.013l0.916,1.451
		c4.353,7.059,8.588,14.197,12.707,21.44c17.072,30.054,31.963,61.704,45.01,94.53c9.164,23.087,17.426,46.735,24.891,70.829
		c0.457,1.477,0.902,2.941,1.334,4.418c0.641,2.053,1.268,4.118,1.883,6.184c0.025,0.079,0.039,0.157,0.064,0.235
		c0.013,0.013,0.013,0.039,0.013,0.052c9.753,32.669,18.094,66.11,25.297,99.89c1.229,5.765,2.419,11.531,3.582,17.296v0.013
		c0.196,0.954,0.379,1.896,0.562,2.85c1.517,7.556,2.968,15.112,4.367,22.694v0.013c1.15,6.17,2.261,12.315,3.333,18.486
		c1.138,6.51,2.235,13.007,3.308,19.504c0.366,2.235,0.732,4.472,1.085,6.707v0.013c1.935,12.079,3.765,24.159,5.491,36.238
		c0.261,1.844,0.522,3.726,0.758,5.674c1.006,8.105,1.791,17.008,2.379,26.643c0.145,2.483,0.275,5.007,0.393,7.582
		c0.053,0.98,0.092,1.975,0.131,2.98C3057.814,1139.402,3057.906,1159.038,3057.344,1180.229z"/>
	<g>
		<path style="fill:#243F73;" d="M2978.279,1603.179c-0.223,0.562-0.458,1.137-0.68,1.699
			c-9.374,23.439-19.623,45.284-30.774,64.907c-3.099,5.49-6.288,10.812-9.543,15.936c-15.427,24.342-32.435,44.448-51.037,58.854
			c-1.961,1.529-3.948,2.993-5.948,4.38c-3.203,2.248-6.458,4.326-9.766,6.209h-131.317c0,0-106.361-1.242-144.299-10.654
			c-37.925-9.412-95.969-1.138-164.405,12.707c-68.449,13.844-145.854-59.155-173.713-63.874
			c-27.846-4.72-36.813,28.786-36.813,28.786c-6.615-8.497-3.308-26.434-3.308-26.434c-11.321,1.896-23.597,20.773-23.597,20.773
			c-2.366-11.806,7.556-26.434,7.556-26.434c-16.053,0.941-27.061,9.752-27.061,9.752s5.817-32.408,54.018-43.167
			c48.199-10.759,131.605,40.474,159.49,40.029c49.755-0.797,59.86-15.125,54.893-31.44c-6.68-21.988-40.709-47.572-42.056-48.578
			h-0.013c-0.014-0.014-0.026-0.026-0.026-0.026h0.013l77.092-36.042l13.033-6.079l157.438-73.575l29.467-13.778l0.811-0.379
			c0.025,0,0.052,0.026,0.078,0.052c153.698,96.832,249.98,47.625,249.98,47.625L2978.279,1603.179z"/>
		<g>
			<path style="fill:#243F73;" d="M2385.984,1590.467c-43.563-87.641,63.685-141.182,158.749-141.182
				s197.596,46.684,156.047,137.334c-33.54,73.177-62.581,99.613-157.646,99.613S2421.967,1662.854,2385.984,1590.467z"/>
			<path style="fill:#243F73;" d="M2498.205,1419.5c11.01-22.643-15.413-66.117-15.413-66.117
				c-3.303,23.097-33.028,46.191-59.451,77.414c-26.423,31.222-7.875,80.398-7.875,80.398h8.976l80.742-55.5
				C2505.184,1455.695,2487.196,1442.143,2498.205,1419.5z"/>
			<path style="fill:#243F73;" d="M2588.663,1419.5c-11.01-22.643,15.413-66.117,15.413-66.117
				c3.303,23.097,33.028,46.191,59.451,77.414c26.423,31.222,7.875,80.398,7.875,80.398h-8.977l-80.742-55.5
				C2581.684,1455.695,2599.672,1442.143,2588.663,1419.5z"/>
		</g>
		<g>
			<path style="fill:#F1A34F;" d="M2543.135,1585.632c0,0,32.444-11.854,51.786-29.948l-18.718,32.443L2543.135,1585.632z"/>
			<path style="fill:#F1A34F;" d="M2514.421,1585.632c0,0-32.444-11.854-51.786-29.948l18.718,32.443L2514.421,1585.632z"/>
		</g>
	</g>
	<path style="fill:#243F73;" d="M820.158,905.607c0,0,64.374,3.402,82.022-86.904c17.647-90.307,48.34-151.879,106.452-163.645
		c58.113-11.766,73.365,6.101,73.365,6.101s-27.017,5.298-33.118,17.465c0,0,29.632,1.602,37.476,8.628
		c0,0-32.029,3.011-37.912,12.208c0,0,23.216,2.661,29.256,12.465c0,0-44.944,8.137-44.944,35.443
		c0,27.307,28.107,130.724,0.654,149.609C1005.957,915.864,820.158,905.607,820.158,905.607z"/>
	<path style="fill:#243F73;" d="M413.216,933.104c0,0-24.189,49.794-126.158,97.273c-101.969,47.479-122.886,246.188-26.146,348.156
		s380.007-1.36,446.233,113.055c66.226,114.414,170.809,162.376,275.393,126.629c104.583-35.746,258.695,3.396,386.884-34.477
		c128.19-37.874,184.019-124.155,184.019-124.155L413.216,933.104z"/>
	<g>
		<g>
			<path style="fill:#243F73;" d="M2765.563,1405.068c-25.271-61.801,36.942-99.555,92.09-99.555
				c55.146,0,114.624,32.92,90.522,96.841c-19.457,51.601-36.304,70.242-91.45,70.242
				C2801.578,1472.597,2786.437,1456.112,2765.563,1405.068z"/>
			<path style="fill:#243F73;" d="M2830.662,1284.512c6.387-15.967-8.941-46.623-8.941-46.623
				c-1.916,16.286-19.16,32.572-34.487,54.588c-15.328,22.017-4.568,56.693-4.568,56.693h5.207l46.839-39.136
				C2834.711,1310.034,2824.275,1300.478,2830.662,1284.512z"/>
			<path style="fill:#243F73;" d="M2883.137,1284.512c-6.387-15.967,8.941-46.623,8.941-46.623
				c1.915,16.286,19.159,32.572,34.487,54.588c15.327,22.017,4.567,56.693,4.567,56.693h-5.207l-46.838-39.136
				C2879.088,1310.034,2889.522,1300.478,2883.137,1284.512z"/>
		</g>
		<g>
			<path style="fill:#F1A34F;" d="M2849.094,1392.97c0,0,22.557-8.242,36.004-20.822l-13.014,22.557L2849.094,1392.97z"/>
			<path style="fill:#F1A34F;" d="M2829.131,1392.97c0,0-22.557-8.242-36.004-20.822l13.013,22.557L2829.131,1392.97z"/>
		</g>
	</g>
	<g style="opacity:0.5;">
		<g>
			<path style="fill:#243F73;" d="M1171.011,771.274c-60.979-149.121,89.142-240.22,222.209-240.22s276.585,79.432,218.428,233.672
				c-46.947,124.51-87.599,169.492-220.666,169.492S1221.376,894.441,1171.011,771.274z"/>
			<path style="fill:#243F73;" d="M1328.092,480.375c15.411-38.526-21.575-112.498-21.575-112.498
				c-4.624,39.297-46.232,78.594-83.217,131.718c-36.986,53.123-11.023,136.798-11.023,136.798h12.564l113.02-94.434
				C1337.86,541.96,1312.682,518.902,1328.092,480.375z"/>
			<path style="fill:#243F73;" d="M1454.71,480.375c-15.411-38.526,21.575-112.498,21.575-112.498
				c4.623,39.297,46.232,78.594,83.217,131.718c36.985,53.123,11.023,136.798,11.023,136.798h-12.564l-113.02-94.434
				C1444.941,541.96,1470.12,518.902,1454.71,480.375z"/>
		</g>
	</g>
	<g>
		<path style="fill:#243F73;" d="M538.221,893.587c-41.294-100.982,60.365-162.672,150.476-162.672
			c90.11,0,187.298,53.79,147.914,158.238c-31.792,84.316-59.32,114.776-149.43,114.776
			C597.071,1003.93,572.328,976.994,538.221,893.587z"/>
		<path style="fill:#243F73;" d="M644.594,696.597c10.435-26.09-14.61-76.182-14.61-76.182
			c-3.131,26.611-31.307,53.223-56.353,89.197c-25.046,35.974-7.465,92.637-7.465,92.637h8.508l76.535-63.949
			C651.208,738.3,634.158,722.686,644.594,696.597z"/>
		<path style="fill:#243F73;" d="M730.337,696.597c-10.436-26.09,14.61-76.182,14.61-76.182
			c3.131,26.611,31.308,53.223,56.354,89.197c25.045,35.974,7.464,92.637,7.464,92.637h-8.508L723.722,738.3
			C723.722,738.3,740.772,722.686,730.337,696.597z"/>
	</g>
	<path style="fill:#233862;" d="M3004.412,848.765c-20.669,22.159-29.61,56.436-74.66,82.909
		c-54.984,32.303-149.279-55.468-149.279-55.468c45.467-6.21,106.479-61.338,102.832-76.32
		c-3.648-14.969-108.493,35.598-126.848,39.14c-18.354,3.556-62.449-15.91-75.313-89.968
		c-12.852-74.071,107.707-105.263,107.707-105.263s128.991,79.954,152.209,72.463c23.178-7.491-96.962-89.889-96.962-89.889
		c10.589-6.236,27.453-10.746,46.604-13.975c10.08,14.393,19.675,28.982,28.852,43.69v0.013l0.916,1.451
		c4.353,7.059,8.588,14.197,12.707,21.44c17.072,30.054,31.963,61.704,45.01,94.53c9.164,23.087,17.426,46.735,24.891,70.829
		C3003.535,845.824,3003.98,847.288,3004.412,848.765z"/>
	<path style="fill:#2E3552;" d="M3029.451,1775.299H177.417c-2.711,0-4.929-2.218-4.929-4.929v-7.685
		c0-2.711,2.218-4.929,4.929-4.929h2852.035c2.711,0,4.929,2.218,4.929,4.929v7.685
		C3034.38,1773.081,3032.162,1775.299,3029.451,1775.299z"/>
	<g>
		<g>
			<g>
				<path style="fill:#3358A0;" d="M1801.138,1493.018l41.545,90.723v0.015l80.044,174.798c1.357,2.945,4.303,4.847,7.548,4.847
					h0.658c5.875,0,10.121-5.604,8.549-11.266l-63.546-227.38l-9.264-33.166L1801.138,1493.018z"/>
			</g>
			<path style="fill:#233862;" d="M1842.683,1583.74c-3.96-41.259,33.253-58.986,33.253-58.986l-9.264-33.166l-65.534,1.43
				L1842.683,1583.74z"/>
		</g>
		<g>
			<g>
				<path style="fill:#3358A0;" d="M2230.246,1493.018l41.545,90.723v0.015l80.044,174.798c1.357,2.945,4.303,4.847,7.548,4.847
					h0.658c5.875,0,10.121-5.604,8.549-11.266l-63.547-227.38l-9.264-33.166L2230.246,1493.018z"/>
			</g>
			<path style="fill:#233862;" d="M2271.791,1583.74c-3.96-41.259,33.252-58.986,33.252-58.986l-9.264-33.166l-65.533,1.43
				L2271.791,1583.74z"/>
		</g>
		<path style="fill:#3358A0;" d="M2368.919,1331.472v151.538c0,9.436-7.72,17.155-17.155,17.155H456.102
			c-9.435,0-17.155-7.72-17.155-17.155v-151.538c0-9.436,7.72-17.155,17.155-17.155h1895.662
			C2361.199,1314.316,2368.919,1322.036,2368.919,1331.472z"/>
		<path style="fill:#233862;" d="M524.724,1491.588l-9.264,33.166l-63.546,227.38c-1.572,5.661,2.674,11.266,8.549,11.266h0.658
			c3.245,0,6.19-1.901,7.548-4.847l80.044-174.798v-0.015l41.544-90.723L524.724,1491.588z"/>
		<path style="fill:#233862;" d="M862.819,1491.588l-9.264,33.166l-63.546,227.38c-1.573,5.661,2.673,11.266,8.549,11.266h0.658
			c3.246,0,6.19-1.901,7.548-4.847l80.044-174.798v-0.015l41.544-90.723L862.819,1491.588z"/>
		<path style="fill:#233862;" d="M1143.791,853.982H431.756c-10.197,0-18.54,8.343-18.54,18.54v609.103
			c0,10.197,8.343,18.54,18.54,18.54h712.035c10.197,0,18.541-8.343,18.541-18.54V872.522
			C1162.331,862.325,1153.988,853.982,1143.791,853.982z"/>
		<path style="fill:#4A75CB;" d="M1188.066,871.137v518.948c0,9.436-7.72,17.155-17.155,17.155H456.106
			c-9.436,0-17.155-7.72-17.155-17.155V871.137c0-9.435,7.72-17.155,17.155-17.155h714.805
			C1180.346,853.982,1188.066,861.702,1188.066,871.137z"/>
		<path style="fill:#273F76;" d="M575.149,1363.881c0,0-131.524-10.494-136.199-13.725V1229.44
			c27.734-26.233,82.188-56.084,82.188-56.084L575.149,1363.881z"/>
		<g>
			<path style="fill:#273F76;" d="M614.789,1008.38c0-5.527,4.48-10.007,10.007-10.007c5.527,0,10.007,4.48,10.007,10.007
				c0,5.526-4.481,10.007-10.007,10.007C619.269,1018.387,614.789,1013.906,614.789,1008.38z"/>
			<path style="fill:#273F76;" d="M1015.08,1008.38c0-5.527,4.48-10.007,10.007-10.007s10.007,4.48,10.007,10.007
				c0,5.526-4.48,10.007-10.007,10.007S1015.08,1013.906,1015.08,1008.38z"/>
			<path style="fill:#273F76;" d="M614.789,1197.088c0-5.526,4.48-10.007,10.007-10.007c5.527,0,10.007,4.48,10.007,10.007
				c0,5.527-4.481,10.008-10.007,10.008C619.269,1207.096,614.789,1202.615,614.789,1197.088z"/>
			<path style="fill:#273F76;" d="M1015.08,1197.088c0-5.526,4.48-10.007,10.007-10.007s10.007,4.48,10.007,10.007
				c0,5.527-4.48,10.008-10.007,10.008S1015.08,1202.615,1015.08,1197.088z"/>
		</g>
		<path style="fill:#233862;" d="M1735.603,1331.472v151.538c0,9.436-7.829,17.155-17.399,17.155H437.908
			c-9.569,0-17.399-7.72-17.399-17.155v-151.538c0-9.436,7.83-17.155,17.399-17.155h1280.295
			C1727.773,1314.316,1735.603,1322.036,1735.603,1331.472z"/>
		<g>
			<path style="fill:#4A75CB;" d="M521.134,1173.359c0,0-25.571,89.967,36.857,141.055l149.155-0.574
				C707.146,1313.84,555.921,1192.421,521.134,1173.359z"/>
			<path style="fill:#6D94CC;" d="M521.134,1173.359c0,0,131.524-32.881,225.878-37.17c0,0,90.215,76.723,101.652,178.225h-160.58
				C688.084,1314.414,569.264,1288.583,521.134,1173.359z"/>
		</g>
	</g>
	<g>
		<path style="fill:#233862;" d="M2190.596,1316.616l-1466.298-2.973c0,0,27.771-67.662,127.146-91.197
			c99.376-23.535,428.862-492.226,484.758-573.244c34.655-50.227,29.668-98.701,116.439-70.668
			c218.749,70.668,350.076,39.686,350.096,39.686c51.835-5.55,52.754-36.081,106.884-16.253
			c133.894,49.031,90.385,365.072,192.369,423.458c101.984,58.387,181.192,142.275,185.115,218.764
			C2291.027,1320.676,2190.596,1316.616,2190.596,1316.616z"/>
		<g>
			<path style="fill:#FFB27D;" d="M1736.541,918.522l10.576,117.285c0,0,50.697,13.109,52.678,8.717s-12.668-111.573-14.24-112.452
				C1783.981,931.193,1736.541,918.522,1736.541,918.522z"/>
			<path style="fill:#5B78D3;" d="M1754.331,873.103c8.274-20.962,54.688-27.127,54.688-27.127
				c29.789-8.253,60.012,2.425,70.146-12.833c0,0,75.429-15.765,102.546,16.873c17.722,21.329,39.036,126.61,39.036,126.61
				s22.451,47.646,29.531,101.253c14.356,108.69,4.328,148.554,4.328,148.554c-2.615,30.995-65.271,56.653-166.642,56.452
				c-22.792-0.049-97.026-9.359-100.114-29.86c0,0,22.652-90.728,13.781-133.221c-5.652-27.082-0.19-78.26-0.19-78.26
				c-0.002-0.006-20.755-64.008-27.345-96.929C1766.271,905.513,1747.512,890.379,1754.331,873.103z"/>
			<path style="fill:#35497C;" d="M1816.484,1037.495c0,0,4.854-28.39,34.833-33.319c68.525-11.269,198.858,140.5,217.308,175.642
				c18.449,35.141-10.611,119.919-81.703,130.233c-34.395,4.99-142.322,8.643-152.864-5.702S1816.484,1037.495,1816.484,1037.495z"
				/>
			<path style="fill:#35497C;" d="M1700.953,1048.914c0,0,6.853-39.809,36.831-44.738c68.525-11.269,198.858,140.5,217.308,175.642
				c18.449,35.141-10.789,118.761-81.703,130.233c-46.052,7.451-142.322,8.643-152.864-5.702
				C1709.981,1290.004,1700.953,1048.914,1700.953,1048.914z"/>
			<path style="fill:#F9AB75;" d="M1814.526,1052.421l-75.487,205.355l39.756,12.818c0,0,113.24-104.796,120.493-148.772
				c6.191-37.535-16.717-93.701-60.269-91.055C1826.239,1031.544,1815.994,1040.791,1814.526,1052.421z"/>
			<path style="fill:#EA9C68;" d="M1699.755,1051.598l-29.67,206.179l37.025,18.414c0,0,73.575-149.398,73.577-182.07
				c0.001-27.016-24.093-56.711-59.761-58.721C1710.35,1034.804,1701.137,1041.995,1699.755,1051.598z"/>
			<path style="fill:#EA9C68;" d="M1670.085,1257.776c0,0-20.519,36.883-41.604,40.496c-21.084,3.613-25.827,13.608-14.846,19.229
				l47.791,0.442c25.845,0.28,47.88,0.401,47.88,0.401c12.738-8.029,6.041-32.695,0.534-47.751S1670.085,1257.776,1670.085,1257.776
				z"/>
			<path style="fill:#F9AB75;" d="M1739.039,1257.776c0,0-20.519,36.883-41.604,40.496c-21.084,3.613-21.146,14.331-10.164,19.952
				l43.109-0.28c23.571-1.5,52.925-1.432,52.925-1.432c12.739-8.03,0.996-30.862-4.511-45.918
				C1773.287,1255.539,1739.039,1257.776,1739.039,1257.776z"/>
			<path style="fill:#FFB27D;" d="M1983.678,881.596c0,0-33.148,180.122-94.505,222.291
				c-38.627,26.547-125.372,46.577-125.372,46.577l11.688-32.348c0,0,60.757-47.672,73.421-61.347
				c49.934-53.921,36.104-187.258,54.92-197.207C1922.647,849.615,1983.678,881.596,1983.678,881.596z"/>
			<g>
				<path style="fill:#FFB27D;" d="M1750.828,1115.938c0,0-26.619-11.301-46.201-4.706s-24.35,35.619-19.622,38.146
					c10.951,5.852,15.373-3.608,33.896-0.398s32.073,14.059,64.118-8.242C1812.683,1120.094,1750.828,1115.938,1750.828,1115.938z"
					/>
				<path style="fill:#FFB27D;" d="M1747.117,1116.947c0,0-19.285-14.823-22.197-17.355s-3.976,5.82,2.581,13.061
					S1747.117,1116.947,1747.117,1116.947z"/>
			</g>
			<g>
				<path style="fill:#FFB27D;" d="M1694.222,1057.328c0,0,24.997-10.611,43.386-4.418c18.389,6.192,22.866,33.448,18.427,35.82
					c-10.284,5.495-14.437-3.388-31.831-0.374c-17.395,3.015-39.057,5.396-39.935-16.599
					C1683.711,1057.81,1694.222,1057.328,1694.222,1057.328z"/>
				<path style="fill:#FFB27D;" d="M1697.707,1058.276c0,0,18.11-13.92,20.845-16.298s3.733,5.466-2.424,12.265
					C1709.971,1061.041,1697.707,1058.276,1697.707,1058.276z"/>
			</g>
			<path style="fill:#5B78D3;" d="M1865.158,941.736c0,0,15.342-84.363,48.127-87.536c32.785-3.173,63.194,11.841,70.393,27.396
				c7.197,15.554-5.541,92.645-5.541,92.645S1915.234,973.363,1865.158,941.736z"/>
			<path style="fill:#5B78D3;" d="M1770.451,857.644c0,0-52.359,24.022-35.574,97.269c0,0,35.451,33.824,65.102,21.963
				C1829.629,965.017,1770.451,857.644,1770.451,857.644z"/>
			<path style="fill:#FFB27D;" d="M1817.854,855.743c10.543,16.077,50.014,16.04,66.391,7.804
				c5.405-2.719,12.191-10.728,17.146-29.993c4.032-15.682,6.825-29.677,6.668-30.257l-5.324-1.028
				c-0.053-0.026-0.105-0.026-0.158-0.026l-67.629-13.204c-0.58,1.818-1.134,3.584-1.713,5.271
				c-0.106,0.316-0.211,0.632-0.316,0.949C1816.946,843.621,1807.733,840.298,1817.854,855.743z"/>
			<path style="fill:#EA9C68;" d="M1831.837,794.151c0,0,0.369,0.395,1.081,1.107c6.167,6.22,37.979,36.714,68.473,38.295
				c4.032-15.682,6.825-29.677,6.668-30.257l-5.324-1.028c-0.053-0.026-0.105-0.026-0.158-0.026
				c-18.476-1.871-61.093-6.932-69.342-7.933C1832.338,794.204,1831.837,794.151,1831.837,794.151z"/>
			<path style="fill:#FFB27D;" d="M1920.768,815.62c0,0-82.983,16.477-107.107-50.196c-26.035-71.954,10.483-120.926,38.423-122.645
				c55.713-3.427,86.516,19.651,94.845,42.539C1955.258,708.205,1966.53,806.931,1920.768,815.62z"/>
			<g>
				<path style="fill:#993631;" d="M1826.823,789.044c0,0-7.83-28.695-5.75-43.623c0,0-19.616-28.492-6.784-34.443
					c12.833-5.952,18.531,10.538,21.572,7.561c3.041-2.978,10.802-56.084,25.773-53.46c14.971,2.624,69.668,23.378,95.431,3.813
					s-28.432-105.639-130.938-80.07C1723.622,614.39,1737.195,727.438,1826.823,789.044z"/>
				<path style="fill:#993631;" d="M1773.809,629.57c0,0-3.71-13.864,1.783-23.261c0,0-0.591,13.377,4.287,19.65
					C1784.756,632.231,1773.809,629.57,1773.809,629.57z"/>
				<path style="fill:#993631;" d="M1776.493,620.203c0,0-12.349-2.183-18.814,7.015c0,0,9.128-5.378,17.594,1.453L1776.493,620.203
					z"/>
			</g>
			<path style="fill:#FFFFFF;" d="M1918.433,775.745c0.983,5.705,4.878,9.794,8.7,9.136c3.822-0.659,6.124-5.816,5.142-11.521
				c-0.983-5.705-4.878-9.795-8.7-9.136S1917.45,770.041,1918.433,775.745z"/>
		</g>
		<path style="fill:#6683D3;" d="M1868.813,584.117c-106.961,22.191-150.878,142.969-229.308,159.953
			c-78.449,17.004-192.65-163.771-192.65-163.771s2.04-0.628,5.786-1.765c54.718,11.375,188.03,46.933,229.421,30.799
			C1797.453,564.354,1840.411,576.63,1868.813,584.117z"/>
		<g>
			<path style="fill:#FFB27D;" d="M1549.137,838.898c0,0,15.974,15.831,22.807,48.511c6.834,32.68-29.625,156.523-25.955,180.924
				c3.671,24.401-4.153,132.158-4.153,132.158c-12.411,2.703-22.145,17.997-30.139,8.252c0,0-20.415-146.293-16.392-157.166
				C1513.058,1003.604,1549.137,838.898,1549.137,838.898z"/>
			<path style="fill:#202E51;" d="M1426.35,1082.325c0,0,194.557,116.311,196.811,181.826c0,0-39.912,28.214-113.458,24.311
				s-199.878-57.407-201.027-123.538c-1.148-66.132,25.067-100.568,25.067-100.568L1426.35,1082.325z"/>
			<path style="fill:#EA9C68;" d="M1620.851,1252.131c0,0-9.927-3.61-52.763,2.288c-56.288,7.75-27.399-13.345-61.327-9.833
				c-73.546,7.612-206.911,30.737-206.911,30.737v29.828c0,0,231.008,14.143,268.481,12.16
				C1605.805,1315.328,1633.111,1283.809,1620.851,1252.131z"/>
			<path style="fill:#2C3A64;" d="M1372.879,1082.325c0,0,154.447,85.05,196.812,165.95c0,0-39.912,44.09-113.459,40.187
				c-73.546-3.903-199.877-57.407-201.026-123.538c-1.149-66.132,25.066-100.568,25.066-100.568L1372.879,1082.325z"/>
			<path style="fill:#993631;" d="M1442.503,564.354c0,0-46.363,11.872-66.682,80.515c-13.314,44.976-32.034,30.072-45.763,71.258
				c-10.096,30.289,24.903,53.16,52.36,52.015s8.95,7.75,37.151,23.271c28.2,15.522,60.773-22.386,92.524-2.985
				c31.751,19.4,66.256,19.027,87.05-0.585c20.794-19.612,0.453-167.198-37.988-185.877
				C1522.715,583.288,1442.503,564.354,1442.503,564.354z"/>
			<path style="fill:#993631;" d="M1580.581,628.146c-0.505-1.263-21.814-51.585-74.189-69.555
				c-42.432-14.558-88.362,9.542-102.285,52.186c-13.991,42.852-16.5,100.952,51.846,133.293L1580.581,628.146z"/>
			<path style="fill:#FFB27D;" d="M1531.494,836.111l-85.482,20.6l-13.233-58.816c0,0,14.977-20.969,23.202-53.821
				c3.449-13.815,6.097-30.032,6.605-48.235l65.527,42.288c0,0-2.286,6.221-4.334,15.536c-2.196,10.067-4.097,23.746-2.509,37.08
				C1522.646,802.189,1522.953,827.618,1531.494,836.111z"/>
			<path style="opacity:0.5;fill:#ED975D;" d="M1521.245,790.734c-39.17-4.982-65.292-46.664-65.292-46.664l67.799,9.584
				C1521.556,763.722,1519.656,777.4,1521.245,790.734z"/>
			<path style="fill:#FFB27D;" d="M1542.487,770.758c0,0-80.417,12.841-101.205-52.164
				c-22.434-70.155,14.467-115.937,41.403-116.577c53.714-1.277,82.505,22.039,89.688,44.355
				C1579.556,668.689,1586.82,764.06,1542.487,770.758z"/>
			<path style="fill:#F9DDBF;" d="M1485.061,1118.18c-20.053-0.877-80.011,19.818-165.937-20.451
				c-20.872-9.781-38.853-33.373-38.853-33.373c0.536-0.891,8.487-23.366,9.231-25.569c1.89-5.581,4.386-15.047,7.218-26.843
				c0.186-0.785,0.378-1.587,0.571-2.389c0.942-3.958,1.922-8.15,2.926-12.542c12.759-55.861,18.117-102.451,23.986-136.63
				c11.467-66.786,47.901-71.329,76.132-71.28c9.926,0.017,22.799,1.632,37.373,0.826c0.124,0.261,0.247,0.522,0.387,0.789
				c2.394,4.877,5.626,10.516,9.674,16.219c9.856,13.845,16.432,22.177,36.183,26.049c21.259,4.161,37.628,0.924,41.171-10.832
				c4.797,2.546,9.204,4.972,13.229,7.299c23.905,13.73,35.933,41.505,29.714,68.334c-4.623,19.904-15.29,55.826-29.489,100.427
				C1525.852,1038.211,1501.68,1069.515,1485.061,1118.18z"/>
			<path style="fill:#993631;" d="M1513.396,614.388c0,0-4.56,72.704-76.58,86.866c-28.636,5.63-24.681-105.91,35.281-118.431
				c59.962-12.52,111.283,22.542,111.645,61.764c0.362,39.222-6.008,46.338-6.008,46.338S1563.302,614.042,1513.396,614.388z"/>
			<path style="fill:#F9DDBF;" d="M1547.797,836.111c0,0,37.223,36.261,36.569,71.236c-0.654,34.975-3.785,56.549-3.785,56.549
				s-15.948,2.615-39.095,0C1518.337,961.282,1547.797,836.111,1547.797,836.111z"/>
			<path style="fill:#FFB27D;" d="M1386.565,807.933c0,0,109.789,89.094,183.996,94.83c74.208,5.736,127.659,4.248,127.659,4.248
				l-2.806,21.482c0,0-117.792,39.803-192.142,23.5C1428.924,935.689,1268.363,858.012,1386.565,807.933z"/>
			<path style="fill:#FFB27D;" d="M1698.22,907.011c0,0,66.427-8.676,75.457-6.206c9.03,2.469-25.7,9.999-26.233,14.375
				c-0.533,4.375,2.692,32.1-54.832,14.229L1698.22,907.011z"/>
			<path style="fill:#F9DDBF;" d="M1445.972,843.577c4.149-20.992-32.611-55.403-74.487-42.158
				c-41.875,13.245-36.458,53.688-34.417,64.329c6.133,31.98,57.867,53.223,57.867,53.223S1437.6,885.938,1445.972,843.577z"/>
			<path style="fill:#FFB27D;" d="M1569.69,1248.275c0,0-42.854-11.302-116.4-3.689c-73.547,7.612-206.911,30.737-206.911,30.737
				v29.828c0,0,231.008,14.143,268.481,12.16C1552.333,1315.328,1581.951,1279.953,1569.69,1248.275z"/>
			<path style="fill:#FFFFFF;" d="M1548.9,737.374c0,4.874-2.634,8.826-5.884,8.826s-5.883-3.952-5.883-8.826
				c0-4.874,2.634-8.826,5.883-8.826S1548.9,732.5,1548.9,737.374z"/>
		</g>
		<path style="fill:#7FA2EF;" d="M1349.749,1316.864c84.944,0.32,117.225-112.194,44.22-155.62
			c-0.983-0.585-1.979-1.159-2.987-1.723c-80.676-45.109-83.621-129.147-62.701-245.515
			c20.92-116.366,114.736-353.058,182.077-353.968c0,0-91.813-62.916-201.425,91.889
			c-45.541,64.317-384.232,549.932-455.042,547.317c-70.81-2.615-225.093-9.152-183.253,115.059L1349.749,1316.864z"/>
	</g>
	<g>
		<g>
			<path style="fill:#233862;" d="M3002.673,1285.297c0,0,22.041-2.131,47.755-2.589c-2.705,26.133-6.195,53.155-10.471,80.464
				c-0.563,3.543-1.124,7.086-1.713,10.629c-0.431,2.666-0.875,5.347-1.333,8.014c-3.778,22.25-8.065,44.604-12.903,66.725
				c-3.007-2.55-6.327-4.759-10.157-6.511c-24.276-11.086-44.997-11.06-34.983,0.248c6.066,6.851,24.577,13.583,41.311,23.283
				c-4.131,17.766-8.602,35.31-13.439,52.487c-37.61-11.674-80.333-36.042-82.646-63.168c-0.118-1.438-0.235-2.824-0.354-4.145
				c-0.013-0.013-0.013-0.025,0-0.052c-2.522-29.558-2.522-29.558-2.522-29.558s-42.108-49.129-20.211-89.877v-0.013
				c3.634-6.772,9.033-13.309,16.681-19.349c0,0,39.245-23.753,71.248-21.818c0,0-24.8,41.559-31.78,66.279
				c-2.458,8.72-2.72,15.335,1.111,17.31c4.183,2.156,9.595-4.105,15.19-14.172
				C2987.482,1334.294,3002.673,1285.297,3002.673,1285.297z"/>
			<g>
				<path style="fill:#233862;" d="M3038.244,1373.801c-0.431,2.666-0.875,5.347-1.333,8.014
					c-102.884,21.557-112.911,56.814-113.173,68.868c-0.013,0.026-0.013,0.039,0,0.052c-0.064,2.628,0.354,4.145,0.354,4.145
					c-8.406,1.504-25.832,16.93-38.435,29.048c0,0.014-0.013,0.014-0.026,0.026c-3.438,3.308-6.51,6.354-8.941,8.812
					c-0.026,0.025-0.066,0.052-0.092,0.091c-1.752,1.766-3.177,3.216-4.131,4.223c-0.026,0.014-0.039,0.039-0.065,0.065
					c-0.929,0.954-1.425,1.478-1.425,1.478l5.294-14.406c0,0,0.014,0,0.026-0.014c33.898-30.067,44.919-63.076,44.919-63.076
					C2940.956,1395.554,2988.279,1381.475,3038.244,1373.801z"/>
				<path style="fill:#233862;" d="M2876.265,1484.213c0,0-48.457,35.836-51.823,99.867l8.795,0.787c0,0,15.477-66.208,43.449-92.1
					C2904.658,1466.877,2876.265,1484.213,2876.265,1484.213z"/>
			</g>
		</g>
		<g>
			<path style="fill:#233862;" d="M2721.028,1337.114c0,0,91.081-51.006,48.577-120.228c0,0-34.004-42.505-70.437-53.435
				c0,0,19.431,103.226,0,105.654s-13.358-116.584-13.358-116.584s-95.939-46.148-133.586-42.505c0,0,59.506,100.797,40.075,98.368
				s-86.224-104.44-86.224-104.44s-98.368-18.216-114.155,40.076c-15.788,58.292,9.716,87.438,24.288,91.081
				c14.573,3.644,108.083,2.429,105.654,14.573s-65.578,31.575-100.797,20.645c0,0,38.861,95.939,89.867,91.082
				s66.793-36.433,98.368-38.861s54.649,6.072,38.861,14.573c-15.787,8.501-69.222,2.785-94.725,24.467
				c-25.503,21.681-46.147,35.039,1.215,44.755c47.362,9.715,132.371,3.644,149.373-32.789S2721.028,1337.114,2721.028,1337.114z"/>
			<g>
				<path style="fill:#233862;" d="M2436.854,1162.237c0,0,255.028,82.581,284.174,174.877c0,0-1.214,41.29,24.288,88.652v18.216
					c0,0-26.717-61.936-41.29-70.436C2704.026,1373.547,2761.104,1293.395,2436.854,1162.237z"/>
				<path style="fill:#233862;" d="M2745.316,1425.767c0,0,39.33,59.724,16.908,132.424l-10.118-2.718
					c0,0,9.821-80.074-10.755-120.349C2720.774,1394.851,2745.316,1425.767,2745.316,1425.767z"/>
			</g>
		</g>
		<g>
			<path style="fill:#233862;" d="M3057.344,1180.229c-0.68,25.349-2.301,52.919-4.915,81.823
				c-12.458-7.451-24.538-13.36-39.219-14.497c-41.624-3.203-72.045,8.013-51.233,19.217c14.785,7.961,54.646,6.458,88.53,15.178
				c-0.026,0.248-0.052,0.497-0.079,0.758c-2.705,26.133-6.195,53.155-10.471,80.464c-21.623,0.863-44.801-0.222-66.502-3.687
				c-5.557-0.889-10.994-1.922-16.302-3.138c-22.825-5.163-42.893-13.347-56.148-25.1v-0.013
				c-5.491-4.851-9.805-10.315-12.668-16.446c0,0,0-0.013-0.013-0.026c-0.014-0.013-0.026-0.039-0.039-0.065
				c-0.941-2.039-1.857-4-2.732-5.869c0-0.014-0.014-0.014-0.014-0.026c-19.609-42.029-19.609-42.029-19.609-42.029
				s-120.062-67.234-64.031-158.483c0,0,44.828-56.03,92.844-70.438c0,0-25.609,136.077,0,139.267
				c25.624,3.203,17.609-153.672,17.609-153.672s67.705-32.565,123.461-48.161c1.517,7.556,2.968,15.112,4.367,22.694v0.013
				c1.15,6.17,2.261,12.315,3.333,18.486c1.138,6.51,2.235,13.007,3.308,19.504c0.366,2.235,0.732,4.472,1.085,6.707v0.013
				c-14.145,29.375-23.884,55.835-12.288,54.384c4.51-0.563,10.968-5.203,18.537-12.472c1.006,8.105,1.791,17.008,2.379,26.643
				c0.145,2.483,0.275,5.007,0.393,7.582c0.053,0.98,0.092,1.975,0.131,2.98C3057.814,1139.402,3057.906,1159.038,3057.344,1180.229
				z"/>
			<g>
				<path style="fill:#233862;" d="M3056.926,1118.839c0.053,0.98,0.092,1.975,0.131,2.98
					c-182.577,101.041-178.185,167.465-171.518,186.982c0,0.013,0.014,0.013,0.014,0.026c1.189,3.478,2.444,5.451,2.732,5.869
					c0.013,0.026,0.025,0.053,0.039,0.065c0.013,0.014,0.013,0.026,0.013,0.026c-11.504,6.72-28.761,38.709-40.748,63.286
					c0,0.026-0.013,0.053-0.026,0.079c-3.281,6.719-6.157,12.877-8.419,17.818c-0.053,0.104-0.104,0.195-0.144,0.301
					c-1.568,3.438-2.824,6.262-3.7,8.223c-0.013,0.013-0.013,0.013-0.013,0.026c-0.889,2-1.373,3.124-1.373,3.124v-24.016
					c33.624-62.436,32.016-116.858,32.016-116.858c18.407-58.306,105.198-113.669,190.604-155.516
					C3056.678,1113.74,3056.809,1116.264,3056.926,1118.839z"/>
				<path style="fill:#233862;" d="M2833.915,1383.631c0,0-51.844,78.727-22.288,174.56l13.338-3.582
					c0,0-12.946-105.554,14.178-158.642S2833.915,1383.631,2833.915,1383.631z"/>
			</g>
		</g>
		<path style="fill:#233862;" d="M3003.039,1530.819c-0.706,2.405-1.425,4.824-2.157,7.217
			c-5.726,18.838-11.896,37.127-18.524,54.618c-1.556,4.118-3.15,8.197-4.758,12.224c-9.374,23.439-19.623,45.284-30.774,64.907
			c-3.099,5.49-6.288,10.812-9.543,15.936c-15.427,24.342-32.435,44.448-51.037,58.854c-1.961,1.529-3.948,2.993-5.948,4.38
			c-4.393,3.085-8.877,5.83-13.451,8.235c-0.079,0.053-0.157,0.092-0.223,0.118c-0.157,0.078-0.301,0.156-0.458,0.234
			c-0.222,0.131-0.47,0.249-0.706,0.366c-3.216,1.661-6.471,3.151-9.766,4.458l-34.12,0.196
			c-16.576-2.862-32.577-7.464-47.769-13.608c-84.137-34.003-144.103-115.291-146.979-210.919c-0.078-2.393-0.118-4.798-0.118-7.217
			H3003.039z"/>
		<path style="fill:#233862;" d="M2880.297,1748.955c-4.393,3.085-8.877,5.83-13.451,8.235c-0.079,0.053-0.157,0.092-0.223,0.118
			c-0.157,0.078-0.301,0.156-0.458,0.234c-0.222,0.131-0.47,0.249-0.706,0.366c-3.216,1.661-6.471,3.151-9.766,4.458l-34.12,0.196
			l-145.828,0.862l-48.54,0.288c1.281-2.301,2.889-4.405,4.745-6.262c5.256-5.242,12.511-8.497,20.524-8.497H2880.297z"/>
		<path style="fill:#233862;" d="M3003.039,1530.819c-0.706,2.405-1.425,4.824-2.157,7.217h-381.913v-7.217H3003.039z"/>
	</g>
	<g>
		<path style="fill:#F99746;" d="M735.262,814.932c0,0,32.2-16.884,50.384-40.305l-16.226,40.755L735.262,814.932z"/>
		<path style="fill:#F99746;" d="M705.799,817.167c0,0-34.378-11.835-55.886-32.245l22.186,37.841L705.799,817.167z"/>
	</g>
</g>
</svg>
