<?xml version="1.0" encoding="utf-8"?>
<!-- Generator: Adobe Illustrator 27.5.0, SVG Export Plug-In . SVG Version: 6.00 Build 0)  -->
<svg version="1.1" id="Layer_3" xmlns="http://www.w3.org/2000/svg" xmlns:xlink="http://www.w3.org/1999/xlink" x="0px" y="0px"
	 viewBox="0 0 2400 2000" style="enable-background:new 0 0 2400 2000;" xml:space="preserve">
<g>
	<linearGradient id="SVGID_1_" gradientUnits="userSpaceOnUse" x1="1043.6674" y1="391.5783" x2="1294.4122" y2="1813.6235">
		<stop  offset="0" style="stop-color:#F19893"/>
		<stop  offset="1" style="stop-color:#356FEB"/>
	</linearGradient>
	<path style="opacity:0.15;fill:url(#SVGID_1_);" d="M1765.507,388.473c-125.546-75.91-309.547-78.155-450.269-5.301
		c-154.488,79.977-245.607,106.28-386.554,104.426c-134.596-1.769-396.867-71.492-569.254,76.172
		c-206.978,177.295-203.721,450.145-40.52,687.234c182.379,264.95,588.955,554.324,1064.226,538.363
		c475.274-15.961,679.368-399.097,694.372-666.468C2105.332,627.193,1893.586,465.914,1765.507,388.473z"/>
	
		<linearGradient id="SVGID_00000116946948927059707880000002537645449218054537_" gradientUnits="userSpaceOnUse" x1="1215.7008" y1="126.1004" x2="1365.901" y2="1842.897">
		<stop  offset="0" style="stop-color:#356FEB"/>
		<stop  offset="1" style="stop-color:#F19893"/>
	</linearGradient>
	<path style="opacity:0.15;fill:url(#SVGID_00000116946948927059707880000002537645449218054537_);" d="M2045.297,647.846
		c-102.176-117.823-261.676-212.27-419.547-208.219c-173.305,4.445-296.273-10.067-427.533-75.426
		c-125.344-62.414-320.846-226.48-531.916-188.586c-262.832,47.188-352.26,325.625-284.609,619.264
		c75.6,328.148,340.273,809.543,802.852,979.964c452.297,166.634,800.391-76.785,923.415-298.46
		C2278.532,1169.016,2185.121,809.072,2045.297,647.846z"/>
	
		<linearGradient id="SVGID_00000124855565026382602750000009074105081436775327_" gradientUnits="userSpaceOnUse" x1="1653.8394" y1="1610.9574" x2="767.4656" y2="554.6183">
		<stop  offset="0" style="stop-color:#356FEB"/>
		<stop  offset="1" style="stop-color:#F19893"/>
	</linearGradient>
	<path style="opacity:0.15;fill:url(#SVGID_00000124855565026382602750000009074105081436775327_);" d="M1867.488,798.022
		c-107.754-488.455-290.515-566.635-410.719-592.678c-117.823-25.527-262.041,42.152-352.859,165.804
		c-99.701,135.745-163.957,195.69-274.463,247.403c-105.526,49.383-328.461,81.718-424.457,289.514
		c-115.256,249.49-41.449,511.299,147.866,677.92c211.564,186.203,604.512,310.855,971.331,115.063
		C1891.008,1505.254,1925.605,1061.485,1867.488,798.022z"/>
</g>
<g>
	<g>
		<g>
			<g>
				<g>
					<path style="fill:#585E8C;" d="M1602.428,1499.151c166.294,151.421-230.579,82.597-406.985,137.58
						c-226.889,70.718-213.379-61.2-328.4-32.308c-65.63,16.485-163.348-54.265-72.422-106.582
						c40.785-23.467,155.255-22.782,386.299-22.782S1552.927,1454.077,1602.428,1499.151z"/>
				</g>
			</g>
		</g>
	</g>
	<g>
		<g>
			<g>
				<path style="fill:#BCD670;" d="M1513.976,448.056v-22.187v-72.396h-83.791h-90.878h-83.791v258.46h258.46v-71.505
					c25.508,0,46.186-20.678,46.186-46.186C1560.162,468.735,1539.484,448.056,1513.976,448.056z"/>
				<polygon style="opacity:0.5;fill:#BCD670;" points="1255.516,611.932 1513.976,611.932 1255.516,353.473 				"/>
			</g>
			<path style="fill:#E8B4B6;" d="M1392.016,634.576l0.383,9.876h-22.355l0.197-22.855l-9.931-16.713
				c-2.347-3.951,0.5-8.954,5.095-8.954l13.019,15.995h31.618l-14.495,13.904C1393.174,628.105,1391.888,631.289,1392.016,634.576z"
				/>
			<g>
				<g>
					<path style="fill:#240401;" d="M1229.042,1552.273l-20.827,0.139l0.032,5.06c0.007,1.089,0.938,1.967,2.078,1.959l16.696-0.111
						c1.141-0.008,2.06-0.897,2.053-1.987L1229.042,1552.273z"/>
					<path style="fill:#240401;" d="M1244.059,1559.206l74.888-0.499c1.122-0.008,2.025-0.883,2.018-1.954l-0.033-5.093
						l-76.919,0.513L1244.059,1559.206z"/>
				</g>
				<path style="fill:#875A3B;" d="M1216.333,1514.142l29.092-0.453c2.6-0.041,4.819-1.81,5.326-4.247l0.587-2.824l8.158,0.796
					c3.308,0.323,5.829,2.973,5.849,6.15l0.048,7.513l6.432,4.743c7.264,5.357,16.099,8.416,25.272,8.749l9.575,0.349
					c2.884,0.104,5.604,1.307,7.554,3.339l0.93,0.969c3.692,3.847,5.754,8.869,5.787,14.09l0.008,1.214l-74.442,0.496
					c-2.529,0.017-5.011-0.656-7.152-1.94l-10.348-6.038l0.052,8.106l-20.827,0.139l-0.212-33.03
					C1207.993,1517.838,1211.702,1514.214,1216.333,1514.142z"/>
				<path style="opacity:0.4;fill:#875A3B;" d="M1211.267,1515.865c-1.987,1.489-3.262,3.802-3.246,6.397l0.212,33.03l20.827-0.139
					l-0.052-8.106l10.348,6.038c2.141,1.284,4.623,1.958,7.152,1.94l74.442-0.496l-0.008-1.214
					c-0.025-3.888-1.176-7.663-3.285-10.927C1260.554,1544.35,1225.958,1526.06,1211.267,1515.865z"/>
			</g>
			<g>
				<g>
					<path style="fill:#240401;" d="M1061.939,1490.18l-14.825-14.629l-3.555,3.601c-0.766,0.776-0.728,2.054,0.084,2.855
						l11.885,11.727c0.812,0.801,2.091,0.822,2.857,0.047L1061.939,1490.18z"/>
					<path style="fill:#240401;" d="M1067.655,1505.701l53.307,52.6c0.798,0.788,2.055,0.809,2.808,0.046l3.578-3.625
						l-54.753-54.026L1067.655,1505.701z"/>
				</g>
				<path style="fill:#875A3B;" d="M1079.916,1454.23l20.891,20.251c1.867,1.809,4.687,2.127,6.768,0.763l2.412-1.582l5.206,6.332
					c2.111,2.567,2.019,6.224-0.213,8.484l-5.279,5.347l1.194,7.902c1.348,8.925,5.433,17.334,11.683,24.057l6.524,7.017
					c1.966,2.113,3.038,4.887,2.98,7.702l-0.028,1.343c-0.11,5.331-2.202,10.34-5.871,14.055l-0.853,0.864l-52.989-52.288
					c-1.801-1.776-3.079-4.007-3.685-6.43l-3.048-11.586l-5.695,5.769l-14.825-14.629l23.206-23.506
					C1071.405,1450.946,1076.59,1451.006,1079.916,1454.23z"/>
				<path style="opacity:0.4;fill:#875A3B;" d="M1075.115,1451.866c-2.458-0.352-4.995,0.382-6.819,2.229l-23.206,23.506
					l14.825,14.629l5.695-5.769l3.048,11.586c0.606,2.422,1.884,4.653,3.685,6.43l52.989,52.288l0.853-0.864
					c2.731-2.766,4.587-6.25,5.403-10.049C1089.825,1506.86,1078.294,1469.464,1075.115,1451.866z"/>
			</g>
			<path style="fill:#48649B;" d="M1263.693,1044.075c0,0,17.845,199.195,9.416,246.701l-0.216,1.525
				c-2.484,17.51-9.97,33.932-21.558,47.293l-128.79,148.487l-51.721-41.952l137.348-163.783l-52.423-237.569L1263.693,1044.075z"/>
			<path style="fill:#798DC8;" d="M1116.576,1092.108c-1.721,1.092,90.637,432.37,90.637,432.37l65.896-8.429l-61.299-409.935
				C1211.811,1106.114,1186.231,1047.91,1116.576,1092.108z"/>
			<path style="fill:#9CAFDD;" d="M1206.607,1527.497l66.099-6.504c2.013-0.198,3.484-1.991,3.286-4.003l-1.197-12.164
				c-0.198-2.013-1.99-3.484-4.003-3.286l-66.099,6.504c-2.012,0.198-3.484,1.99-3.286,4.003l1.197,12.164
				C1202.802,1526.224,1204.594,1527.695,1206.607,1527.497z"/>
			<path style="fill:#9CAFDD;" d="M1061.655,1457.989l51.338,42.14c1.563,1.284,3.871,1.056,5.154-0.507l7.755-9.448
				c1.283-1.564,1.056-3.871-0.507-5.154l-51.338-42.14c-1.563-1.283-3.871-1.056-5.154,0.507l-7.755,9.448
				C1059.865,1454.398,1060.092,1456.705,1061.655,1457.989z"/>
			<path style="fill:#E8B4B6;" d="M859.66,1106.426c-1.506,1.267-1.657,3.548-0.295,5.005c1.277,1.366,3.462,1.358,4.893,0.154
				l20.607-17.343c0.443-0.373,1.061-0.458,1.588-0.219l1.26,0.571c0.889,0.403,1.164,1.534,0.559,2.3l-17.602,22.3
				c-1.021,1.293-1.071,3.16-0.006,4.416c1.465,1.73,4.043,1.618,5.372-0.066l19.229-24.36c0.498-0.631,1.332-0.892,2.1-0.657
				l0.83,0.253c1.093,0.334,1.667,1.531,1.242,2.592l-7.841,19.557c-0.711,1.77,0.15,3.781,1.92,4.49
				c1.769,0.713,3.78-0.15,4.491-1.92l9.617-23.984c0.265-0.66,0.767-1.198,1.408-1.507l5.003-2.413
				c0.627-0.303,1.35,0.171,1.324,0.866l-0.616,16.37c-0.068,1.802,1.189,3.462,2.977,3.701c2.051,0.274,3.844-1.275,3.92-3.293
				l1.74-46.192c0.067-1.785-1.134-3.458-2.896-3.752c-0.687-0.115-1.334-0.002-1.911,0.247l-9.383-5.573
				c-0.119-0.292-0.264-0.577-0.469-0.837c-0.653-0.83-1.609-1.281-2.587-1.318c-0.79-0.03-1.593,0.209-2.262,0.736l-39.181,30.785
				c-1.548,1.216-1.776,3.49-0.464,4.992c1.231,1.409,3.415,1.474,4.886,0.318l9.693-7.616c0.754-0.593,1.867-0.288,2.214,0.607
				l0.453,1.167c0.221,0.57,0.055,1.216-0.412,1.61L859.66,1106.426z"/>
			<path style="fill:#30305B;" d="M978.563,920.929c3.435-5.683,8.15-10.271,13.611-13.559l22.002-14.032l57.588-34.692
				c0.076-0.042,0.151-0.084,0.226-0.127l44.674-23.166c0.117-0.07,0.235-0.139,0.353-0.209c6.569-4.4,13.549-8.104,20.822-11.085
				c1.322,1.63,15.889-0.688,15.889-0.688s52.639,4.878,54.17,4.878c0.866,0,1.829-11.155,2.503-20.857l103.502-57.418
				c10.8-5.991,18.831-15.965,22.38-27.795l26.523-88.411c0.588-1.958,2.542-3.17,4.557-2.826l29.908,5.106
				c2.301,0.393,3.793,2.645,3.258,4.917l-28.839,122.373c-2.698,11.446-9.375,21.562-18.84,28.541l-74.833,55.18
				c-0.949,0.699-1.545,1.778-1.634,2.954l-14.307,190.455c-0.149,1.989-1.726,3.573-3.715,3.731l-109.498,8.691
				c-1.711,0.136-3.318-0.814-4.015-2.383c-6.358-14.303-36.787-83.582-42.254-111.461c-0.464-2.365-0.615-4.519-2.91-3.78
				l-69.773,13.835c-10.437,2.07-19.692,8.039-25.882,16.693l-78.095,109.174c-1.068,1.417-2.935,1.974-4.605,1.371l-25.47-9.184
				c-2.403-0.866-3.412-3.714-2.091-5.9L978.563,920.929z"/>
			
				<rect x="1155.667" y="782.197" transform="matrix(0.9934 -0.1148 0.1148 0.9934 -89.2716 140.2411)" style="fill:#E8B4B6;" width="34.863" height="126.164"/>
			<path style="opacity:0.5;fill:#E8B4B6;" d="M1186.47,808.517l-4.445-38.468l-34.703,4.01l3.183,27.554
				C1157.379,805.238,1170.576,810.518,1186.47,808.517z"/>
			<path style="fill:#E8B4B6;" d="M1127.958,749.535c4.046,8.96,0.062,19.504-8.899,23.55c-8.96,4.046-19.504,0.062-23.55-8.899
				c-4.045-8.961-0.061-19.504,8.899-23.55C1113.368,736.591,1123.912,740.575,1127.958,749.535z"/>
			<path style="fill:#E8B4B6;" d="M1122.209,771.256l-29.73-47.631c-7.956-12.747-10.569-27.313-8.449-41.084
				c23.272-7.27,60.342-18.835,61.032-18.96c0,0,25.9-13.797,27.696-14.772c1.436,1.617,14.695,31.504,14.695,31.504
				c2.939,7.451,7.241,14.29,12.685,20.166l11.277,12.17c14.025,15.136,16.231,36.874,7.518,53.85
				c-0.231,0.45-0.488,0.886-0.768,1.306c-3.293,4.937-7.303,9.068-11.639,12.521c-2.794,2.225-5.945,3.962-9.29,5.214
				C1151.948,802.497,1122.221,771.27,1122.209,771.256z"/>
			<path style="fill:#19184B;" d="M1165.325,711.927c-1.152,0.52-1.664,1.876-1.144,3.029c0.52,1.152,1.876,1.665,3.029,1.145
				c1.152-0.52,1.665-1.876,1.145-3.029S1166.478,711.407,1165.325,711.927z"/>
			<path style="fill:#19184B;" d="M1186.75,697.437c-1.152,0.52-1.665,1.876-1.145,3.029c0.521,1.152,1.877,1.665,3.029,1.145
				c1.152-0.52,1.665-1.877,1.144-3.029C1189.259,697.428,1187.903,696.916,1186.75,697.437z"/>
			<path style="opacity:0.12;fill:#DF524C;" d="M1148.919,732.073c-6.384,1.902-10.016,8.62-8.114,15.003
				c1.903,6.384,8.62,10.016,15.004,8.114c6.384-1.902,10.016-8.62,8.114-15.004C1162.02,733.803,1155.303,730.17,1148.919,732.073z
				"/>
			<path style="opacity:0.12;fill:#DF524C;" d="M1206.089,707.04l-6.758-7.449c-3.08,3.031-4.429,7.617-3.108,12.047
				c1.902,6.384,8.62,10.017,15.003,8.114c1.583-0.472,2.995-1.241,4.197-2.226C1211.925,712.677,1206.089,707.04,1206.089,707.04z"
				/>
			<path style="fill:#4C2724;" d="M1155.859,699.201l-8.947,9.91c-0.707,0.782-0.645,1.99,0.138,2.697
				c0.412,0.371,0.941,0.531,1.453,0.484c0.462-0.043,0.908-0.251,1.242-0.622l8.947-9.91c0.707-0.782,0.645-1.99-0.137-2.697
				C1157.771,698.357,1156.564,698.419,1155.859,699.201z"/>
			<path style="fill:#4C2724;" d="M1187.65,688.242l-12.595,4.431c-0.994,0.348-1.517,1.438-1.168,2.434
				c0.35,0.995,1.44,1.518,2.434,1.167l12.595-4.431c0.471-0.165,0.836-0.497,1.053-0.906c0.241-0.455,0.298-1.004,0.115-1.528
				C1189.735,688.415,1188.645,687.892,1187.65,688.242z"/>
			<path style="fill:#ADDDF0;" d="M1190.922,800.045l1.956,11.326c0.475,2.752-1.366,5.369-4.116,5.852l-35.034,6.149
				c-2.779,0.488-5.421-1.389-5.875-4.173l-2.051-12.554c-0.458-2.806,1.482-5.439,4.297-5.833l35.128-4.921
				C1187.936,795.511,1190.457,797.35,1190.922,800.045z"/>
			<path style="fill:#FFFFFF;" d="M1202.188,740.76c-1.801,6.018-6.178,10.642-11.941,11.704
				c-5.873,1.082-11.662-1.812-15.392-6.992L1202.188,740.76z"/>
			<path style="opacity:0.5;fill:#E8B4B6;" d="M1106.721,746.725c-5.109,3.308-6.569,10.132-3.261,15.241
				c3.308,5.109,10.132,6.569,15.241,3.26L1106.721,746.725z"/>
			<path style="fill:#5F4142;" d="M1261.818,1047.91l-116.089,7.476c0,0-1.265,9.985-1.213,9.648
				c0.052-0.337,117.645-6.933,117.645-6.933L1261.818,1047.91z"/>
			<path style="fill:#ADDDF0;" d="M1150.099,800.812l7.964-1.116c8.883,3.867,21.733,8.502,34.477,9.72l0.338,1.955
				c0.475,2.752-1.366,5.369-4.116,5.852l-35.034,6.149c-2.779,0.488-5.421-1.389-5.875-4.173l-2.051-12.554
				C1145.344,803.839,1147.283,801.206,1150.099,800.812z"/>
			<path style="fill:#ADDDF0;" d="M1153.708,920.771c-0.341-3.217-15.869-96.71-15.869-96.711c8.586-3.52,17.58-6.029,26.808-7.439
				l39.47-6.03c0.475-0.073,0.932-0.229,1.352-0.462l11.436-6.344c6.03,1.211,10.984,2.238,10.984,2.238l32.55,35.872l1.722,188.246
				l-3.799,14.06l-78.48,6.229C1175.949,1032.045,1154.026,923.779,1153.708,920.771z"/>
			<path style="fill:#30305B;" d="M1137.842,824.208c0,0,37.843,27.48,44.148,83.694c5.729,51.075,10.587,157.413,5.322,200.556
				c-0.782,6.409-5.815,11.462-12.224,12.247l-60.577,7.426c-8.599,1.054-15.194-7.475-12.011-15.533l23.412-59.255
				c5.404-13.677,5.655-28.85,0.708-42.698l-31.181-87.276l29.439-77.942L1137.842,824.208z"/>
			<path style="fill:#161733;" d="M1181.986,907.753c3.893,34.712,7.384,94.944,7.568,143.522l-48.833-142.585
				c-0.873-2.549-0.623-5.348,0.688-7.702l11.515-20.67c2.87-5.152,0.401-11.648-5.167-13.593l-13.716-4.791
				c-5.03-1.757-7.632-7.306-5.766-12.296l9.563-25.578C1137.839,824.06,1175.682,851.54,1181.986,907.753z"/>
			<path style="fill:#30305B;" d="M1218.502,802.899h14.939c0,0,0.926,0.514,2.456,1.352l22.244,1.729l1.488,10.44
				c1.898,0.827,3.354,1.359,4.064,1.414c3.906,0.301,5.018,33.087,7.315,35.385c0.839,0.838,0.453,18.442-0.375,40.46l1.618,11.355
				c0,0,1.242,137.927,0,160.01c-0.915,16.254-0.184,40.46,0.266,52.107c0.142,3.682-2.804,6.738-6.489,6.738h-11.621
				c-3.54,0-6.428-2.835-6.492-6.374l-2.509-136.996l0,0c-2.509-136.996-41.288-169.926-41.288-169.926L1218.502,802.899z"/>
			<path style="fill:#161733;" d="M1212.787,805.977l38.756,20.207c2.872,1.692,3.984,5.292,2.567,8.309l-4.881,10.391
				c-1.247,2.655-0.548,5.817,1.702,7.699l10.448,8.738c1.619,1.354,2.474,3.414,2.29,5.517l-16.826,192.127l-1.033-56.405
				l-0.44-24.036c-0.003,0.001-0.005,0.001-0.009,0.002c-2.849-135.311-41.243-167.935-41.243-167.935L1212.787,805.977z"/>
			<path style="opacity:0.2;fill:#30305B;" d="M1099.718,935.346l26.076-8.238l12.507,38.717
				c11.407,35.311,14.141,72.851,7.97,109.442l-8.433,50.004l-23.328,2.86c-8.599,1.054-15.194-7.475-12.011-15.532l23.413-59.255
				c5.404-13.677,5.655-28.85,0.708-42.698L1099.718,935.346z"/>
			<path style="fill:#CDA484;" d="M1209.326,1051.989c-0.087-1.722,1.238-3.188,2.959-3.274l11.516-0.583
				c1.721-0.087,3.187,1.238,3.275,2.958l0.098,1.945l-3.087,0.212c-0.896,0.061-1.574,0.838-1.512,1.735
				c0.061,0.897,0.838,1.575,1.735,1.513l3.029-0.207l0.105,2.071c0.087,1.722-1.238,3.188-2.959,3.275l-11.516,0.583
				c-1.721,0.087-3.187-1.237-3.274-2.958L1209.326,1051.989z M1203.332,1046.573l0.946,18.679c0.087,1.722,1.553,3.046,3.274,2.959
				l22.926-1.161c1.722-0.087,3.046-1.553,2.959-3.274l-0.946-18.679c-0.087-1.721-1.553-3.046-3.275-2.959l-22.926,1.161
				C1204.569,1043.386,1203.244,1044.852,1203.332,1046.573z"/>
			<g>
				<polygon style="fill:#161733;" points="1100.382,937.206 1135.444,926.342 1134.843,924.363 1099.685,935.256 				"/>
			</g>
			<g>
				<path style="fill:#161733;" d="M1125.685,1126.761l11.334-55.588c6.4-31.388,4.793-64.158-4.644-94.768l-13.822-44.828
					l-1.977,0.609l13.822,44.828c9.337,30.279,10.925,62.695,4.595,93.743l-11.459,56.266L1125.685,1126.761z"/>
			</g>
			<path style="opacity:0.12;fill:#DF524C;" d="M1103.291,741.211c-18.132-28.276-24.69-40.378-9.937-61.581
				c22.547-7.039,51.169-15.959,51.708-16.048c4.265-1.928,10.741-5.836,13.812-7.157c2.192-0.279,14.564-6.394,14.612-6.399
				l4.202,8.708c-78.786,51.627-56.237,57.804-46.011,78.495c21.945,42.721,49.212,48.186,90.197,22.06
				c-8.753,26.256-35.634,31.966-55.241,31.189c-13.041-0.407-32.817-7.251-44.331-19.296c-0.993,0.732-2.073,1.376-3.243,1.904
				c-8.96,4.045-19.504,0.062-23.55-8.899C1091.638,755.612,1095.132,745.604,1103.291,741.211z"/>
			<path style="fill:#452B13;" d="M1165.485,659.159c0,0,4.5,11.768-8.205,21.034c-11.879,8.664-33.438-0.703-46.857,1.808
				c-13.419,2.512-24.149,23.435-7.606,39.56l14.653,19.282c0,0-10.201-3.097-17.832,3.312c-9.65,8.105-3.285,21.673-3.285,21.673
				s-44.124-19.574-28.202-66.405c0,0-2.759-1.857-8.24,1.591c0,0-3.283-23.063,26.257-35.667c0,0-7.095-2.713-20.264,1.829
				c0,0,9.291-13.326,36.256-16.885c0,0-7.752-3.137-18.239-0.589c0,0,13.156-12.463,45.28-15.721c0,0-9.82-3.539-17.895-2.928
				c0,0,11.936-4.322,25.716-5.189c17.611-1.107,31.995,0.863,36.512,17.922c3.498,13.211,12.804,12.407,9.66,27.017
				C1183.194,670.8,1176.638,662.316,1165.485,659.159z"/>
			<g style="opacity:0.5;">
				<g>
					<path style="fill:#CAA37D;" d="M1197.176,730.752c-0.13,0.108-0.284,0.188-0.455,0.23l-12.375,3.077
						c-0.62,0.154-1.256-0.224-1.424-0.845c-0.167-0.62,0.199-1.249,0.82-1.402l10.896-2.71
						c-7.688-12.516-23.922-25.091-24.091-25.221c-0.513-0.394-0.615-1.122-0.23-1.625c0.385-0.505,1.113-0.591,1.626-0.197
						c0.729,0.56,17.937,13.889,25.484,27.246c0.178,0.315,0.202,0.691,0.063,1.019
						C1197.421,730.493,1197.312,730.639,1197.176,730.752z"/>
				</g>
			</g>
		</g>
	</g>
</g>
</svg>
