<?xml version="1.0" encoding="utf-8"?>
<!-- Generator: Adobe Illustrator 18.0.0, SVG Export Plug-In . SVG Version: 6.00 Build 0)  -->
<!DOCTYPE svg PUBLIC "-//W3C//DTD SVG 1.1//EN" "http://www.w3.org/Graphics/SVG/1.1/DTD/svg11.dtd">
<svg xmlns="http://www.w3.org/2000/svg" xmlns:xlink="http://www.w3.org/1999/xlink" version="1.1" id="Layer_1" x="0px" y="0px" viewBox="0 0 1400 1100" enable-background="new 0 0 1400 1100" xml:space="preserve">
<g>
	<defs>
		
	</defs>
	<clipPath id="SVGID_2_">
		<use xlink:href="#SVGID_5_" overflow="visible"/>
	</clipPath>
	<g clip-path="url(#SVGID_2_)">
		
		<rect x="945" y="105.1" fill="#13263F" width="455" height="595.9"/>
		<g>
			<rect x="986" y="411.8" fill="#26436E" width="207.7" height="248.2"/>
			<rect x="986" y="146.1" fill="#26436E" width="207.7" height="224.7"/>
			<rect x="1234.7" y="411.8" fill="#26436E" width="166.7" height="248.2"/>
			<rect x="1234.7" y="146.1" fill="#26436E" width="166.7" height="224.7"/>
		</g>
		<rect x="685.6" y="506.9" fill="#13263F" width="28.8" height="471.9"/>
		<path fill="#13263F" d="M747.4,956.9h-94.8c-12.1,0-21.9,9.8-21.9,21.9v0h138.5v0C769.2,966.7,759.5,956.9,747.4,956.9z"/>
		<path fill="#13263F" d="M1339.6,978.8H60.4c-11.1,0-20.1,9-20.1,20.1s9,20.1,20.1,20.1h1279.1c11.1,0,20.1-9,20.1-20.1    S1350.7,978.8,1339.6,978.8z"/>
		<g>
			<path fill="#395182" d="M644.1,291.3c-8.3,0-15.7,5.6-17.8,13.7L578,483.6c-3.2,11.7,5.7,23.3,17.8,23.3h186.6l-58.2-215.6H644.1     z"/>
			<path fill="#486298" d="M822,483.6L773.7,305c-2.2-8.1-9.5-13.7-17.8-13.7h-31.6l58.2,215.6h21.6     C816.3,506.9,825.1,495.4,822,483.6z"/>
		</g>
		<rect x="154.8" y="105.1" fill="#476396" width="18.3" height="236.4"/>
		<rect x="173.1" y="105.1" fill="#203864" width="273.4" height="236.4"/>
		<path fill="#395182" d="M215.1,233.7v65.8h137.7C334.3,275.4,288.8,238,215.1,233.7z"/>
		<g>
			<polygon fill="#698CC7" points="339,199.6 393.7,165.6 404.5,172.6 404.5,147.1 215.1,147.1 215.1,207 284,162.2    "/>
			<path fill="#13263F" d="M393.7,165.6l-54.7,34l-55-37.3L215.1,207v26.8c15.3,0.9,29.4,3.2,42.2,6.5     c51.6-20.4,105.6-21.3,147.1-16.6v-51.1L393.7,165.6z"/>
			<path fill="#486298" d="M257.4,240.3c49.1,12.7,80.8,40.1,95.5,59.2h51.6v-75.8C363,218.9,308.9,219.9,257.4,240.3z"/>
		</g>
		<polygon opacity="0.1" fill="#FFFFFF" points="1047.5,517 1193.7,370.8 1193.7,146.1 986,146.1 615.1,517   "/>
		<polygon opacity="0.1" fill="#FFFFFF" points="1215.1,598.1 1442.5,370.8 1442.5,146.1 1234.8,146.1 863.8,517   "/>
		<polygon opacity="0.1" fill="#FFFFFF" points="875,978.7 1193.7,660 1193.7,411.8 986,411.8 419.1,978.7   "/>
		<polygon opacity="0.1" fill="#FFFFFF" points="1123.7,978.7 1442.5,660 1442.5,411.8 1234.8,411.8 667.9,978.7   "/>
		<g>
			<g>
				<rect x="199.4" y="521.9" fill="#203864" width="290.4" height="212"/>
				<rect x="199.6" y="589.8" fill="#13263F" width="289.9" height="76.3"/>
			</g>
			<g>
				<path fill="#203864" d="M199.4,978.8h-70.9V477.6h54c9.3,0,16.9,7.5,16.9,16.9V978.8z"/>
				<path fill="#476396" d="M152,978.8h-47.4V494.5c0-9.3,7.5-16.9,16.9-16.9h16.5c7.8,0,14.1,6.3,14.1,14.1V978.8z"/>
				<circle fill="#13263F" cx="128.3" cy="520.9" r="8.5"/>
				<circle fill="#13263F" cx="128.3" cy="686.6" r="9.1"/>
				<circle fill="#13263F" cx="128.3" cy="870" r="9.1"/>
			</g>
			<path fill="#476396" d="M543.1,604.5c-13-25.7-35.3-45.8-60.7-59.4s-53.7-20.8-82.1-24.9c-58.2-8.3-118.2-3.7-174.5,13.6     c-2.4-2-4.7-3.7-7.5-5.1c-2.8-1.4-6-2.1-9-1.5s-5.8,2.9-6.6,5.9c-0.9,3.8,1.5,7.7,4.8,9.8c3.3,2.1,7.3,2.6,11.1,3.2     c0.6,23.9,8.7,48.3,20.9,68.8c12.1,20.6,33.3,40,53.9,52h256L543.1,604.5z"/>
			<path fill="#375689" d="M288.2,516.8c-17.2,8-35.1,14.5-53.4,19.4c1.4,4.9,4.4,9.2,8.6,12.2c4.2,3,9.4,4.5,14.5,4.2     c-3.6,2-7.2,3.5-11.2,4.2c9.7,7.8,23.4,10.6,35.6,7.8c-2.3,2.4-4.4,4.6-6.7,7.1c9.8,3,20.9,2.3,30.3-1.8     c12,18.4,30.7,43.1,47.2,57.6H335c-11,0-19.9,8.9-19.9,19.9v0c0,11,8.9,19.9,19.9,19.9h86.5L288.2,516.8z"/>
			<path fill="#203864" d="M561.4,978.8h-70.9V477.6h54c9.3,0,16.9,7.5,16.9,16.9V978.8z"/>
			<path fill="#476396" d="M514,978.8h-47.4V494.5c0-9.3,7.5-16.9,16.9-16.9h16.5c7.8,0,14.1,6.3,14.1,14.1V978.8z"/>
			<path fill="#3A5D98" d="M1199.6,667H267c-37.5,0-67.9,30.4-67.9,67.9v0h1000.4V667z"/>
			<path fill="#203864" d="M1295.4,978.8h-70.9V560.1h54c9.3,0,16.9,7.5,16.9,16.9V978.8z"/>
			<path fill="#476396" d="M1248,978.8h-47.4V576.9c0-9.3,7.5-16.9,16.9-16.9h16.5c7.8,0,14.1,6.3,14.1,14.1V978.8z"/>
			<rect x="933.4" y="667" fill="#203864" width="290.4" height="212"/>
			<rect x="933.6" y="734.9" fill="#13263F" width="289.9" height="76.3"/>
			<rect x="199.4" y="811.2" fill="#203864" width="639.5" height="67.9"/>
			<rect x="199.1" y="734.9" fill="#13263F" width="639.5" height="76.3"/>
			<path fill="#051937" d="M655.5,667V541.9H501.6c-18.9,0-34.3,15.3-34.3,34.3v56.6c0,18.9,15.3,34.3,34.3,34.3H655.5z"/>
			<path fill="#674745" d="M507.8,617.9L507.8,617.9c6-11.4,1.6-25.4-9.8-31.4l-39.8-20.9l-21.6,41.1l39.8,20.9     C487.8,633.6,501.8,629.2,507.8,617.9z"/>
			<path fill="#674745" d="M544.6,627.3H351c-11,0-19.9,8.9-19.9,19.9v0c0,11,8.9,19.9,19.9,19.9h193.7c11,0,19.9-8.9,19.9-19.9v0     C564.5,636.2,555.6,627.3,544.6,627.3z"/>
			<g>
				<path fill="#755050" d="M461.3,635.8L461.3,635.8c27.9-24.3,30.9-66.6,6.7-94.5l-46.1-53.1c-8.2-9.4-22.5-10.5-31.9-2.3      l-67,58.2c-9.4,8.2-10.5,22.5-2.3,31.9l46.1,53.1C391,657.1,433.3,660.1,461.3,635.8z"/>
				<g>
					<path fill="#051937" d="M394.2,568.5c2.7-2.4,4.6-5.8,4.8-9.7c0.1-1.9-1.3-3.6-3.2-3.7c-1.9-0.1-3.6,1.3-3.7,3.2       c-0.3,3.9-3.7,6.9-7.6,6.6c-1.9-0.1-3.6,1.3-3.7,3.2c-0.1,1.9,1.3,3.6,3.2,3.7C387.8,572.2,391.5,570.9,394.2,568.5z"/>
				</g>
				<g>
					<path fill="#051937" d="M357.5,600.4c2.3-2,3.4-4.9,3.3-8.3c-0.1-1.7-1.5-3.4-3.2-3.7c-1.7-0.3-3,0.8-3,2.6       c0.1,1.7-0.5,3.2-1.7,4.2c-1.1,1-2.7,1.4-4.4,1.1c-1.7-0.3-3,0.8-3,2.6c0.1,1.7,1.5,3.4,3.2,3.7       C352.1,603.1,355.2,602.3,357.5,600.4z"/>
				</g>
				<path fill="#051937" d="M408.6,636.2L408.6,636.2c2.2-1.9,2.5-5.3,0.5-7.5l-4.4-5.1c-1.9-2.2-5.3-2.5-7.5-0.5v0      c-2.2,1.9-2.5,5.3-0.5,7.5l4.4,5.1C403,637.9,406.4,638.1,408.6,636.2z"/>
				<path fill="#051937" d="M447.8,545.6l15.1,17.4l0,0c-9.3-0.7-18-5-24.1-12l-25.9-29.8c-1.6-1.9-3.9-3-6.4-3.2l-8.9-0.6      c-2.5-0.2-4.8-1.3-6.4-3.2l0,0c-3.4-3.9-9.3-4.3-13.2-0.9l-53.2,46.2c-9.4,8.1-23.6,7.1-31.7-2.2l0,0l15.3-13.3l-9,7.8      c-9,7.8-22.7,6.9-30.6-2.2h0l22.4-19.5l-15.9,13.8c-8.3,7.2-21,6.4-28.2-2l0,0l99.7-86.5c10.7-9.3,26.9-8.2,36.2,2.6v0h0      c9-7.9,22.7-6.9,30.6,2.2l61,70.2L447.8,545.6z"/>
				<path fill="#755050" d="M470.1,571.3l14.3-12.5c7.1-6.2,7.8-16.9,1.7-24l0,0c-6.2-7.1-16.9-7.8-24-1.7l-14.3,12.5L470.1,571.3z"/>
				<path fill="#664544" d="M477.2,550.5c2.5-2.2,2.8-6,0.6-8.5c-2.2-2.5-6-2.8-8.5-0.6l-6,5.2l7.9,9.1L477.2,550.5z"/>
			</g>
			<g>
				<path fill="#789BD1" d="M669,517.1h-66c-21.2,0-38.5,17.2-38.5,38.5V667h66V555.5C630.5,534.3,647.7,517.1,669,517.1z"/>
				<path fill="#698CC7" d="M995.5,517.1h-299h-25.8H669c-21.2,0-38.5,17.2-38.5,38.5V667h66h237.1v-88.1      C933.6,544.8,961.3,517.1,995.5,517.1z"/>
				<path fill="#537EBD" d="M1201,572.7c0-30.7-24.9-55.7-55.7-55.7H1051h-55.5c-34.2,0-61.8,27.7-61.8,61.8V667H1201V572.7z"/>
			</g>
			<g>
				<path fill="#203864" d="M933.4,978.8h-70.9V560.1h54c9.3,0,16.9,7.5,16.9,16.9V978.8z"/>
				<path fill="#476396" d="M886,978.8h-47.4V576.9c0-9.3,7.5-16.9,16.9-16.9h16.5c7.8,0,14.1,6.3,14.1,14.1V978.8z"/>
				<circle fill="#13263F" cx="862.3" cy="686.6" r="9.1"/>
				<circle fill="#13263F" cx="862.3" cy="870" r="9.1"/>
			</g>
			<path fill="#789BD1" d="M564.5,781.3h-66V667.1c0-3.9,3.2-7.1,7.1-7.1h58.9V781.3z"/>
			<rect x="561.4" y="660.1" fill="#5E85BC" width="278" height="121.2"/>
		</g>
	</g>
</g>
</svg>
